<?xml version="1.0" encoding="utf-8"?>
<!-- Generator: Adobe Illustrator 16.0.0, SVG Export Plug-In . SVG Version: 6.00 Build 0)  -->
<!DOCTYPE svg PUBLIC "-//W3C//DTD SVG 1.1//EN" "http://www.w3.org/Graphics/SVG/1.1/DTD/svg11.dtd">
<svg version="1.1" id="Layer_1" xmlns="http://www.w3.org/2000/svg" xmlns:xlink="http://www.w3.org/1999/xlink" x="0px" y="0px"
	 width="51.468px" height="50.919px" viewBox="-13.58 -13.75 51.468 50.919" enable-background="new -13.58 -13.75 51.468 50.919"
	 xml:space="preserve">
<g>
	<path fill="#DF98D5" d="M37.344,11.713c0,14.06-11.402,25.457-25.469,25.457c-14.057,0-25.455-11.396-25.455-25.457
		c0-14.062,11.398-25.463,25.455-25.463C25.941-13.75,37.344-2.349,37.344,11.713z"/>
	<path opacity="0.4" fill="#A04297" d="M24.605,0.765H4.29c-0.984,0-1.781,0.801-1.781,1.779v3.809v18.668
		c0,0.986,0.797,1.783,1.781,1.783h20.315c0.982,0,1.781-0.797,1.781-1.783V6.353V2.544C26.387,1.566,25.588,0.765,24.605,0.765z"/>
	<path opacity="0.6" fill="#878787" d="M16.369,10.944c0,1.818-1.471,3.295-3.279,3.295c-1.823,0-3.294-1.478-3.294-3.295
		c0-1.82,1.471-3.291,3.294-3.291C14.898,7.653,16.369,9.123,16.369,10.944z"/>
	<path opacity="0.6" fill="#878787" d="M7.411,20.604c0-3.113,2.525-5.639,5.642-5.639c3.109,0,5.639,2.525,5.639,5.639"/>
	<path fill="#FFFFFF" d="M22.866,21.521c0,0.986-0.799,1.783-1.781,1.783H0.769c-0.984,0-1.781-0.797-1.781-1.783V-0.96
		c0-0.979,0.797-1.779,1.781-1.779h20.316c0.982,0,1.781,0.801,1.781,1.779V21.521z"/>
	<path fill="#FFD75B" d="M22.866,2.849V-0.96c0-0.979-0.799-1.779-1.781-1.779H0.769c-0.984,0-1.781,0.801-1.781,1.779v3.809H22.866
		z"/>
	<path fill="#F3F2F8" d="M14.246,8.966c0,1.816-1.465,3.294-3.282,3.294c-1.822,0-3.293-1.478-3.293-3.294
		c0-1.82,1.471-3.291,3.293-3.291C12.781,5.675,14.246,7.146,14.246,8.966z"/>
	<path fill="#F3F2F8" d="M5.286,18.627c0-3.113,2.525-5.639,5.641-5.639c3.113,0,5.64,2.525,5.64,5.639"/>
</g>
</svg>
