<?xml version="1.0" encoding="utf-8"?>
<!-- Generator: Adobe Illustrator 16.0.0, SVG Export Plug-In . SVG Version: 6.00 Build 0)  -->
<!DOCTYPE svg PUBLIC "-//W3C//DTD SVG 1.1//EN" "http://www.w3.org/Graphics/SVG/1.1/DTD/svg11.dtd">
<svg version="1.1" id="Layer_1" xmlns="http://www.w3.org/2000/svg" xmlns:xlink="http://www.w3.org/1999/xlink" x="0px" y="0px"
	 width="21.744px" height="22.092px" viewBox="1.039 0.565 21.744 22.092" enable-background="new 1.039 0.565 21.744 22.092"
	 xml:space="preserve">
<path fill="#E5D7C6" d="M17.624,2.742L4.185,9.662c-0.008,0.004-0.016,0.01-0.021,0.015c-0.082,0.042-0.155,0.097-0.233,0.15
	c-0.042,0.032-0.09,0.057-0.132,0.088c-0.054,0.046-0.104,0.102-0.156,0.154c-0.048,0.052-0.104,0.099-0.149,0.153
	c-0.033,0.041-0.062,0.092-0.094,0.137c-0.053,0.074-0.103,0.146-0.145,0.224c-0.006,0.008-0.013,0.017-0.016,0.026
	c-0.024,0.045-0.034,0.093-0.056,0.139c-0.034,0.077-0.068,0.154-0.091,0.233c-0.021,0.068-0.032,0.136-0.044,0.203
	c-0.016,0.071-0.03,0.144-0.039,0.216c-0.007,0.069-0.003,0.14-0.003,0.211c0,0.068-0.004,0.139,0.003,0.213
	c0.009,0.073,0.023,0.142,0.039,0.211c0.012,0.07,0.023,0.137,0.044,0.207c0.022,0.079,0.057,0.155,0.091,0.232
	c0.021,0.047,0.031,0.095,0.056,0.139c0.003,0.01,0.01,0.019,0.016,0.024c0.042,0.081,0.092,0.153,0.145,0.223
	c0.031,0.047,0.061,0.098,0.094,0.141c0.043,0.053,0.099,0.102,0.149,0.148c0.051,0.053,0.1,0.111,0.156,0.156
	c0.041,0.033,0.089,0.059,0.128,0.088c0.079,0.055,0.155,0.109,0.237,0.152c0.008,0.004,0.013,0.012,0.021,0.014l13.439,6.918
	c1.074,0.555,2.395,0.133,2.95-0.945c0.165-0.32,0.243-0.66,0.243-0.998c0-0.799-0.433-1.564-1.187-1.953l-9.652-4.97l9.652-4.97
	c0.754-0.39,1.187-1.157,1.187-1.952c0-0.337-0.078-0.677-0.243-1.003C20.019,2.611,18.698,2.19,17.624,2.742z"/>
</svg>
