<?xml version="1.0" encoding="utf-8"?>
<!-- Generator: Adobe Illustrator 16.0.0, SVG Export Plug-In . SVG Version: 6.00 Build 0)  -->
<!DOCTYPE svg PUBLIC "-//W3C//DTD SVG 1.1//EN" "http://www.w3.org/Graphics/SVG/1.1/DTD/svg11.dtd">
<svg version="1.1" id="Layer_1" xmlns="http://www.w3.org/2000/svg" xmlns:xlink="http://www.w3.org/1999/xlink" x="0px" y="0px"
	 width="21.744px" height="22.092px" viewBox="0 0 21.744 22.092" enable-background="new 0 0 21.744 22.092" xml:space="preserve">
<path fill="#F2ECE7" d="M3.997,12.534c-0.698-0.43-0.916-1.342-0.487-2.039l0,0c0.429-0.697,1.342-0.914,2.04-0.484l12.198,7.507
	c0.697,0.429,0.915,1.344,0.484,2.04l0,0c-0.429,0.695-1.34,0.912-2.037,0.485L3.997,12.534z"/>
<path fill="#F2ECE7" d="M16.195,2.05c0.697-0.428,1.608-0.211,2.037,0.484l0,0c0.431,0.697,0.213,1.611-0.484,2.041L5.55,12.082
	c-0.698,0.43-1.611,0.213-2.04-0.485l0,0C3.081,10.9,3.299,9.988,3.997,9.558L16.195,2.05z"/>
</svg>
