<?xml version="1.0" encoding="utf-8"?>
<!-- Generator: Adobe Illustrator 16.0.0, SVG Export Plug-In . SVG Version: 6.00 Build 0)  -->
<!DOCTYPE svg PUBLIC "-//W3C//DTD SVG 1.1//EN" "http://www.w3.org/Graphics/SVG/1.1/DTD/svg11.dtd">
<svg version="1.1" id="Layer_1" xmlns="http://www.w3.org/2000/svg" xmlns:xlink="http://www.w3.org/1999/xlink" x="0px" y="0px"
	 width="120.976px" height="24.123px" viewBox="11.448 22.049 120.976 24.123"
	 enable-background="new 11.448 22.049 120.976 24.123" xml:space="preserve">
<g>
	<g>
		<g>
			<path fill="#DF98D5" d="M39.598,43.075c-0.376,0-0.758-0.09-1.112-0.271c-1.197-0.615-1.664-2.08-1.051-3.275l7.675-14.902
				c0.615-1.199,2.083-1.667,3.275-1.054c1.193,0.618,1.663,2.085,1.05,3.278L41.76,41.754
				C41.328,42.592,40.479,43.075,39.598,43.075z"/>
		</g>
	</g>
	<g>
		<g>
			<path fill="#D6A5F8" d="M54.945,43.075c-0.881,0-1.731-0.482-2.162-1.32L45.11,26.85c-0.615-1.192-0.148-2.66,1.048-3.278
				c1.195-0.613,2.661-0.146,3.277,1.054l7.672,14.902c0.615,1.195,0.146,2.66-1.048,3.275
				C55.706,42.985,55.321,43.075,54.945,43.075z"/>
		</g>
	</g>
</g>
<g>
	<path fill="#F27D8A" d="M75.8,34.692c-0.331-0.664-0.795-1.24-1.389-1.715c-0.576-0.469-1.265-0.87-2.053-1.217
		c-0.1-0.076-0.202-0.152-0.313-0.214l0.013-0.022c-0.081-0.037-0.158-0.066-0.234-0.097c-0.01,0-0.016-0.005-0.021-0.011
		c-0.701-0.287-1.305-0.483-2.168-0.767c-0.5-0.169-0.94-0.32-1.322-0.461c-0.377-0.144-0.697-0.291-0.951-0.453
		c-0.253-0.161-0.447-0.334-0.575-0.521c-0.129-0.187-0.193-0.41-0.193-0.661c0-0.257,0.061-0.473,0.18-0.652
		c0.118-0.178,0.279-0.326,0.478-0.434c0.202-0.108,0.436-0.189,0.698-0.242c0.266-0.047,0.549-0.073,0.851-0.073
		c0.292,0,0.58,0.043,0.865,0.129c0.281,0.089,0.549,0.197,0.807,0.33c0.257,0.132,0.494,0.28,0.718,0.445
		c0.225,0.164,0.428,0.324,0.61,0.477h0.006l0.021,0.019c0.188,0.153,0.392,0.268,0.604,0.351c0.934,0.37,2.041,0.107,2.704-0.719
		c0.809-1.017,0.645-2.497-0.369-3.307l-0.298-0.237l-0.35-0.26c-0.276-0.198-0.573-0.387-0.882-0.567
		c-0.739-0.414-1.488-0.715-2.252-0.899c-0.762-0.188-1.561-0.282-2.39-0.282c-1.104,0-2.107,0.136-3.003,0.405
		c-0.892,0.269-1.655,0.65-2.29,1.143c-0.635,0.494-1.125,1.084-1.466,1.782c-0.344,0.688-0.513,1.458-0.513,2.309
		c0,0.802,0.137,1.532,0.411,2.184c0.274,0.651,0.683,1.247,1.233,1.793c0.548,0.537,1.23,1.036,2.052,1.475
		c0.824,0.445,1.782,0.855,2.876,1.24c0.248,0.081,0.54,0.189,0.879,0.309c0.251,0.094,0.494,0.18,0.731,0.283
		c0.082,0.071,0.151,0.148,0.24,0.205l-0.02,0.031c0.312,0.176,0.575,0.373,0.788,0.595c0.215,0.224,0.322,0.478,0.322,0.762
		c0,0.253-0.041,0.495-0.116,0.724c-0.077,0.226-0.209,0.431-0.391,0.602c-0.184,0.174-0.43,0.312-0.747,0.421
		c-0.313,0.103-0.704,0.153-1.171,0.153c-0.5,0-0.981-0.086-1.438-0.26c-0.457-0.17-0.918-0.414-1.381-0.727
		c-0.312-0.207-0.588-0.422-0.83-0.635c-0.082-0.073-0.153-0.133-0.226-0.197h0.004l-0.398-0.389
		c-0.173-0.168-0.365-0.303-0.568-0.406c-0.897-0.457-2.022-0.299-2.761,0.463c-0.726,0.75-0.841,1.857-0.378,2.734
		c0.026,0.131,0.126,0.293,0.308,0.488c0.008,0.01,0.016,0.02,0.025,0.023c0.01,0.006,0.021,0.015,0.029,0.033
		c0.008,0.012,0.018,0.016,0.025,0.02c0.01,0.006,0.021,0.018,0.029,0.036l0.043,0.04c0.145,0.155,0.343,0.36,0.594,0.617
		c0.251,0.254,0.56,0.52,0.925,0.785c0.878,0.631,1.822,1.133,2.836,1.512c1.01,0.371,2.043,0.562,3.093,0.562
		c1.115,0,2.155-0.159,3.122-0.472c0.97-0.315,1.812-0.764,2.529-1.334c0.715-0.578,1.28-1.275,1.689-2.091
		c0.41-0.819,0.615-1.73,0.615-2.733C76.298,36.17,76.135,35.36,75.8,34.692z"/>
</g>
<path fill="#DF98D5" d="M35.205,30.505c-0.244-0.864-0.591-1.671-1.037-2.415c-0.446-0.748-0.983-1.421-1.612-2.026
	c-0.629-0.604-1.327-1.12-2.084-1.552c-0.761-0.433-1.58-0.767-2.457-1c-0.879-0.232-1.79-0.35-2.733-0.35h-4.906l-0.129,0.004
	c-0.54,0.013-1.033,0.215-1.429,0.527c-0.581,0.444-0.964,1.142-0.964,1.93v15.12c0,0.663,0.268,1.263,0.698,1.703
	c0.427,0.456,1.027,0.749,1.695,0.763l0.129,0.006h4.906c0.943,0,1.856-0.107,2.738-0.343c0.883-0.229,1.704-0.554,2.466-0.979
	c0.76-0.422,1.452-0.938,2.077-1.536c0.623-0.603,1.163-1.275,1.611-2.019c0.452-0.746,0.797-1.545,1.041-2.404
	c0.244-0.855,0.364-1.762,0.364-2.717C35.578,32.272,35.455,31.368,35.205,30.505z M30.012,35.172
	c-0.248,0.604-0.59,1.129-1.026,1.574c-0.438,0.443-0.948,0.806-1.531,1.078c-0.586,0.272-1.214,0.439-1.89,0.493
	c-0.197,0.017-0.396,0.034-0.595,0.046c-0.197,0.014-1.808,0.02-2.017,0.02h-0.236V27.977h0.236l2.056,0.032
	c0.737,0,1.435,0.126,2.085,0.384c0.653,0.257,1.222,0.613,1.711,1.078c0.48,0.466,0.867,1.012,1.152,1.651
	c0.282,0.628,0.421,1.326,0.421,2.082C30.38,33.913,30.26,34.571,30.012,35.172z"/>
<g>
	<g>
		<path fill="#FB7066" d="M93.07,25.676c-0.185,1.329-1.411,2.256-2.74,2.069c-3.007-0.424-5.793,1.678-6.214,4.678
			c-0.424,3.005,1.678,5.793,4.679,6.211c1.332,0.189,2.257,1.421,2.073,2.749c-0.188,1.333-1.42,2.258-2.752,2.069
			c-5.654-0.795-9.611-6.047-8.819-11.702c0.797-5.66,6.046-9.616,11.708-8.825C92.335,23.116,93.26,24.345,93.07,25.676z"/>
	</g>
	<g>
		<path fill="#FFB660" d="M99.825,34.63c-0.796,5.661-6.047,9.616-11.709,8.821c-1.324-0.184-2.254-1.416-2.064-2.746
			c0.184-1.33,1.414-2.258,2.743-2.072c3.003,0.424,5.79-1.673,6.211-4.678c0.188-1.332,1.415-2.262,2.747-2.068
			C99.087,32.077,100.01,33.304,99.825,34.63z"/>
	</g>
	<g>
		<path fill="#FC8A64" d="M99.825,34.63c-0.188,1.331-1.416,2.261-2.748,2.071c-1.331-0.188-2.258-1.416-2.071-2.746
			c0.423-3.003-1.677-5.79-4.676-6.211c-1.333-0.188-2.259-1.418-2.071-2.747c0.184-1.331,1.414-2.256,2.746-2.073
			C96.661,23.721,100.62,28.974,99.825,34.63z"/>
	</g>
</g>
<g>
	<g>
		<path fill="#FFB660" d="M125.05,43.104c0.264,0,0.531-0.044,0.791-0.134c1.271-0.435,1.947-1.817,1.508-3.09l-5.112-14.903
			c-0.315-0.917-1.146-1.56-2.113-1.631c-0.973-0.08-1.892,0.433-2.34,1.293l1.688,7.264l3.279,9.557
			C123.095,42.469,124.04,43.104,125.05,43.104z"/>
	</g>
	<g>
		<path fill="#FFD75B" d="M114.904,37.708c-0.351,0.004-0.71-0.071-1.05-0.233c-1.217-0.568-1.738-2.014-1.168-3.226l5.066-9.574
			c0.568-1.218,2.016-1.738,3.235-1.171c1.218,0.571,1.74,2.02,1.169,3.238l-5.068,9.569
			C116.678,37.19,115.813,37.704,114.904,37.708z"/>
	</g>
	<g>
		<path fill="#FFD75B" d="M104.774,43.104c-0.262,0-0.528-0.044-0.789-0.134c-1.272-0.435-1.95-1.817-1.514-3.09l5.117-14.903
			c0.311-0.917,1.146-1.56,2.113-1.631c0.969-0.08,1.889,0.433,2.336,1.293l4.869,9.291c0.626,1.193,0.164,2.661-1.024,3.283
			c-1.191,0.623-2.663,0.162-3.285-1.026l-2.242-4.284l-3.282,9.557C106.727,42.469,105.782,43.104,104.774,43.104z"/>
	</g>
</g>
</svg>
