<?xml version="1.0" encoding="utf-8"?>
<!-- Generator: Adobe Illustrator 16.0.0, SVG Export Plug-In . SVG Version: 6.00 Build 0)  -->
<!DOCTYPE svg PUBLIC "-//W3C//DTD SVG 1.1//EN" "http://www.w3.org/Graphics/SVG/1.1/DTD/svg11.dtd">
<svg version="1.1" id="Layer_1" xmlns="http://www.w3.org/2000/svg" xmlns:xlink="http://www.w3.org/1999/xlink" x="0px" y="0px"
	 width="170.917px" height="57.613px" viewBox="11.428 -12.22 170.917 57.613"
	 enable-background="new 11.428 -12.22 170.917 57.613" xml:space="preserve">
<g>
	<g>
		<g>
			<path fill="#DF98D5" d="M-62.899-37.414c-0.376,0-0.759-0.09-1.112-0.271c-1.196-0.614-1.663-2.08-1.051-3.274l7.675-14.901
				c0.615-1.199,2.083-1.667,3.274-1.054c1.192,0.617,1.663,2.085,1.051,3.276l-7.676,14.903
				C-61.17-37.896-62.018-37.414-62.899-37.414z"/>
		</g>
	</g>
	<g>
		<g>
			<path fill="#D6A5F8" d="M-47.553-37.414c-0.881,0-1.729-0.481-2.161-1.319l-7.674-14.904c-0.614-1.191-0.147-2.659,1.049-3.277
				c1.194-0.613,2.66-0.146,3.276,1.054l7.673,14.9c0.615,1.194,0.146,2.659-1.048,3.273
				C-46.792-37.503-47.177-37.414-47.553-37.414z"/>
		</g>
	</g>
</g>
<g>
	<path fill="#F27D8A" d="M-26.698-45.796c-0.33-0.664-0.795-1.24-1.39-1.715c-0.576-0.47-1.266-0.87-2.054-1.218
		c-0.101-0.075-0.201-0.15-0.312-0.214l0.015-0.021c-0.081-0.037-0.158-0.066-0.233-0.099c-0.011,0-0.017-0.005-0.021-0.011
		c-0.701-0.287-1.307-0.483-2.169-0.767c-0.5-0.17-0.938-0.32-1.321-0.461c-0.377-0.146-0.696-0.291-0.95-0.453
		c-0.254-0.161-0.447-0.334-0.575-0.521c-0.129-0.188-0.191-0.41-0.191-0.661c0-0.257,0.062-0.473,0.18-0.65
		c0.118-0.179,0.279-0.326,0.479-0.436c0.202-0.107,0.438-0.188,0.698-0.241c0.267-0.048,0.549-0.073,0.852-0.073
		c0.292,0,0.58,0.043,0.864,0.13c0.281,0.089,0.55,0.195,0.809,0.329c0.257,0.133,0.493,0.28,0.719,0.444
		c0.225,0.164,0.428,0.324,0.608,0.479h0.007l0.021,0.019c0.188,0.153,0.394,0.269,0.604,0.353c0.935,0.369,2.041,0.105,2.704-0.72
		c0.81-1.018,0.646-2.497-0.369-3.308l-0.299-0.237l-0.351-0.26c-0.275-0.197-0.572-0.387-0.882-0.565
		c-0.739-0.414-1.488-0.716-2.252-0.899c-0.763-0.188-1.562-0.282-2.391-0.282c-1.104,0-2.106,0.138-3.004,0.405
		c-0.893,0.269-1.654,0.649-2.29,1.144c-0.636,0.493-1.125,1.084-1.467,1.781c-0.344,0.688-0.513,1.458-0.513,2.31
		c0,0.803,0.137,1.531,0.41,2.185c0.273,0.651,0.684,1.247,1.232,1.793c0.549,0.537,1.229,1.036,2.053,1.477
		c0.823,0.443,1.781,0.854,2.876,1.238c0.248,0.081,0.54,0.188,0.879,0.312c0.251,0.094,0.494,0.18,0.73,0.282
		c0.081,0.069,0.15,0.146,0.239,0.203l-0.021,0.031c0.312,0.176,0.574,0.373,0.788,0.596c0.215,0.226,0.32,0.479,0.32,0.763
		c0,0.254-0.041,0.496-0.114,0.725c-0.077,0.228-0.21,0.432-0.393,0.603c-0.185,0.174-0.431,0.312-0.747,0.422
		c-0.312,0.104-0.704,0.151-1.171,0.151c-0.5,0-0.979-0.086-1.438-0.26c-0.457-0.17-0.918-0.414-1.382-0.727
		c-0.312-0.207-0.589-0.423-0.829-0.638c-0.082-0.071-0.153-0.133-0.228-0.194h0.004l-0.396-0.392
		c-0.174-0.168-0.365-0.303-0.568-0.403c-0.896-0.457-2.021-0.302-2.761,0.463c-0.728,0.75-0.841,1.854-0.378,2.731
		c0.024,0.133,0.126,0.293,0.309,0.488c0.008,0.01,0.017,0.021,0.024,0.021c0.01,0.007,0.021,0.017,0.027,0.033
		c0.01,0.013,0.02,0.017,0.024,0.021c0.011,0.008,0.021,0.02,0.029,0.037l0.043,0.039c0.146,0.154,0.343,0.359,0.594,0.616
		c0.251,0.254,0.561,0.521,0.926,0.785c0.878,0.631,1.821,1.133,2.836,1.512c1.011,0.371,2.043,0.562,3.094,0.562
		c1.114,0,2.154-0.159,3.121-0.473c0.972-0.314,1.812-0.766,2.528-1.334c0.716-0.578,1.28-1.274,1.689-2.091
		c0.409-0.819,0.613-1.729,0.613-2.733C-26.199-44.318-26.363-45.128-26.698-45.796z"/>
</g>
<path fill="#DF98D5" d="M-67.293-49.983c-0.244-0.863-0.591-1.671-1.037-2.415c-0.444-0.748-0.981-1.421-1.61-2.025
	s-1.327-1.119-2.084-1.552c-0.763-0.434-1.58-0.768-2.457-1c-0.879-0.231-1.79-0.351-2.732-0.351h-4.907l-0.129,0.004
	c-0.54,0.013-1.032,0.215-1.43,0.526c-0.58,0.445-0.963,1.143-0.963,1.931v15.119c0,0.664,0.269,1.264,0.697,1.703
	c0.428,0.455,1.026,0.748,1.694,0.764l0.129,0.006h4.906c0.942,0,1.855-0.104,2.737-0.343c0.883-0.229,1.704-0.556,2.466-0.979
	c0.761-0.422,1.452-0.938,2.077-1.536c0.623-0.604,1.163-1.273,1.61-2.02c0.451-0.746,0.798-1.545,1.041-2.403
	c0.243-0.854,0.363-1.763,0.363-2.718C-66.92-48.215-67.043-49.12-67.293-49.983z M-72.485-45.316
	c-0.248,0.604-0.591,1.129-1.026,1.574c-0.438,0.44-0.947,0.806-1.53,1.078c-0.586,0.271-1.214,0.438-1.891,0.492
	c-0.196,0.018-0.396,0.032-0.595,0.045c-0.197,0.016-1.81,0.021-2.019,0.021h-0.235V-52.51h0.235l2.057,0.031
	c0.736,0,1.436,0.126,2.086,0.385c0.651,0.257,1.222,0.612,1.711,1.078c0.479,0.465,0.866,1.013,1.15,1.65
	c0.282,0.628,0.421,1.326,0.421,2.082C-72.117-46.575-72.238-45.917-72.485-45.316z"/>
<g>
	<g>
		<path fill="#FB7066" d="M-9.428-54.812c-0.186,1.329-1.41,2.257-2.739,2.069c-3.007-0.424-5.793,1.678-6.214,4.678
			c-0.425,3.005,1.678,5.793,4.679,6.211c1.332,0.188,2.258,1.423,2.073,2.749c-0.188,1.333-1.42,2.26-2.752,2.068
			c-5.654-0.795-9.61-6.047-8.818-11.701c0.798-5.66,6.046-9.616,11.708-8.825C-10.163-57.372-9.238-56.143-9.428-54.812z"/>
	</g>
	<g>
		<path fill="#FFB660" d="M-2.673-45.858c-0.797,5.661-6.048,9.616-11.709,8.821c-1.324-0.187-2.255-1.416-2.063-2.746
			c0.186-1.33,1.414-2.258,2.742-2.072c3.004,0.426,5.79-1.673,6.212-4.678c0.188-1.332,1.415-2.263,2.746-2.067
			C-3.411-48.411-2.488-47.184-2.673-45.858z"/>
	</g>
	<g>
		<path fill="#FC8A64" d="M-2.673-45.858c-0.188,1.331-1.416,2.263-2.748,2.071c-1.331-0.188-2.259-1.416-2.07-2.746
			c0.424-3.003-1.678-5.79-4.677-6.211c-1.333-0.188-2.259-1.418-2.07-2.747c0.185-1.331,1.414-2.256,2.746-2.073
			C-5.837-56.766-1.878-51.514-2.673-45.858z"/>
	</g>
</g>
<g>
	<g>
		<path fill="#FFB660" d="M22.552-37.382c0.265,0,0.53-0.046,0.791-0.137c1.271-0.435,1.946-1.814,1.509-3.09L19.739-55.51
			c-0.313-0.918-1.146-1.561-2.112-1.631c-0.974-0.08-1.893,0.433-2.34,1.293l1.688,7.265l3.277,9.557
			C20.598-38.019,21.542-37.382,22.552-37.382z"/>
	</g>
	<g>
		<path fill="#FFD75B" d="M12.406-42.78c-0.351,0.004-0.71-0.069-1.05-0.231c-1.217-0.567-1.737-2.016-1.168-3.228l5.064-9.574
			c0.567-1.218,2.018-1.738,3.234-1.171c1.219,0.571,1.74,2.021,1.169,3.238l-5.067,9.568C14.181-43.298,13.316-42.784,12.406-42.78
			z"/>
	</g>
	<g>
		<path fill="#FFD75B" d="M2.277-37.382c-0.262,0-0.527-0.046-0.789-0.137c-1.271-0.435-1.949-1.814-1.514-3.09L5.091-55.51
			c0.312-0.918,1.146-1.561,2.112-1.631c0.969-0.08,1.89,0.433,2.336,1.293l4.869,9.292c0.626,1.191,0.163,2.659-1.023,3.281
			c-1.19,0.623-2.663,0.162-3.284-1.024l-2.242-4.284l-3.281,9.557C4.23-38.019,3.284-37.382,2.277-37.382z"/>
	</g>
</g>
<g>
	<g>
		<path fill="#545454" stroke="#FFFFFF" stroke-width="1.5247" stroke-linejoin="round" stroke-miterlimit="10" d="M124.365-3.005
			c-0.508-1.134-1.839-1.65-2.972-1.14c-0.818,0.363-3.455,1.59-5.988,3.292c-1.614-1.379-4.078-2.455-7.721-2.455
			c-3.646,0-6.176,1.032-7.889,2.224c-1.729-1.213-4.188-2.224-7.627-2.224c-3.676,0-6.094,1.1-7.621,2.472
			c-1.526-1.371-3.944-2.471-7.62-2.471c-5.121,0-8.058,2.466-9.5,4.746c-0.087-0.088-0.161-0.18-0.247-0.267
			C64.083-1.849,60.26-3.36,55.708-3.36c-4.259,0-7.871,1.339-10.853,3.982c-3.317,1.661-7.431-0.613-9.265-1.687
			c-0.02-0.013-0.042-0.014-0.061-0.025C34.628-1.601,33.658-2.04,32.6-2.394c-1.927-0.643-3.869-0.967-5.824-0.967
			c-3.035,0-5.583,0.768-7.642,2.3c-2.058,1.535-3.085,3.717-3.085,6.549c0,2.832,0.903,4.932,2.713,6.305
			c0.907,0.728,1.941,1.32,3.111,1.772c1.166,0.453,2.872,0.949,5.121,1.489c2.247,0.543,3.83,1.14,4.75,1.794
			c0.92,0.656,1.38,1.578,1.38,2.76c0,1.182-0.489,2.132-1.466,2.844c-0.979,0.715-2.3,1.073-3.964,1.073
			c-3.326,0-6.537-1.342-9.631-4.025l-0.013,0.013c-0.456-0.441-1.073-0.716-1.756-0.716c-1.395,0-2.524,1.134-2.524,2.529
			c0,0.847,0.423,1.595,1.068,2.052l-0.015,0.018c3.706,3.3,7.954,4.947,12.741,4.947c3.268,0,5.911-0.828,7.924-2.493
			c2.015-1.665,3.022-3.835,3.022-6.504c0-2.672-0.795-4.693-2.387-6.063c-1.592-1.374-3.956-2.437-7.093-3.199
			c-3.139-0.757-5.188-1.465-6.15-2.123c-0.965-0.655-1.445-1.604-1.445-2.845c0-1.24,0.48-2.171,1.445-2.782
			c0.963-0.611,2.195-0.917,3.698-0.917c1.504,0,3.067,0.163,4.579,0.785C32,2.549,32.898,2.949,33.649,3.295
			c0.039,0.021,4.819,2.23,7.333,2.492c-0.914,2.011-1.384,4.234-1.384,6.683c0,4.512,1.546,8.276,4.64,11.294
			c3.093,3.024,6.917,4.535,11.472,4.535c4.551,0,8.375-1.511,11.472-4.535c3.093-3.018,4.636-6.782,4.636-11.294
			c0-2.52-0.5-4.799-1.466-6.853c0.187-0.236,0.344-0.497,0.429-0.804c0.099-0.37,1.127-3.617,6.147-3.617
			c2.317,0,3.521,0.333,4.279,0.912c-3.596,3.195-4.385,10.142-4.335,13.543l0.006,0.848c-0.001,2.683-0.002,11.453,7.113,11.528
			c0.012,0,0.08,0,0.089,0c3.07,0,5.326-1.72,6.359-4.844c0.718-2.171,0.715-5.221,0.715-6.817l0.006-0.721
			c0.046-3.161,0.14-9.132-2.934-12.245c-0.271-0.273-0.561-0.512-0.865-0.723c0.648-0.698,1.996-1.483,4.807-1.483
			c2.014,0,3.494,0.487,4.562,1.1c-0.015,0.031-0.034,0.066-0.044,0.089c-4.47,2.417-4.374,9.898-4.323,13.268l0.006,0.848
			c-0.002,2.683-0.004,11.453,7.115,11.528c0.011,0,0.078,0,0.089,0c3.069,0,5.323-1.72,6.356-4.844
			c0.719-2.171,0.715-5.221,0.715-6.817l0.009-0.721c0.044-3.161,0.138-9.132-2.936-12.245c-0.113-0.115-0.247-0.202-0.367-0.306
			c-0.002-0.004-0.003-0.013-0.006-0.018c-0.021-0.055-0.158-0.365-0.417-0.812c1.063-0.587,2.59-1.07,4.756-1.07
			c1.977,0,3.29,0.398,4.162,0.904c-0.374,0.413-0.723,0.835-1,1.268c-3.125,3.155-3.033,9.286-2.99,12.284l0.007,0.849
			c-0.004,2.682-0.006,11.453,7.113,11.528c0.011,0,0.08,0,0.088,0c3.07,0,5.326-1.72,6.36-4.844
			c0.716-2.172,0.714-5.221,0.714-6.817l0.007-0.722c0.044-3.16,0.137-9.131-2.935-12.244c-0.284-0.289-0.591-0.538-0.915-0.756
			c1.626-1.049,3.463-2.025,4.927-2.677C124.36-0.537,124.868-1.866,124.365-3.005z M63.391,20.333
			c-2.087,2.158-4.649,3.239-7.683,3.239c-3.037,0-5.599-1.083-7.686-3.239c-2.087-2.162-3.13-4.781-3.13-7.862
			c0-3.079,1.043-5.697,3.13-7.859c2.087-2.157,4.649-3.239,7.686-3.239c3.034,0,5.596,1.082,7.683,3.239
			c2.087,2.162,3.134,4.781,3.134,7.859C66.525,15.551,65.478,18.17,63.391,20.333z M86.664,15.584l-0.012,0.919
			c0,1.264,0.002,3.787-0.486,5.268c-0.485,1.461-1.158,1.753-2.087,1.753h-0.036c-1.647-0.017-2.665-1.707-2.664-7.158l-0.012-0.78
			c-0.112-8.25,1.396-9.395,2.71-9.413c0.399,0,0.672,0.112,0.944,0.387C86.774,8.337,86.689,13.642,86.664,15.584z M102.156,15.584
			l-0.011,0.919c0,1.264,0.003,3.787-0.487,5.268c-0.483,1.461-1.155,1.753-2.083,1.753h-0.041
			c-1.645-0.017-2.665-1.707-2.662-7.158l-0.01-0.78c-0.116-8.25,1.393-9.395,2.709-9.413c0.4,0,0.671,0.112,0.942,0.387
			C102.265,8.337,102.181,13.642,102.156,15.584z M117.648,15.584l-0.01,0.919c0,1.264,0.003,3.787-0.486,5.268
			c-0.484,1.461-1.158,1.753-2.088,1.753h-0.037c-1.647-0.017-2.664-1.707-2.662-7.158l-0.011-0.78
			c-0.08-5.729,0.624-7.713,1.502-8.771c0.12-0.097,0.231-0.198,0.332-0.318c0.288-0.223,0.587-0.318,0.874-0.323
			c0.4,0,0.672,0.112,0.944,0.387C117.758,8.337,117.673,13.642,117.648,15.584z"/>
		
			<circle fill="#545454" stroke="#FFFFFF" stroke-width="1.5247" stroke-linejoin="round" stroke-miterlimit="10" cx="16.324" cy="21.301" r="2.572"/>
		
			<circle fill="#545454" stroke="#FFFFFF" stroke-width="1.5247" stroke-linejoin="round" stroke-miterlimit="10" cx="69.166" cy="2.732" r="2.569"/>
		
			<circle fill="#545454" stroke="#FFFFFF" stroke-width="1.5247" stroke-linejoin="round" stroke-miterlimit="10" cx="129.811" cy="-5.375" r="2.573"/>
		<path fill="#545454" stroke="#FFFFFF" stroke-width="1.5247" stroke-linejoin="round" stroke-miterlimit="10" d="M88.389,1.924
			c0,0-3.877,0.807-5.845,5.189"/>
		<path fill="#545454" stroke="#FFFFFF" stroke-width="1.5247" stroke-linejoin="round" stroke-miterlimit="10" d="M84.547-0.836
			c0,0-1.887,0.994-3.341,2.943"/>
		<path fill="#545454" stroke="#FFFFFF" stroke-width="1.5247" stroke-linejoin="round" stroke-miterlimit="10" d="M103.817,2.004
			c0,0-3.878,0.808-5.843,5.188"/>
		<path fill="#545454" stroke="#FFFFFF" stroke-width="1.5247" stroke-linejoin="round" stroke-miterlimit="10" d="M119.368,2.108
			c0,0-3.766,0.573-5.732,4.955"/>
	</g>
	<path fill="#545454" stroke="#FFFFFF" stroke-width="1.5247" stroke-linejoin="round" stroke-miterlimit="10" d="M40.34,7.112
		c0,0,1.419-4.381,5.153-6.954"/>
</g>
<rect x="-54.135" y="-0.836" fill="#FF5831" width="55.854" height="46.249"/>
<rect x="-73.047" y="47.425" fill="#285EC9" width="55.854" height="46.249"/>
<rect x="-112.569" y="-1.823" fill="#EAD89D" width="55.854" height="46.249"/>
</svg>
