<?xml version="1.0" encoding="utf-8"?>
<!-- Generator: Adobe Illustrator 16.0.0, SVG Export Plug-In . SVG Version: 6.00 Build 0)  -->
<!DOCTYPE svg PUBLIC "-//W3C//DTD SVG 1.1//EN" "http://www.w3.org/Graphics/SVG/1.1/DTD/svg11.dtd">
<svg version="1.1" id="Layer_1" xmlns="http://www.w3.org/2000/svg" xmlns:xlink="http://www.w3.org/1999/xlink" x="0px" y="0px"
	 width="178.958px" height="45.428px" viewBox="-29.349 -11.699 178.958 45.428"
	 enable-background="new -29.349 -11.699 178.958 45.428" xml:space="preserve">
<g>
	<g>
		<g>
			<path fill="#DF98D5" d="M10.883,26.89c-0.564,0-1.139-0.135-1.668-0.406c-1.797-0.924-2.496-3.121-1.576-4.914L19.15-0.782
				c0.923-1.799,3.125-2.5,4.912-1.58c1.789,0.926,2.494,3.127,1.576,4.916L14.125,24.908C13.476,26.165,12.204,26.89,10.883,26.89z
				"/>
		</g>
	</g>
	<g>
		<g>
			<path fill="#D6A5F8" d="M33.902,26.89c-1.32,0-2.597-0.723-3.242-1.98L19.15,2.554c-0.923-1.789-0.223-3.99,1.572-4.918
				c1.793-0.92,3.991-0.22,4.916,1.58l11.508,22.354c0.922,1.793,0.218,3.99-1.572,4.912C35.044,26.755,34.467,26.89,33.902,26.89z"
				/>
		</g>
	</g>
</g>
<g>
	<path fill="#F27D8A" d="M65.184,14.315c-0.495-0.996-1.192-1.859-2.083-2.572c-0.864-0.704-1.896-1.307-3.079-1.826
		c-0.151-0.113-0.304-0.227-0.47-0.32l0.02-0.033c-0.121-0.055-0.236-0.1-0.352-0.146c-0.014,0-0.023-0.007-0.03-0.016
		c-1.052-0.431-1.958-0.725-3.253-1.15c-0.75-0.254-1.41-0.48-1.982-0.691c-0.565-0.217-1.046-0.436-1.427-0.68
		c-0.38-0.241-0.671-0.5-0.862-0.781c-0.193-0.281-0.289-0.615-0.289-0.992c0-0.385,0.091-0.709,0.27-0.977
		c0.178-0.268,0.419-0.49,0.717-0.652c0.303-0.162,0.654-0.283,1.047-0.361c0.398-0.072,0.823-0.111,1.275-0.111
		c0.438,0,0.871,0.064,1.299,0.194c0.422,0.134,0.822,0.294,1.211,0.493c0.385,0.199,0.74,0.422,1.076,0.668
		c0.338,0.246,0.643,0.486,0.914,0.717h0.011l0.03,0.027c0.283,0.23,0.59,0.402,0.907,0.527c1.4,0.555,3.062,0.16,4.056-1.078
		c1.213-1.525,0.967-3.746-0.553-4.961l-0.449-0.355l-0.523-0.391c-0.415-0.295-0.86-0.58-1.323-0.85
		c-1.108-0.621-2.232-1.072-3.378-1.349c-1.143-0.282-2.342-0.423-3.584-0.423c-1.657,0-3.162,0.205-4.506,0.607
		c-1.338,0.402-2.482,0.975-3.436,1.715c-0.952,0.74-1.688,1.627-2.199,2.672c-0.516,1.031-0.769,2.188-0.769,3.463
		c0,1.205,0.205,2.299,0.616,3.277c0.41,0.977,1.024,1.871,1.85,2.689c0.822,0.806,1.846,1.555,3.078,2.213
		c1.235,0.667,2.672,1.282,4.314,1.859c0.372,0.121,0.811,0.283,1.318,0.465c0.377,0.141,0.741,0.27,1.096,0.424
		c0.123,0.105,0.227,0.222,0.36,0.307l-0.029,0.047c0.468,0.264,0.861,0.56,1.183,0.893c0.322,0.336,0.481,0.717,0.481,1.143
		c0,0.381-0.062,0.744-0.173,1.086c-0.115,0.34-0.314,0.646-0.588,0.902c-0.275,0.262-0.645,0.469-1.12,0.633
		c-0.469,0.154-1.056,0.229-1.757,0.229c-0.75,0-1.471-0.129-2.156-0.389c-0.686-0.256-1.377-0.621-2.072-1.09
		c-0.467-0.311-0.882-0.633-1.244-0.954c-0.123-0.11-0.229-0.199-0.34-0.294h0.006l-0.596-0.585
		c-0.261-0.252-0.548-0.454-0.853-0.608c-1.347-0.686-3.034-0.449-4.142,0.695c-1.09,1.125-1.261,2.784-0.566,4.1
		c0.038,0.197,0.189,0.439,0.461,0.732c0.012,0.015,0.023,0.031,0.039,0.033c0.014,0.01,0.03,0.023,0.042,0.051
		c0.013,0.018,0.028,0.023,0.038,0.029c0.015,0.01,0.031,0.027,0.044,0.055l0.064,0.059c0.217,0.233,0.515,0.541,0.891,0.926
		c0.376,0.381,0.839,0.781,1.388,1.178c1.316,0.947,2.732,1.699,4.254,2.268c1.514,0.557,3.064,0.844,4.639,0.844
		c1.673,0,3.232-0.238,4.684-0.709c1.455-0.471,2.719-1.145,3.793-2c1.072-0.866,1.921-1.912,2.535-3.135
		c0.613-1.229,0.921-2.596,0.921-4.101C65.931,16.532,65.687,15.317,65.184,14.315z"/>
</g>
<path fill="#DF98D5" d="M4.293,8.034C3.926,6.739,3.406,5.528,2.736,4.412C2.068,3.29,1.263,2.28,0.32,1.372
	c-0.943-0.904-1.991-1.678-3.127-2.326c-1.143-0.65-2.369-1.15-3.686-1.5c-1.318-0.348-2.685-0.525-4.1-0.525h-7.359l-0.193,0.006
	c-0.811,0.02-1.55,0.322-2.143,0.789c-0.872,0.668-1.446,1.715-1.446,2.896v22.68c0,0.995,0.401,1.895,1.046,2.555
	c0.642,0.684,1.541,1.123,2.543,1.145l0.193,0.009h7.359c1.415,0,2.785-0.159,4.107-0.515c1.324-0.342,2.557-0.832,3.699-1.467
	c1.139-0.633,2.178-1.408,3.115-2.307c0.935-0.903,1.744-1.911,2.416-3.027c0.678-1.119,1.196-2.317,1.561-3.605
	c0.367-1.283,0.547-2.644,0.547-4.076C4.851,10.687,4.668,9.329,4.293,8.034z M-3.496,15.035c-0.372,0.907-0.887,1.693-1.539,2.361
	c-0.658,0.663-1.423,1.208-2.297,1.617c-0.879,0.409-1.821,0.657-2.835,0.739c-0.296,0.025-0.595,0.051-0.892,0.068
	c-0.297,0.021-2.713,0.03-3.027,0.03h-0.354V4.243h0.354l3.084,0.047c1.105,0,2.153,0.189,3.129,0.578
	c0.979,0.383,1.832,0.918,2.566,1.617C-4.588,7.183-4.008,8.003-3.58,8.96c0.424,0.942,0.632,1.99,0.632,3.123
	C-2.946,13.147-3.125,14.134-3.496,15.035z"/>
<g>
	<g>
		<path fill="#FB7066" d="M91.09,0.791c-0.277,1.993-2.116,3.386-4.109,3.104c-4.511-0.637-8.689,2.516-9.321,7.016
			c-0.636,4.508,2.517,8.689,7.019,9.316c1.998,0.285,3.385,2.133,3.109,4.124c-0.281,1.999-2.13,3.388-4.128,3.104
			c-8.481-1.193-14.417-9.07-13.229-17.554c1.197-8.49,9.069-14.425,17.562-13.237C89.987-3.048,91.375-1.206,91.09,0.791z"/>
	</g>
	<g>
		<path fill="#FFB660" d="M101.222,14.222c-1.193,8.492-9.07,14.425-17.563,13.232c-1.986-0.277-3.381-2.124-3.097-4.119
			c0.277-1.995,2.121-3.387,4.115-3.108c4.504,0.638,8.685-2.509,9.316-7.017c0.282-1.998,2.122-3.395,4.12-3.102
			C100.115,10.394,101.5,12.233,101.222,14.222z"/>
	</g>
	<g>
		<path fill="#FC8A64" d="M101.222,14.222c-0.281,1.997-2.124,3.393-4.122,3.107c-1.997-0.283-3.387-2.124-3.106-4.119
			c0.635-4.504-2.516-8.686-7.014-9.316c-2-0.283-3.389-2.127-3.107-4.121c0.277-1.996,2.121-3.383,4.119-3.109
			C96.476-2.14,102.415,5.737,101.222,14.222z"/>
	</g>
</g>
<g>
	<g>
		<path fill="#FFB660" d="M139.059,26.935c0.397,0,0.797-0.068,1.187-0.203c1.907-0.651,2.921-2.725,2.264-4.635l-7.669-22.354
			c-0.474-1.377-1.72-2.34-3.17-2.445c-1.459-0.121-2.837,0.646-3.51,1.939l2.532,10.895l4.918,14.336
			C136.129,25.98,137.545,26.935,139.059,26.935z"/>
	</g>
	<g>
		<path fill="#FFD75B" d="M123.842,18.839c-0.526,0.006-1.065-0.105-1.575-0.348c-1.825-0.854-2.607-3.022-1.752-4.84l7.599-14.361
			c0.852-1.827,3.024-2.607,4.853-1.757c1.827,0.856,2.61,3.03,1.753,4.857l-7.602,14.354
			C126.503,18.063,125.205,18.833,123.842,18.839z"/>
	</g>
	<g>
		<path fill="#FFD75B" d="M108.646,26.935c-0.393,0-0.793-0.068-1.184-0.203c-1.908-0.651-2.926-2.725-2.271-4.635l7.675-22.354
			c0.467-1.377,1.719-2.34,3.17-2.445c1.453-0.121,2.832,0.646,3.504,1.939l7.303,13.936c0.939,1.789,0.246,3.99-1.536,4.924
			c-1.786,0.935-3.995,0.243-4.927-1.539l-3.363-6.426l-4.923,14.336C111.576,25.98,110.158,26.935,108.646,26.935z"/>
	</g>
</g>
</svg>
