<?xml version="1.0" encoding="utf-8"?>
<!-- Generator: Adobe Illustrator 16.0.0, SVG Export Plug-In . SVG Version: 6.00 Build 0)  -->
<!DOCTYPE svg PUBLIC "-//W3C//DTD SVG 1.1//EN" "http://www.w3.org/Graphics/SVG/1.1/DTD/svg11.dtd">
<svg version="1.1" id="Layer_1" xmlns="http://www.w3.org/2000/svg" xmlns:xlink="http://www.w3.org/1999/xlink" x="0px" y="0px"
	 width="178.958px" height="45.428px" viewBox="0 0 178.958 45.428" enable-background="new 0 0 178.958 45.428"
	 xml:space="preserve">
<g>
	<g>
		<path fill="#545454" stroke="#FFFFFF" stroke-width="1.5247" stroke-linejoin="round" stroke-miterlimit="10" d="M144.719-37.469
			c-0.508-1.134-1.84-1.648-2.973-1.14c-0.818,0.363-3.455,1.59-5.988,3.292c-1.613-1.379-4.078-2.455-7.721-2.455
			c-3.646,0-6.177,1.032-7.89,2.226c-1.729-1.215-4.188-2.226-7.627-2.226c-3.676,0-6.095,1.102-7.621,2.474
			c-1.524-1.371-3.942-2.473-7.619-2.473c-5.122,0-8.06,2.466-9.501,4.746c-0.088-0.088-0.162-0.18-0.248-0.267
			c-3.096-3.022-6.918-4.533-11.471-4.533c-4.259,0-7.871,1.339-10.854,3.98c-3.316,1.661-7.431-0.611-9.265-1.687
			c-0.021-0.013-0.042-0.014-0.062-0.025c-0.9-0.512-1.871-0.949-2.929-1.305c-1.927-0.643-3.869-0.967-5.824-0.967
			c-3.035,0-5.583,0.768-7.642,2.3c-2.058,1.535-3.085,3.717-3.085,6.548c0,2.832,0.903,4.935,2.713,6.309
			c0.907,0.728,1.941,1.318,3.111,1.771c1.166,0.452,2.872,0.948,5.121,1.488c2.247,0.543,3.83,1.141,4.75,1.794
			c0.921,0.656,1.38,1.577,1.38,2.76c0,1.182-0.489,2.132-1.467,2.844c-0.979,0.718-2.299,1.073-3.964,1.073
			c-3.326,0-6.537-1.342-9.631-4.023l-0.01,0.016c-0.456-0.441-1.073-0.717-1.756-0.717c-1.395,0-2.524,1.135-2.524,2.527
			c0,0.85,0.423,1.597,1.068,2.054l-0.015,0.018c3.706,3.3,7.954,4.947,12.741,4.947c3.268,0,5.911-0.828,7.923-2.493
			c2.016-1.665,3.023-3.836,3.023-6.504c0-2.672-0.796-4.693-2.387-6.062c-1.593-1.375-3.957-2.438-7.094-3.198
			c-3.139-0.76-5.188-1.467-6.15-2.123c-0.965-0.654-1.445-1.604-1.445-2.846c0-1.238,0.48-2.172,1.445-2.781
			c0.963-0.611,2.195-0.917,3.698-0.917c1.504,0,3.067,0.163,4.579,0.783c0.844,0.349,1.741,0.748,2.492,1.095
			c0.038,0.021,4.819,2.229,7.333,2.49c-0.913,2.014-1.384,4.234-1.384,6.687c0,4.512,1.546,8.276,4.64,11.294
			c3.093,3.024,6.917,4.535,11.472,4.535c4.552,0,8.375-1.511,11.472-4.535c3.091-3.018,4.636-6.782,4.636-11.294
			c0-2.521-0.5-4.8-1.467-6.854c0.186-0.234,0.344-0.496,0.428-0.804c0.1-0.37,1.129-3.618,6.149-3.618
			c2.316,0,3.521,0.333,4.277,0.912c-3.597,3.196-4.386,10.145-4.334,13.544l0.006,0.85c-0.002,2.684-0.002,11.451,7.112,11.526
			c0.013,0,0.08,0,0.089,0c3.069,0,5.325-1.72,6.358-4.844c0.719-2.171,0.715-5.222,0.715-6.817l0.007-0.721
			c0.047-3.161,0.141-9.133-2.935-12.246c-0.271-0.271-0.561-0.512-0.865-0.723c0.648-0.698,1.996-1.483,4.808-1.483
			c2.017,0,3.494,0.487,4.562,1.102c-0.014,0.029-0.033,0.064-0.043,0.089c-4.471,2.417-4.375,9.898-4.324,13.269l0.007,0.85
			c-0.003,2.684-0.005,11.452,7.114,11.526c0.013,0,0.078,0,0.09,0c3.068,0,5.322-1.72,6.355-4.844
			c0.719-2.171,0.715-5.222,0.715-6.817l0.01-0.721c0.043-3.161,0.138-9.133-2.936-12.246c-0.113-0.115-0.248-0.202-0.367-0.306
			c-0.002-0.005-0.004-0.014-0.006-0.021c-0.021-0.055-0.158-0.363-0.418-0.812c1.062-0.587,2.59-1.07,4.756-1.07
			c1.978,0,3.291,0.398,4.162,0.904c-0.373,0.413-0.723,0.835-1,1.268c-3.125,3.155-3.033,9.287-2.99,12.285l0.008,0.85
			c-0.004,2.683-0.006,11.451,7.113,11.526c0.01,0,0.08,0,0.088,0c3.07,0,5.326-1.72,6.359-4.844
			c0.717-2.172,0.715-5.222,0.715-6.817l0.006-0.723c0.045-3.16,0.137-9.132-2.936-12.245c-0.283-0.289-0.59-0.538-0.914-0.756
			c1.627-1.049,3.463-2.025,4.928-2.677C144.713-34.999,145.221-36.328,144.719-37.469z M83.743-14.128
			c-2.087,2.156-4.649,3.237-7.683,3.237c-3.037,0-5.599-1.083-7.686-3.237c-2.088-2.162-3.131-4.781-3.131-7.862
			c0-3.08,1.043-5.697,3.131-7.859c2.087-2.155,4.648-3.237,7.686-3.237c3.033,0,5.596,1.082,7.683,3.237
			c2.087,2.162,3.134,4.78,3.134,7.859C86.878-18.91,85.83-16.292,83.743-14.128z M107.018-18.877l-0.012,0.919
			c0,1.264,0.002,3.787-0.486,5.268c-0.484,1.462-1.158,1.754-2.088,1.754h-0.035c-1.646-0.017-2.664-1.707-2.664-7.158
			l-0.012-0.777c-0.111-8.252,1.396-9.396,2.709-9.415c0.4,0,0.672,0.11,0.945,0.387C107.127-26.125,107.043-20.82,107.018-18.877z
			 M122.51-18.877l-0.012,0.919c0,1.264,0.004,3.787-0.486,5.268c-0.482,1.462-1.154,1.754-2.084,1.754h-0.041
			c-1.645-0.017-2.664-1.707-2.662-7.158l-0.01-0.777c-0.115-8.252,1.395-9.396,2.709-9.415c0.4,0,0.672,0.11,0.943,0.387
			C122.62-26.125,122.536-20.82,122.51-18.877z M138.002-18.877l-0.01,0.919c0,1.264,0.002,3.787-0.486,5.268
			c-0.484,1.462-1.158,1.754-2.088,1.754h-0.037c-1.646-0.017-2.664-1.707-2.662-7.158l-0.012-0.777
			c-0.08-5.729,0.625-7.715,1.502-8.772c0.121-0.098,0.231-0.197,0.332-0.316c0.289-0.226,0.588-0.318,0.875-0.324
			c0.399,0,0.672,0.111,0.942,0.387C138.112-26.125,138.028-20.82,138.002-18.877z"/>
		
			<circle fill="#545454" stroke="#FFFFFF" stroke-width="1.5247" stroke-linejoin="round" stroke-miterlimit="10" cx="36.677" cy="-13.159" r="2.572"/>
		
			<circle fill="#545454" stroke="#FFFFFF" stroke-width="1.5247" stroke-linejoin="round" stroke-miterlimit="10" cx="89.519" cy="-31.731" r="2.569"/>
		
			<circle fill="#545454" stroke="#FFFFFF" stroke-width="1.5247" stroke-linejoin="round" stroke-miterlimit="10" cx="150.165" cy="-39.838" r="2.573"/>
		<path fill="#545454" stroke="#FFFFFF" stroke-width="1.5247" stroke-linejoin="round" stroke-miterlimit="10" d="M108.743-32.538
			c0,0-3.877,0.807-5.844,5.188"/>
		<path fill="#545454" stroke="#FFFFFF" stroke-width="1.5247" stroke-linejoin="round" stroke-miterlimit="10" d="M104.901-35.298
			c0,0-1.887,0.992-3.342,2.941"/>
		<path fill="#545454" stroke="#FFFFFF" stroke-width="1.5247" stroke-linejoin="round" stroke-miterlimit="10" d="M124.17-32.458
			c0,0-3.877,0.808-5.842,5.188"/>
		<path fill="#545454" stroke="#FFFFFF" stroke-width="1.5247" stroke-linejoin="round" stroke-miterlimit="10" d="M139.721-32.355
			c0,0-3.766,0.573-5.73,4.956"/>
	</g>
	<path fill="#545454" stroke="#FFFFFF" stroke-width="1.5247" stroke-linejoin="round" stroke-miterlimit="10" d="M60.692-27.35
		c0,0,1.42-4.382,5.153-6.954"/>
</g>
<g>
	<circle fill="#565656" cx="117.133" cy="10.514" r="2.132"/>
	<circle fill="#565656" cx="117.133" cy="10.514" r="1.634"/>
</g>
<g>
	<circle fill="#565656" cx="9.403" cy="30.951" r="2.132"/>
	<g>
		<path fill="#565656" d="M112.878,18.417c-0.031-0.122-0.261-0.973-0.743-2.141c0.105-0.15,0.209-0.303,0.277-0.48
			c0.098-0.255,0.963-2.394,3.318-2.604c-1.041-0.352-1.791-1.334-1.791-2.49c0-0.881,0.437-1.659,1.102-2.138
			c-2.588,0.332-4.406,1.688-5.583,3.137c-1.959-2.404-4.89-4.475-9.146-4.223c-4.468,0.265-7.277,2.482-8.932,4.901
			c-1.873-2.544-4.852-4.665-9.258-4.401c-3.946,0.233-6.514,1.785-8.114,3.616c-3.188-4.049-7.701-4.042-9.551-4.047
			c-2.894,0.011-5.897,1.303-7.492,2.102c-2.48-1.57-5.336-2.365-8.576-2.365c-4.433,0-8.157,1.471-11.168,4.41
			c-0.238,0.231-0.43,0.485-0.646,0.729c1.547,0.59,3.834,1.068,5.9-0.068c0.275-0.147,0.616-0.05,0.765,0.223
			c0.15,0.272,0.05,0.616-0.223,0.766c-1.118,0.613-2.27,0.839-3.36,0.839c-2.327,0-4.347-1.02-5.153-1.487
			c-1.707-0.753-3.194-1.706-4.016-2.233l-0.59-0.374c-0.184-0.112-0.377-0.188-0.575-0.244c-1.031-0.654-2.168-1.201-3.431-1.622
			c-1.874-0.625-3.764-0.938-5.668-0.938c-2.956,0-5.435,0.744-7.438,2.237c-2.003,1.491-3.005,3.616-3.005,6.372
			c0,2.757,0.88,4.802,2.643,6.139c0.88,0.711,1.89,1.285,3.026,1.726c1.136,0.44,2.799,0.925,4.988,1.449
			c2.188,0.526,3.729,1.108,4.624,1.748c0.896,0.641,1.343,1.533,1.343,2.686s-0.476,2.075-1.428,2.771
			c-0.953,0.695-2.238,1.044-3.857,1.044c-3.114,0-6.125-1.212-9.028-3.629c0.259,0.407,0.411,0.889,0.411,1.405
			c0,1.45-1.18,2.631-2.631,2.631c-0.282,0-0.553-0.045-0.807-0.127c3.495,2.937,7.47,4.408,11.927,4.408
			c3.182,0,5.754-0.811,7.715-2.431c1.961-1.619,2.941-3.729,2.941-6.33c0-2.602-0.775-4.567-2.323-5.902
			c-1.549-1.336-3.852-2.374-6.906-3.111c-3.055-0.738-5.051-1.43-5.989-2.067c-0.938-0.64-1.407-1.563-1.407-2.771
			c0-1.207,0.468-2.109,1.407-2.708c0.938-0.596,2.138-0.895,3.602-0.895c1.463,0,2.948,0.256,4.454,0.768s2.7,1.165,3.582,1.96
			l0.06-0.085c1.214,0.78,3.142,1.979,5.432,2.859c-0.559,1.622-0.856,3.372-0.856,5.261c0,4.394,1.506,8.057,4.518,10.998
			c3.012,2.94,6.735,4.412,11.168,4.412c4.433,0,8.156-1.472,11.161-4.412c2.997-2.941,4.501-6.604,4.501-10.998
			c0-3.728-1.098-6.927-3.258-9.609c1.172-0.452,2.52-0.839,3.684-0.844c2.299,0.043,4.608,0.323,6.219,2.769
			c1.724,2.101,4.804,7.354,3.437,17.051c-0.04,0.282-0.28,0.484-0.558,0.484c-0.025,0-0.053-0.001-0.078-0.006
			c-0.309-0.043-0.523-0.328-0.48-0.638c1.157-8.2-1.049-13.064-2.646-15.402c-2.729,3.233-2.387,11.188-2.387,13.88
			c0,3.416,2.377,7.612,5.309,7.612s5.311-4.196,5.311-7.612c0-2.581,0.325-9.958-2.057-13.438c-0.023-0.087-0.053-0.165-0.076-0.25
			c0.268-1.141,1.371-3.758,5.932-4.027c2.816-0.167,4.515,1.361,5.521,2.946c1.85,2.425,4.466,7.578,3.215,16.45
			c-0.041,0.282-0.281,0.484-0.559,0.484c-0.025,0-0.053-0.001-0.078-0.006c-0.309-0.043-0.523-0.328-0.48-0.638
			c1.133-8.027-1.09-12.854-2.768-15.244c-2.592,3.325-2.266,11.073-2.266,13.723c0,3.416,2.377,7.612,5.309,7.612
			c2.934,0,5.311-4.196,5.311-7.612c0-2.37,0.274-8.784-1.523-12.512c0.004-0.019,0.011-0.033,0.013-0.052
			c0.086-0.544,0.993-5.326,6.497-5.652c2.878-0.156,4.816,1.736,6.039,3.65c-0.001,0.002-0.003,0.003-0.004,0.003
			c1.837,2.501,4.285,7.601,3.064,16.242c-0.039,0.282-0.279,0.484-0.557,0.484c-0.025,0-0.054-0.001-0.079-0.006
			c-0.31-0.044-0.522-0.328-0.479-0.638c1.133-8.024-1.092-12.853-2.769-15.244c-2.592,3.325-2.267,11.073-2.267,13.723
			c0,3.416,2.379,7.612,5.311,7.612s5.309-4.196,5.309-7.612c0-2.254,0.242-8.151-1.277-11.934
			C112.88,18.435,112.88,18.427,112.878,18.417z M55.872,30.344c-2.032,2.104-4.525,3.153-7.481,3.153s-5.45-1.051-7.481-3.153
			c-2.032-2.104-3.047-4.654-3.047-7.652c0-1.505,0.256-2.896,0.768-4.175c0.093,0.003,0.185,0.021,0.278,0.021
			c0.748,0,1.502-0.073,2.255-0.237c2.65-0.58,4.831-2.182,6.479-4.763c0.322-0.504,0.42-1.083,0.335-1.632
			c0.138-0.005,0.272-0.019,0.413-0.019c2.956,0,5.449,1.051,7.481,3.153c2.031,2.103,3.044,4.652,3.044,7.65
			S57.904,28.24,55.872,30.344z"/>
	</g>
</g>
</svg>
