<?xml version="1.0" encoding="utf-8"?>
<!-- Generator: Adobe Illustrator 16.0.0, SVG Export Plug-In . SVG Version: 6.00 Build 0)  -->
<!DOCTYPE svg PUBLIC "-//W3C//DTD SVG 1.1//EN" "http://www.w3.org/Graphics/SVG/1.1/DTD/svg11.dtd">
<svg version="1.1" id="Layer_1" xmlns="http://www.w3.org/2000/svg" xmlns:xlink="http://www.w3.org/1999/xlink" x="0px" y="0px"
	 width="178.958px" height="45.428px" viewBox="0 0 178.958 45.428" enable-background="new 0 0 178.958 45.428"
	 xml:space="preserve">
<g>
	<g>
		<path fill="#545454" stroke="#FFFFFF" stroke-width="1.5247" stroke-linejoin="round" stroke-miterlimit="10" d="M148.623,8.781
			c-0.508-1.134-1.839-1.65-2.972-1.14c-0.818,0.363-3.455,1.59-5.988,3.292c-1.614-1.379-4.078-2.455-7.721-2.455
			c-3.646,0-6.176,1.032-7.889,2.224c-1.729-1.213-4.188-2.224-7.627-2.224c-3.676,0-6.094,1.1-7.621,2.472
			c-1.526-1.371-3.944-2.471-7.62-2.471c-5.123,0-8.06,2.466-9.501,4.746c-0.088-0.088-0.162-0.18-0.248-0.267
			c-3.096-3.022-6.918-4.533-11.471-4.533c-4.259,0-7.871,1.339-10.854,3.982c-3.316,1.661-7.431-0.613-9.265-1.687
			c-0.021-0.013-0.042-0.014-0.062-0.025c-0.9-0.512-1.871-0.951-2.929-1.305c-1.927-0.643-3.869-0.967-5.824-0.967
			c-3.035,0-5.583,0.768-7.642,2.3c-2.058,1.535-3.085,3.717-3.085,6.548c0,2.832,0.903,4.933,2.713,6.307
			c0.907,0.728,1.941,1.32,3.111,1.772c1.166,0.452,2.872,0.948,5.121,1.488c2.247,0.543,3.83,1.141,4.75,1.794
			c0.921,0.656,1.38,1.577,1.38,2.76c0,1.182-0.489,2.132-1.467,2.844c-0.979,0.716-2.299,1.073-3.964,1.073
			c-3.326,0-6.537-1.342-9.631-4.025L42.307,31.3c-0.456-0.441-1.073-0.717-1.756-0.717c-1.395,0-2.524,1.135-2.524,2.529
			c0,0.848,0.423,1.595,1.068,2.052l-0.015,0.018c3.706,3.3,7.954,4.947,12.741,4.947c3.268,0,5.911-0.828,7.923-2.493
			c2.016-1.665,3.023-3.836,3.023-6.504c0-2.672-0.796-4.693-2.387-6.062c-1.593-1.375-3.957-2.438-7.094-3.2
			c-3.139-0.758-5.188-1.465-6.15-2.123c-0.965-0.654-1.445-1.604-1.445-2.844s0.48-2.172,1.445-2.783
			c0.963-0.611,2.195-0.917,3.698-0.917c1.504,0,3.067,0.163,4.579,0.785c0.844,0.347,1.741,0.748,2.492,1.093
			c0.038,0.021,4.819,2.23,7.333,2.492c-0.913,2.012-1.384,4.234-1.384,6.685c0,4.512,1.546,8.276,4.64,11.294
			c3.093,3.024,6.917,4.535,11.472,4.535c4.552,0,8.375-1.511,11.472-4.535c3.092-3.018,4.636-6.782,4.636-11.294
			c0-2.521-0.5-4.8-1.466-6.854c0.186-0.236,0.344-0.497,0.428-0.804c0.099-0.37,1.128-3.618,6.149-3.618
			c2.317,0,3.521,0.333,4.279,0.912c-3.596,3.196-4.385,10.143-4.335,13.544l0.006,0.848c-0.001,2.684-0.002,11.453,7.113,11.528
			c0.012,0,0.08,0,0.089,0c3.07,0,5.326-1.72,6.359-4.844c0.718-2.171,0.715-5.222,0.715-6.817l0.006-0.721
			c0.046-3.161,0.14-9.133-2.934-12.246c-0.271-0.272-0.561-0.512-0.865-0.723c0.648-0.698,1.996-1.483,4.807-1.483
			c2.014,0,3.494,0.487,4.562,1.1c-0.015,0.031-0.034,0.066-0.044,0.089c-4.47,2.417-4.374,9.9-4.323,13.269l0.006,0.848
			c-0.002,2.684-0.004,11.453,7.115,11.528c0.011,0,0.078,0,0.089,0c3.069,0,5.323-1.72,6.356-4.844
			c0.719-2.171,0.715-5.222,0.715-6.817l0.009-0.721c0.044-3.161,0.138-9.133-2.936-12.246c-0.113-0.115-0.247-0.202-0.367-0.306
			c-0.002-0.005-0.003-0.014-0.006-0.019c-0.021-0.055-0.158-0.365-0.417-0.812c1.063-0.587,2.59-1.07,4.756-1.07
			c1.977,0,3.29,0.398,4.162,0.904c-0.374,0.413-0.723,0.835-1,1.268c-3.125,3.155-3.033,9.287-2.99,12.285l0.007,0.848
			c-0.004,2.683-0.006,11.453,7.113,11.528c0.011,0,0.08,0,0.088,0c3.07,0,5.326-1.72,6.36-4.844
			c0.716-2.172,0.714-5.222,0.714-6.817l0.007-0.723c0.044-3.16,0.137-9.132-2.935-12.245c-0.284-0.289-0.591-0.538-0.915-0.756
			c1.626-1.049,3.463-2.025,4.927-2.677C148.618,11.249,149.126,9.92,148.623,8.781z M87.647,32.12
			c-2.087,2.158-4.649,3.239-7.683,3.239c-3.037,0-5.599-1.083-7.686-3.239c-2.088-2.162-3.131-4.781-3.131-7.862
			c0-3.08,1.043-5.697,3.131-7.859c2.087-2.157,4.648-3.239,7.686-3.239c3.033,0,5.596,1.082,7.683,3.239
			c2.087,2.162,3.134,4.78,3.134,7.859C90.782,27.338,89.734,29.956,87.647,32.12z M110.922,27.371l-0.012,0.919
			c0,1.264,0.002,3.787-0.486,5.268c-0.485,1.462-1.158,1.754-2.087,1.754h-0.036c-1.647-0.017-2.665-1.707-2.664-7.158
			l-0.012-0.779c-0.112-8.252,1.396-9.396,2.71-9.415c0.399,0,0.672,0.112,0.944,0.387
			C111.032,20.123,110.947,25.429,110.922,27.371z M126.414,27.371l-0.011,0.919c0,1.264,0.003,3.787-0.487,5.268
			c-0.483,1.462-1.155,1.754-2.083,1.754h-0.041c-1.645-0.017-2.665-1.707-2.662-7.158l-0.01-0.779
			c-0.116-8.252,1.393-9.396,2.709-9.415c0.4,0,0.671,0.112,0.942,0.387C126.523,20.123,126.439,25.429,126.414,27.371z
			 M141.906,27.371l-0.01,0.919c0,1.264,0.003,3.787-0.486,5.268c-0.484,1.462-1.158,1.754-2.088,1.754h-0.037
			c-1.647-0.017-2.664-1.707-2.662-7.158l-0.011-0.779c-0.08-5.729,0.624-7.715,1.502-8.772c0.12-0.098,0.231-0.198,0.332-0.318
			c0.288-0.224,0.587-0.318,0.874-0.324c0.4,0,0.672,0.112,0.944,0.387C142.016,20.123,141.931,25.429,141.906,27.371z"/>
		
			<circle fill="#545454" stroke="#FFFFFF" stroke-width="1.5247" stroke-linejoin="round" stroke-miterlimit="10" cx="40.581" cy="33.089" r="2.572"/>
		
			<circle fill="#545454" stroke="#FFFFFF" stroke-width="1.5247" stroke-linejoin="round" stroke-miterlimit="10" cx="93.422" cy="14.518" r="2.569"/>
		
			<circle fill="#545454" stroke="#FFFFFF" stroke-width="1.5247" stroke-linejoin="round" stroke-miterlimit="10" cx="154.069" cy="6.411" r="2.573"/>
		<path fill="#545454" stroke="#FFFFFF" stroke-width="1.5247" stroke-linejoin="round" stroke-miterlimit="10" d="M112.647,13.71
			c0,0-3.877,0.807-5.845,5.189"/>
		<path fill="#545454" stroke="#FFFFFF" stroke-width="1.5247" stroke-linejoin="round" stroke-miterlimit="10" d="M108.805,10.95
			c0,0-1.887,0.994-3.341,2.943"/>
		<path fill="#545454" stroke="#FFFFFF" stroke-width="1.5247" stroke-linejoin="round" stroke-miterlimit="10" d="M128.075,13.79
			c0,0-3.878,0.808-5.843,5.188"/>
		<path fill="#545454" stroke="#FFFFFF" stroke-width="1.5247" stroke-linejoin="round" stroke-miterlimit="10" d="M143.626,13.894
			c0,0-3.766,0.573-5.732,4.956"/>
	</g>
	<path fill="#545454" stroke="#FFFFFF" stroke-width="1.5247" stroke-linejoin="round" stroke-miterlimit="10" d="M64.596,18.899
		c0,0,1.42-4.382,5.153-6.954"/>
</g>
</svg>
