<?xml version="1.0" encoding="utf-8"?>
<!-- Generator: Adobe Illustrator 16.0.0, SVG Export Plug-In . SVG Version: 6.00 Build 0)  -->
<!DOCTYPE svg PUBLIC "-//W3C//DTD SVG 1.1//EN" "http://www.w3.org/Graphics/SVG/1.1/DTD/svg11.dtd">
<svg version="1.1" id="Layer_1" xmlns="http://www.w3.org/2000/svg" xmlns:xlink="http://www.w3.org/1999/xlink" x="0px" y="0px"
	 width="170.917px" height="57.613px" viewBox="0 0 170.917 57.613" enable-background="new 0 0 170.917 57.613"
	 xml:space="preserve">
<g>
	<g>
		<g>
			<path fill="#DF98D5" d="M-62.899-37.414c-0.376,0-0.759-0.09-1.112-0.271c-1.196-0.614-1.663-2.08-1.051-3.274l7.675-14.899
				c0.615-1.199,2.083-1.667,3.274-1.056c1.192,0.617,1.663,2.085,1.051,3.276l-7.676,14.903
				C-61.17-37.896-62.018-37.414-62.899-37.414z"/>
		</g>
	</g>
	<g>
		<g>
			<path fill="#D6A5F8" d="M-47.553-37.414c-0.881,0-1.729-0.479-2.161-1.317l-7.674-14.904c-0.614-1.191-0.147-2.659,1.049-3.277
				c1.194-0.611,2.66-0.146,3.276,1.056l7.673,14.898c0.615,1.194,0.146,2.659-1.048,3.273
				C-46.792-37.503-47.177-37.414-47.553-37.414z"/>
		</g>
	</g>
</g>
<g>
	<path fill="#F27D8A" d="M-26.698-45.796c-0.33-0.664-0.795-1.24-1.39-1.715c-0.576-0.47-1.266-0.87-2.054-1.218
		c-0.101-0.075-0.201-0.15-0.312-0.214l0.015-0.021c-0.081-0.037-0.158-0.064-0.233-0.099c-0.011,0-0.017-0.005-0.021-0.011
		c-0.701-0.287-1.307-0.483-2.169-0.769c-0.5-0.17-0.938-0.32-1.321-0.461c-0.377-0.146-0.696-0.291-0.95-0.453
		c-0.254-0.161-0.447-0.334-0.575-0.521c-0.129-0.188-0.191-0.41-0.191-0.661c0-0.257,0.062-0.475,0.18-0.65
		c0.118-0.179,0.279-0.326,0.479-0.436c0.202-0.107,0.438-0.188,0.698-0.241c0.267-0.048,0.549-0.073,0.852-0.073
		c0.292,0,0.58,0.043,0.864,0.13c0.281,0.089,0.55,0.195,0.809,0.329c0.257,0.133,0.493,0.28,0.719,0.444
		c0.225,0.164,0.428,0.324,0.608,0.479h0.007l0.021,0.021c0.188,0.151,0.394,0.269,0.604,0.353c0.935,0.369,2.041,0.105,2.704-0.72
		c0.81-1.018,0.646-2.497-0.369-3.308l-0.299-0.237l-0.351-0.26c-0.275-0.197-0.572-0.389-0.882-0.565
		c-0.739-0.414-1.488-0.716-2.252-0.897c-0.763-0.188-1.562-0.282-2.391-0.282c-1.104,0-2.106,0.138-3.004,0.405
		c-0.893,0.269-1.654,0.647-2.29,1.144c-0.636,0.493-1.125,1.084-1.467,1.781c-0.344,0.688-0.513,1.458-0.513,2.31
		c0,0.803,0.137,1.531,0.41,2.187c0.273,0.649,0.684,1.247,1.232,1.793c0.549,0.537,1.229,1.035,2.053,1.477
		c0.823,0.443,1.781,0.854,2.876,1.238c0.248,0.081,0.54,0.188,0.879,0.312c0.251,0.096,0.494,0.182,0.73,0.282
		c0.081,0.069,0.15,0.146,0.239,0.203l-0.021,0.031c0.312,0.176,0.574,0.373,0.788,0.596c0.215,0.226,0.32,0.479,0.32,0.763
		c0,0.254-0.041,0.496-0.114,0.727c-0.077,0.228-0.21,0.432-0.393,0.603c-0.185,0.174-0.431,0.312-0.747,0.422
		c-0.312,0.104-0.704,0.151-1.171,0.151c-0.5,0-0.979-0.086-1.438-0.26c-0.457-0.17-0.918-0.414-1.382-0.729
		c-0.312-0.207-0.589-0.423-0.829-0.638c-0.082-0.071-0.153-0.133-0.228-0.194h0.004l-0.396-0.392
		c-0.174-0.168-0.365-0.303-0.568-0.403c-0.896-0.457-2.021-0.302-2.761,0.463c-0.728,0.75-0.841,1.854-0.378,2.731
		c0.024,0.133,0.126,0.293,0.309,0.488c0.008,0.01,0.017,0.021,0.024,0.021c0.01,0.007,0.021,0.017,0.027,0.033
		c0.01,0.013,0.02,0.017,0.024,0.021c0.011,0.01,0.021,0.021,0.029,0.037l0.043,0.039c0.146,0.154,0.343,0.359,0.594,0.616
		c0.251,0.254,0.561,0.521,0.926,0.785c0.878,0.631,1.821,1.133,2.836,1.512c1.011,0.371,2.043,0.562,3.094,0.562
		c1.114,0,2.154-0.159,3.121-0.475c0.972-0.312,1.812-0.766,2.528-1.334c0.716-0.578,1.28-1.272,1.689-2.091
		c0.409-0.819,0.613-1.729,0.613-2.733C-26.199-44.318-26.363-45.128-26.698-45.796z"/>
</g>
<path fill="#DF98D5" d="M-67.293-49.983c-0.244-0.863-0.591-1.671-1.037-2.415c-0.444-0.748-0.981-1.421-1.61-2.025
	c-0.629-0.604-1.327-1.119-2.084-1.552c-0.763-0.436-1.58-0.77-2.457-1c-0.879-0.231-1.79-0.353-2.732-0.353h-4.907l-0.129,0.006
	c-0.54,0.013-1.032,0.215-1.43,0.524c-0.58,0.445-0.963,1.145-0.963,1.933v15.117c0,0.664,0.269,1.266,0.697,1.703
	c0.428,0.455,1.026,0.748,1.694,0.766l0.129,0.006h4.906c0.942,0,1.855-0.104,2.737-0.345c0.883-0.229,1.704-0.556,2.466-0.979
	c0.761-0.422,1.452-0.938,2.077-1.536c0.623-0.604,1.163-1.271,1.61-2.02c0.451-0.746,0.798-1.545,1.041-2.403
	c0.243-0.854,0.363-1.763,0.363-2.718C-66.92-48.215-67.043-49.12-67.293-49.983z M-72.485-45.316
	c-0.248,0.604-0.591,1.129-1.026,1.572c-0.438,0.44-0.947,0.808-1.53,1.078c-0.586,0.271-1.214,0.438-1.891,0.492
	c-0.196,0.02-0.396,0.032-0.595,0.045c-0.197,0.018-1.81,0.021-2.019,0.021h-0.235V-52.51h0.235l2.057,0.031
	c0.736,0,1.436,0.126,2.086,0.385c0.651,0.257,1.222,0.612,1.711,1.078c0.479,0.465,0.866,1.013,1.15,1.648
	c0.282,0.63,0.421,1.326,0.421,2.082C-72.117-46.575-72.238-45.917-72.485-45.316z"/>
<g>
	<g>
		<path fill="#FB7066" d="M-9.428-54.812c-0.186,1.329-1.41,2.257-2.739,2.067c-3.007-0.424-5.793,1.68-6.214,4.68
			c-0.425,3.005,1.678,5.793,4.679,6.211c1.332,0.188,2.258,1.423,2.073,2.749c-0.188,1.333-1.42,2.26-2.752,2.066
			c-5.654-0.795-9.61-6.047-8.818-11.699c0.798-5.66,6.046-9.616,11.708-8.825C-10.163-57.372-9.238-56.143-9.428-54.812z"/>
	</g>
	<g>
		<path fill="#FFB660" d="M-2.673-45.858c-0.797,5.661-6.048,9.614-11.709,8.819c-1.324-0.187-2.255-1.416-2.063-2.746
			c0.186-1.328,1.414-2.258,2.742-2.07c3.004,0.426,5.79-1.673,6.212-4.68c0.188-1.33,1.415-2.263,2.746-2.065
			C-3.411-48.411-2.488-47.184-2.673-45.858z"/>
	</g>
	<g>
		<path fill="#FC8A64" d="M-2.673-45.858c-0.188,1.331-1.416,2.263-2.748,2.069c-1.331-0.188-2.259-1.416-2.07-2.746
			c0.424-3.003-1.678-5.788-4.677-6.211c-1.333-0.188-2.259-1.418-2.07-2.747c0.185-1.329,1.414-2.256,2.746-2.071
			C-5.837-56.766-1.878-51.514-2.673-45.858z"/>
	</g>
</g>
<g>
	<g>
		<path fill="#FFB660" d="M22.552-37.382c0.265,0,0.53-0.046,0.791-0.137c1.271-0.437,1.946-1.814,1.509-3.09L19.739-55.51
			c-0.313-0.918-1.146-1.561-2.112-1.631c-0.974-0.08-1.893,0.433-2.34,1.293l1.688,7.265l3.277,9.559
			C20.598-38.019,21.542-37.382,22.552-37.382z"/>
	</g>
	<g>
		<path fill="#FFD75B" d="M12.406-42.78c-0.351,0.004-0.71-0.069-1.05-0.231c-1.217-0.567-1.737-2.016-1.168-3.228l5.064-9.574
			c0.567-1.218,2.018-1.738,3.234-1.171c1.219,0.569,1.74,2.021,1.169,3.236l-5.067,9.568C14.181-43.298,13.316-42.784,12.406-42.78
			z"/>
	</g>
	<g>
		<path fill="#FFD75B" d="M2.277-37.382c-0.262,0-0.527-0.046-0.789-0.137c-1.271-0.437-1.949-1.814-1.514-3.09L5.091-55.51
			c0.312-0.918,1.146-1.561,2.112-1.631c0.969-0.08,1.89,0.433,2.336,1.293l4.869,9.292c0.626,1.191,0.163,2.659-1.023,3.281
			c-1.19,0.623-2.663,0.162-3.284-1.024l-2.242-4.284l-3.281,9.559C4.23-38.019,3.284-37.382,2.277-37.382z"/>
	</g>
</g>
<g>
	<g>
		<path fill="#545454" stroke="#FFFFFF" stroke-width="1.5247" stroke-linejoin="round" stroke-miterlimit="10" d="M142.701,98.616
			c-0.508-1.134-1.838-1.649-2.971-1.14c-0.818,0.362-3.455,1.59-5.988,3.292c-1.615-1.379-4.078-2.455-7.721-2.455
			c-3.646,0-6.178,1.032-7.891,2.224c-1.729-1.213-4.188-2.224-7.627-2.224c-3.676,0-6.094,1.1-7.621,2.472
			c-1.525-1.371-3.943-2.471-7.619-2.471c-5.121,0-8.059,2.466-9.5,4.746c-0.087-0.088-0.161-0.182-0.247-0.269
			c-3.097-3.021-6.92-4.53-11.472-4.53c-4.259,0-7.871,1.339-10.853,3.98c-3.317,1.661-7.431-0.613-9.265-1.687
			c-0.02-0.015-0.042-0.016-0.061-0.025c-0.901-0.511-1.871-0.95-2.929-1.304c-1.927-0.645-3.869-0.968-5.824-0.968
			c-3.035,0-5.583,0.769-7.642,2.301c-2.058,1.535-3.085,3.717-3.085,6.549s0.903,4.932,2.713,6.305
			c0.907,0.729,1.941,1.32,3.111,1.772c1.166,0.453,2.872,0.948,5.121,1.488c2.247,0.543,3.83,1.141,4.75,1.795
			s1.38,1.577,1.38,2.76c0,1.182-0.489,2.132-1.466,2.844c-0.979,0.715-2.3,1.073-3.964,1.073c-3.326,0-6.537-1.342-9.631-4.025
			l-0.013,0.014c-0.456-0.44-1.073-0.717-1.756-0.717c-1.395,0-2.524,1.136-2.524,2.529c0,0.847,0.423,1.595,1.068,2.052
			l-0.015,0.02c3.706,3.3,7.954,4.946,12.741,4.946c3.268,0,5.911-0.827,7.924-2.492c2.015-1.665,3.022-3.835,3.022-6.505
			c0-2.673-0.795-4.692-2.387-6.062c-1.592-1.374-3.956-2.438-7.093-3.199c-3.139-0.757-5.188-1.465-6.15-2.123
			c-0.965-0.653-1.445-1.604-1.445-2.845c0-1.24,0.48-2.171,1.445-2.782c0.963-0.609,2.195-0.917,3.698-0.917
			c1.504,0,3.067,0.163,4.579,0.785c0.843,0.347,1.741,0.747,2.492,1.093c0.039,0.021,4.819,2.23,7.333,2.492
			c-0.914,2.011-1.384,4.234-1.384,6.684c0,4.513,1.546,8.275,4.64,11.295c3.093,3.022,6.917,4.533,11.472,4.533
			c4.551,0,8.375-1.511,11.472-4.533c3.092-3.02,4.635-6.782,4.635-11.295c0-2.521-0.5-4.8-1.465-6.854
			c0.187-0.236,0.345-0.497,0.429-0.804c0.1-0.37,1.127-3.617,6.147-3.617c2.315,0,3.521,0.333,4.278,0.912
			c-3.598,3.194-4.387,10.142-4.336,13.543l0.006,0.848c0,2.685-0.002,11.453,7.113,11.528c0.012,0,0.08,0,0.09,0
			c3.068,0,5.324-1.72,6.357-4.844c0.719-2.172,0.715-5.223,0.715-6.817l0.006-0.721c0.047-3.161,0.141-9.132-2.934-12.245
			c-0.271-0.273-0.561-0.512-0.865-0.724c0.648-0.697,1.996-1.482,4.807-1.482c2.017,0,3.494,0.487,4.562,1.1
			c-0.016,0.031-0.033,0.066-0.043,0.089c-4.471,2.417-4.375,9.898-4.324,13.27l0.006,0.848c-0.002,2.685-0.004,11.453,7.115,11.528
			c0.012,0,0.078,0,0.09,0c3.068,0,5.322-1.72,6.355-4.844c0.719-2.171,0.715-5.223,0.715-6.817l0.01-0.721
			c0.043-3.161,0.137-9.132-2.938-12.245c-0.111-0.115-0.246-0.202-0.365-0.307c-0.002-0.005-0.004-0.014-0.006-0.019
			c-0.021-0.055-0.158-0.365-0.418-0.812c1.062-0.588,2.59-1.07,4.756-1.07c1.977,0,3.291,0.396,4.162,0.904
			c-0.373,0.412-0.723,0.835-1,1.268c-3.125,3.155-3.033,9.286-2.99,12.284l0.008,0.849c-0.004,2.684-0.006,11.453,7.113,11.528
			c0.01,0,0.08,0,0.088,0c3.068,0,5.326-1.72,6.359-4.844c0.717-2.173,0.715-5.223,0.715-6.817l0.006-0.722
			c0.045-3.16,0.137-9.132-2.936-12.244c-0.283-0.289-0.59-0.538-0.914-0.756c1.625-1.05,3.463-2.025,4.928-2.679
			C142.697,101.084,143.205,99.755,142.701,98.616z M81.728,121.954c-2.087,2.158-4.649,3.239-7.683,3.239
			c-3.037,0-5.599-1.083-7.686-3.239c-2.087-2.162-3.13-4.78-3.13-7.86c0-3.079,1.043-5.697,3.13-7.859
			c2.087-2.157,4.649-3.239,7.686-3.239c3.034,0,5.596,1.082,7.683,3.239c2.087,2.162,3.134,4.781,3.134,7.859
			C84.861,117.173,83.814,119.791,81.728,121.954z M105,117.205l-0.012,0.919c0,1.266,0.002,3.787-0.486,5.27
			c-0.483,1.461-1.156,1.753-2.086,1.753h-0.035c-1.647-0.019-2.666-1.707-2.664-7.158l-0.012-0.78
			c-0.113-8.25,1.396-9.395,2.709-9.413c0.398,0,0.672,0.112,0.943,0.389C105.111,109.958,105.025,115.263,105,117.205z
			 M120.492,117.205l-0.01,0.919c0,1.266,0.002,3.787-0.488,5.27c-0.481,1.461-1.154,1.753-2.082,1.753h-0.041
			c-1.645-0.019-2.666-1.707-2.662-7.158l-0.01-0.78c-0.117-8.25,1.393-9.395,2.709-9.413c0.4,0,0.67,0.112,0.941,0.389
			C120.601,109.958,120.517,115.263,120.492,117.205z M135.984,117.205l-0.01,0.919c0,1.266,0.004,3.787-0.486,5.27
			c-0.484,1.461-1.158,1.753-2.088,1.753h-0.037c-1.646-0.019-2.664-1.707-2.662-7.158l-0.01-0.78
			c-0.08-5.729,0.623-7.713,1.502-8.771c0.119-0.098,0.23-0.198,0.332-0.318c0.287-0.223,0.586-0.316,0.873-0.323
			c0.4,0,0.672,0.112,0.943,0.389C136.093,109.958,136.009,115.263,135.984,117.205z"/>
		
			<circle fill="#545454" stroke="#FFFFFF" stroke-width="1.5247" stroke-linejoin="round" stroke-miterlimit="10" cx="34.661" cy="122.922" r="2.572"/>
		
			<circle fill="#545454" stroke="#FFFFFF" stroke-width="1.5247" stroke-linejoin="round" stroke-miterlimit="10" cx="87.501" cy="104.353" r="2.569"/>
		
			<circle fill="#545454" stroke="#FFFFFF" stroke-width="1.5247" stroke-linejoin="round" stroke-miterlimit="10" cx="148.148" cy="96.246" r="2.573"/>
		<path fill="#545454" stroke="#FFFFFF" stroke-width="1.5247" stroke-linejoin="round" stroke-miterlimit="10" d="M106.726,103.545
			c0,0-3.877,0.809-5.846,5.189"/>
		<path fill="#545454" stroke="#FFFFFF" stroke-width="1.5247" stroke-linejoin="round" stroke-miterlimit="10" d="M102.882,100.785
			c0,0-1.887,0.994-3.34,2.943"/>
		<path fill="#545454" stroke="#FFFFFF" stroke-width="1.5247" stroke-linejoin="round" stroke-miterlimit="10" d="M122.154,103.625
			c0,0-3.879,0.81-5.844,5.188"/>
		<path fill="#545454" stroke="#FFFFFF" stroke-width="1.5247" stroke-linejoin="round" stroke-miterlimit="10" d="M137.705,103.729
			c0,0-3.766,0.573-5.731,4.955"/>
	</g>
	<path fill="#545454" stroke="#FFFFFF" stroke-width="1.5247" stroke-linejoin="round" stroke-miterlimit="10" d="M58.676,108.733
		c0,0,1.419-4.381,5.153-6.954"/>
</g>
<rect x="-70.271" y="-1.823" fill="#FF5831" width="55.854" height="46.249"/>
<rect x="-73.047" y="47.425" fill="#285EC9" width="55.854" height="46.249"/>
<rect x="-112.569" y="-1.823" fill="#EAD89D" width="55.854" height="46.249"/>
<g>
	<linearGradient id="SVGID_1_" gradientUnits="userSpaceOnUse" x1="119.7231" y1="11.614" x2="124.3315" y2="11.614">
		<stop  offset="0" style="stop-color:#FF6473"/>
		<stop  offset="1" style="stop-color:#FE5D8E"/>
	</linearGradient>
	<circle fill="url(#SVGID_1_)" cx="122.027" cy="11.614" r="2.304"/>
	<linearGradient id="SVGID_2_" gradientUnits="userSpaceOnUse" x1="3.3301" y1="33.6892" x2="7.936" y2="33.6892">
		<stop  offset="0" style="stop-color:#FF6473"/>
		<stop  offset="1" style="stop-color:#FE5D8E"/>
	</linearGradient>
	<circle fill="url(#SVGID_2_)" cx="5.633" cy="33.689" r="2.303"/>
	<linearGradient id="SVGID_3_" gradientUnits="userSpaceOnUse" x1="5.269" y1="24.7937" x2="120.5122" y2="24.7937">
		<stop  offset="0" style="stop-color:#FF6473"/>
		<stop  offset="1" style="stop-color:#FE5D8E"/>
	</linearGradient>
	<path fill="url(#SVGID_3_)" d="M120.512,14.507c-1.123-0.38-1.935-1.44-1.935-2.689c0-0.95,0.471-1.792,1.189-2.309
		c-2.795,0.358-4.76,1.823-6.031,3.389c-2.115-2.598-5.281-4.832-9.877-4.562c-4.826,0.285-7.861,2.683-9.648,5.294
		c-2.022-2.749-5.239-5.039-10-4.754c-4.263,0.251-7.035,1.929-8.765,3.906C72.003,8.408,67.127,8.416,65.13,8.41
		c-3.132,0.012-6.394,1.408-8.12,2.271c-2.68-1.697-5.765-2.557-9.264-2.557c-4.789,0-8.811,1.589-12.064,4.766
		c-0.257,0.25-0.464,0.523-0.697,0.788c1.671,0.637,4.142,1.153,6.374-0.074c0.297-0.16,0.665-0.055,0.827,0.239
		c0.162,0.295,0.054,0.665-0.241,0.827c-1.208,0.663-2.452,0.906-3.629,0.906c-2.514,0-4.695-1.102-5.566-1.605
		c-1.844-0.814-3.45-1.844-4.338-2.413l-0.638-0.404c-0.198-0.121-0.408-0.202-0.621-0.264c-1.113-0.706-2.342-1.297-3.706-1.751
		c-2.026-0.675-4.068-1.014-6.124-1.014c-3.193,0-5.87,0.806-8.035,2.418c-2.164,1.61-3.246,3.905-3.246,6.883
		c0,2.979,0.951,5.188,2.855,6.632c0.951,0.767,2.042,1.388,3.269,1.862c1.228,0.478,3.023,0.999,5.388,1.565
		c2.364,0.57,4.029,1.198,4.995,1.889c0.968,0.691,1.451,1.656,1.451,2.9s-0.514,2.242-1.542,2.994
		c-1.029,0.752-2.418,1.127-4.167,1.127c-3.364,0-6.615-1.31-9.751-3.92c0.279,0.44,0.443,0.961,0.443,1.52
		c0,1.566-1.275,2.842-2.842,2.842c-0.304,0-0.597-0.049-0.872-0.137c3.775,3.17,8.068,4.762,12.883,4.762
		c3.438,0,6.216-0.877,8.334-2.625c2.118-1.75,3.177-4.028,3.177-6.839c0-2.809-0.837-4.934-2.509-6.375
		c-1.674-1.442-4.161-2.563-7.459-3.361c-3.3-0.798-5.457-1.544-6.469-2.232c-1.014-0.692-1.52-1.689-1.52-2.994
		c0-1.304,0.506-2.28,1.52-2.925c1.013-0.645,2.309-0.967,3.891-0.967c1.58,0,3.185,0.276,4.811,0.83
		c1.627,0.552,2.916,1.258,3.869,2.116l0.065-0.093c1.312,0.843,3.394,2.138,5.867,3.088c-0.604,1.753-0.925,3.644-0.925,5.685
		c0,4.745,1.627,8.703,4.88,11.88s7.275,4.766,12.064,4.766c4.788,0,8.809-1.588,12.063-4.766c3.253-3.178,4.881-7.136,4.881-11.88
		c0-4.026-1.187-7.483-3.532-10.381c1.273-0.488,2.734-0.906,3.992-0.911c2.482,0.046,4.978,0.349,6.716,2.99
		c1.862,2.269,5.189,7.942,3.712,18.418c-0.043,0.305-0.304,0.522-0.601,0.522c-0.029,0-0.057,0-0.085-0.008
		c-0.333-0.045-0.565-0.354-0.519-0.688c1.25-8.856-1.133-14.11-2.858-16.637c-2.947,3.493-2.579,12.084-2.579,14.994
		c0,3.688,2.568,8.223,5.734,8.223s5.735-4.532,5.735-8.223c0-2.789,0.352-10.758-2.221-14.518c-0.025-0.094-0.056-0.178-0.082-0.27
		c0.288-1.233,1.481-4.06,6.407-4.352c3.043-0.182,4.876,1.472,5.964,3.184c1.998,2.619,4.823,8.185,3.474,17.769
		c-0.046,0.306-0.306,0.523-0.604,0.523c-0.027,0-0.056,0-0.084-0.008c-0.335-0.045-0.566-0.354-0.521-0.688
		c1.223-8.671-1.176-13.884-2.988-16.466c-2.799,3.592-2.447,11.961-2.447,14.823c0,3.688,2.568,8.223,5.734,8.223
		s5.734-4.533,5.734-8.223c0-2.562,0.297-9.49-1.646-13.515c0.006-0.021,0.013-0.037,0.017-0.058
		c0.092-0.586,1.071-5.752,7.019-6.104c3.106-0.168,5.202,1.876,6.522,3.943c-0.002,0.002-0.004,0.003-0.006,0.003
		c1.983,2.703,4.629,8.21,3.312,17.545c-0.043,0.306-0.303,0.523-0.602,0.523c-0.029,0-0.059,0-0.086-0.008
		c-0.334-0.045-0.564-0.354-0.52-0.688c1.225-8.668-1.179-13.882-2.988-16.466c-2.801,3.592-2.449,11.961-2.449,14.823
		c0,3.688,2.57,8.223,5.736,8.223s5.733-4.533,5.733-8.223c0-2.437,0.263-8.806-1.381-12.891c0-0.006,0-0.016-0.002-0.026
		c-0.035-0.131-0.281-1.048-0.804-2.312c0.113-0.164,0.226-0.326,0.3-0.52C117.033,17.044,117.966,14.735,120.512,14.507z
		 M55.827,33.035c-2.194,2.271-4.888,3.406-8.08,3.406c-3.193,0-5.887-1.135-8.081-3.406c-2.195-2.272-3.292-5.028-3.292-8.267
		c0-1.625,0.277-3.127,0.829-4.511c0.101,0.005,0.2,0.023,0.301,0.023c0.808,0,1.623-0.08,2.436-0.257
		c2.863-0.626,5.218-2.356,6.998-5.146c0.348-0.545,0.454-1.169,0.362-1.762c0.149-0.005,0.294-0.02,0.446-0.02
		c3.192,0,5.886,1.136,8.08,3.405c2.194,2.271,3.293,5.026,3.293,8.266C59.121,28.007,58.021,30.761,55.827,33.035z"/>
</g>
<linearGradient id="SVGID_4_" gradientUnits="userSpaceOnUse" x1="35.7368" y1="-150.842" x2="144.4048" y2="-150.842">
	<stop  offset="0" style="stop-color:#FF6473"/>
	<stop  offset="1" style="stop-color:#FE5D8E"/>
</linearGradient>
<circle fill="url(#SVGID_4_)" cx="90.071" cy="-150.843" r="54.334"/>
</svg>
