<?xml version="1.0" encoding="utf-8"?>
<!-- Generator: Adobe Illustrator 16.0.0, SVG Export Plug-In . SVG Version: 6.00 Build 0)  -->
<!DOCTYPE svg PUBLIC "-//W3C//DTD SVG 1.1//EN" "http://www.w3.org/Graphics/SVG/1.1/DTD/svg11.dtd">
<svg version="1.1" id="Layer_1" xmlns="http://www.w3.org/2000/svg" xmlns:xlink="http://www.w3.org/1999/xlink" x="0px" y="0px"
	 width="178.958px" height="45.428px" viewBox="-29.349 -11.699 178.958 45.428"
	 enable-background="new -29.349 -11.699 178.958 45.428" xml:space="preserve">
<g>
	<g>
		<g>
			<path fill="#DF98D5" d="M25.764,22.441c-0.395,0-0.797-0.095-1.167-0.284c-1.258-0.646-1.748-2.186-1.104-3.439l8.058-15.647
				c0.646-1.259,2.188-1.75,3.438-1.106c1.252,0.648,1.746,2.189,1.104,3.441l-8.06,15.647
				C27.58,21.935,26.689,22.441,25.764,22.441z"/>
		</g>
	</g>
	<g>
		<g>
			<path fill="#D6A5F8" d="M41.878,22.441c-0.924,0-1.818-0.506-2.27-1.386L31.552,5.406c-0.646-1.252-0.156-2.793,1.101-3.443
				c1.255-0.644,2.794-0.154,3.441,1.106l8.055,15.648c0.646,1.254,0.153,2.793-1.101,3.438
				C42.677,22.347,42.273,22.441,41.878,22.441z"/>
		</g>
	</g>
</g>
<g>
	<path fill="#F27D8A" d="M63.775,13.64c-0.346-0.697-0.834-1.302-1.457-1.801c-0.605-0.493-1.328-0.915-2.156-1.278
		c-0.106-0.08-0.212-0.159-0.329-0.224l0.014-0.023c-0.085-0.038-0.166-0.07-0.246-0.103c-0.01,0-0.017-0.005-0.021-0.011
		c-0.736-0.302-1.371-0.507-2.277-0.806c-0.525-0.178-0.987-0.336-1.388-0.484c-0.396-0.152-0.732-0.305-0.999-0.476
		c-0.266-0.169-0.47-0.35-0.604-0.547c-0.136-0.197-0.203-0.431-0.203-0.695c0-0.269,0.063-0.496,0.189-0.684
		c0.124-0.187,0.293-0.343,0.501-0.457c0.212-0.113,0.458-0.198,0.733-0.253c0.279-0.05,0.576-0.078,0.893-0.078
		c0.307,0,0.61,0.045,0.909,0.136c0.295,0.094,0.576,0.206,0.848,0.345c0.27,0.14,0.519,0.295,0.753,0.468
		c0.237,0.172,0.45,0.34,0.64,0.501h0.007l0.021,0.02c0.198,0.161,0.413,0.281,0.635,0.369c0.98,0.388,2.143,0.112,2.839-0.755
		c0.849-1.068,0.677-2.622-0.387-3.473l-0.314-0.249l-0.366-0.273c-0.291-0.206-0.603-0.406-0.927-0.595
		c-0.776-0.435-1.562-0.75-2.364-0.944c-0.8-0.198-1.639-0.296-2.509-0.296c-1.16,0-2.213,0.144-3.154,0.425
		c-0.937,0.281-1.738,0.682-2.405,1.2c-0.667,0.518-1.181,1.139-1.54,1.87c-0.361,0.722-0.538,1.531-0.538,2.424
		c0,0.843,0.144,1.609,0.432,2.294c0.287,0.684,0.717,1.31,1.294,1.883c0.576,0.564,1.292,1.088,2.155,1.549
		c0.865,0.467,1.871,0.897,3.02,1.302c0.261,0.085,0.567,0.198,0.923,0.325c0.264,0.099,0.519,0.189,0.767,0.297
		c0.086,0.074,0.159,0.155,0.252,0.215l-0.021,0.033c0.327,0.184,0.603,0.391,0.828,0.624c0.226,0.235,0.337,0.502,0.337,0.8
		c0,0.267-0.043,0.521-0.121,0.76c-0.081,0.238-0.22,0.453-0.412,0.633c-0.193,0.183-0.451,0.328-0.784,0.442
		c-0.328,0.108-0.739,0.159-1.23,0.159c-0.525,0-1.029-0.09-1.509-0.271c-0.48-0.18-0.964-0.435-1.451-0.763
		c-0.327-0.218-0.617-0.442-0.871-0.668c-0.086-0.077-0.161-0.14-0.238-0.206h0.004l-0.417-0.409
		c-0.183-0.177-0.383-0.317-0.597-0.426c-0.943-0.479-2.124-0.314-2.899,0.487c-0.763,0.787-0.882,1.948-0.396,2.869
		c0.027,0.139,0.133,0.308,0.323,0.513c0.008,0.011,0.017,0.022,0.027,0.022c0.01,0.008,0.021,0.018,0.029,0.036
		c0.009,0.013,0.02,0.017,0.027,0.021c0.01,0.007,0.022,0.02,0.031,0.039l0.045,0.041c0.152,0.162,0.36,0.378,0.624,0.647
		c0.263,0.267,0.587,0.547,0.972,0.824c0.921,0.663,1.913,1.189,2.978,1.587c1.06,0.391,2.145,0.592,3.247,0.592
		c1.171,0,2.263-0.168,3.278-0.497c1.019-0.329,1.903-0.802,2.655-1.399c0.751-0.607,1.346-1.339,1.775-2.195
		c0.43-0.86,0.645-1.816,0.645-2.87C64.299,15.19,64.128,14.341,63.775,13.64z"/>
</g>
<path fill="#DF98D5" d="M21.152,9.243c-0.257-0.907-0.621-1.754-1.09-2.536c-0.468-0.786-1.031-1.492-1.691-2.128
	c-0.66-0.633-1.394-1.174-2.188-1.628c-0.8-0.455-1.659-0.805-2.58-1.05c-0.923-0.244-1.879-0.368-2.87-0.368H5.58L5.445,1.537
	c-0.567,0.014-1.085,0.226-1.5,0.552c-0.611,0.468-1.013,1.2-1.013,2.027v15.876c0,0.696,0.281,1.326,0.732,1.787
	c0.449,0.479,1.079,0.787,1.78,0.802l0.135,0.007h5.152c0.99,0,1.95-0.111,2.875-0.361c0.927-0.238,1.79-0.582,2.589-1.026
	c0.797-0.442,1.524-0.985,2.181-1.614c0.654-0.633,1.221-1.338,1.691-2.119c0.475-0.783,0.837-1.623,1.092-2.523
	c0.257-0.898,0.383-1.852,0.383-2.854C21.542,11.099,21.414,10.149,21.152,9.243z M15.699,14.144
	c-0.26,0.635-0.621,1.186-1.077,1.652c-0.461,0.465-0.996,0.846-1.608,1.133c-0.615,0.285-1.275,0.459-1.984,0.518
	c-0.207,0.018-0.417,0.035-0.624,0.047c-0.208,0.016-1.899,0.021-2.119,0.021H8.039V6.589h0.248l2.159,0.033
	c0.774,0,1.507,0.133,2.19,0.405c0.685,0.268,1.283,0.643,1.797,1.132c0.503,0.488,0.909,1.062,1.208,1.732
	c0.296,0.66,0.442,1.393,0.442,2.186C16.085,12.821,15.959,13.513,15.699,14.144z"/>
<g>
	<g>
		<path fill="#FB7066" d="M81.91,4.172c-0.195,1.395-1.482,2.37-2.877,2.173c-3.158-0.445-6.083,1.761-6.525,4.911
			c-0.445,3.155,1.762,6.083,4.913,6.522c1.399,0.199,2.37,1.492,2.177,2.887c-0.197,1.398-1.491,2.371-2.89,2.173
			c-5.937-0.835-10.092-6.349-9.261-12.288c0.838-5.943,6.349-10.098,12.294-9.266C81.137,1.485,82.109,2.774,81.91,4.172z"/>
	</g>
	<g>
		<path fill="#FFB660" d="M89.002,13.573c-0.835,5.945-6.349,10.098-12.294,9.264c-1.391-0.195-2.366-1.487-2.167-2.884
			c0.193-1.396,1.484-2.37,2.88-2.176c3.153,0.446,6.079-1.757,6.521-4.911c0.198-1.399,1.485-2.377,2.884-2.172
			C88.226,10.894,89.197,12.182,89.002,13.573z"/>
	</g>
	<g>
		<path fill="#FC8A64" d="M89.002,13.573c-0.196,1.398-1.486,2.375-2.885,2.176c-1.398-0.198-2.371-1.486-2.175-2.883
			c0.444-3.153-1.761-6.081-4.909-6.522c-1.4-0.198-2.373-1.489-2.176-2.885c0.194-1.397,1.484-2.368,2.884-2.177
			C85.679,2.121,89.837,7.635,89.002,13.573z"/>
	</g>
</g>
<g>
	<g>
		<path fill="#FFB660" d="M115.488,22.473c0.278,0,0.558-0.048,0.83-0.142c1.336-0.457,2.045-1.908,1.585-3.244l-5.368-15.648
			c-0.332-0.964-1.203-1.638-2.219-1.712c-1.021-0.085-1.986,0.453-2.457,1.357l1.772,7.626l3.442,10.035
			C113.437,21.805,114.427,22.473,115.488,22.473z"/>
	</g>
	<g>
		<path fill="#FFD75B" d="M104.836,16.806c-0.369,0.004-0.746-0.074-1.103-0.243c-1.278-0.598-1.825-2.116-1.227-3.388l5.319-10.053
			c0.596-1.279,2.117-1.825,3.396-1.23c1.279,0.6,1.827,2.122,1.227,3.4l-5.32,10.049C106.699,16.263,105.79,16.802,104.836,16.806z
			"/>
	</g>
	<g>
		<path fill="#FFD75B" d="M94.199,22.473c-0.275,0-0.555-0.048-0.828-0.142c-1.336-0.457-2.049-1.908-1.59-3.244l5.373-15.648
			c0.326-0.964,1.203-1.638,2.219-1.712c1.017-0.085,1.982,0.453,2.452,1.357l5.112,9.754c0.657,1.253,0.172,2.794-1.076,3.447
			c-1.25,0.654-2.796,0.17-3.448-1.077l-2.354-4.498l-3.445,10.035C96.25,21.805,95.258,22.473,94.199,22.473z"/>
	</g>
</g>
</svg>
