<?xml version="1.0" encoding="utf-8"?>
<!-- Generator: Adobe Illustrator 16.0.0, SVG Export Plug-In . SVG Version: 6.00 Build 0)  -->
<!DOCTYPE svg PUBLIC "-//W3C//DTD SVG 1.1//EN" "http://www.w3.org/Graphics/SVG/1.1/DTD/svg11.dtd">
<svg version="1.1" id="Layer_1" xmlns="http://www.w3.org/2000/svg" xmlns:xlink="http://www.w3.org/1999/xlink" x="0px" y="0px"
	 width="120.977px" height="66.877px" viewBox="0 39.487 120.977 66.877" enable-background="new 0 39.487 120.977 66.877"
	 xml:space="preserve">
<circle fill="#FB7066" cx="58.489" cy="71.926" r="23.241"/>
<g>
	<g>
		<g>
			<path fill="#DF98D5" d="M27.418,21.946c-0.376,0-0.759-0.09-1.112-0.27c-1.197-0.615-1.664-2.08-1.051-3.275L32.93,3.5
				c0.615-1.198,2.083-1.667,3.274-1.054c1.192,0.617,1.663,2.085,1.051,3.276l-7.676,14.903
				C29.147,21.464,28.299,21.946,27.418,21.946z"/>
		</g>
	</g>
	<g>
		<g>
			<path fill="#D6A5F8" d="M42.764,21.946c-0.881,0-1.73-0.481-2.162-1.319L32.929,5.723c-0.615-1.191-0.148-2.659,1.048-3.278
				c1.195-0.612,2.661-0.146,3.277,1.055l7.673,14.9c0.615,1.195,0.146,2.66-1.048,3.274C43.525,21.856,43.14,21.946,42.764,21.946z
				"/>
		</g>
	</g>
</g>
<g>
	<path fill="#F27D8A" d="M63.619,13.563c-0.33-0.664-0.795-1.24-1.39-1.715c-0.576-0.47-1.265-0.87-2.053-1.218
		c-0.101-0.074-0.202-0.15-0.313-0.214l0.015-0.021c-0.081-0.037-0.158-0.066-0.234-0.099c-0.01,0-0.016-0.005-0.021-0.011
		C58.922,10,58.317,9.805,57.454,9.52c-0.5-0.17-0.939-0.319-1.321-0.461c-0.377-0.145-0.697-0.291-0.951-0.453
		c-0.253-0.16-0.447-0.334-0.575-0.521c-0.129-0.188-0.191-0.41-0.191-0.661c0-0.257,0.061-0.473,0.18-0.65
		c0.118-0.178,0.279-0.326,0.478-0.436c0.202-0.107,0.438-0.188,0.698-0.24c0.267-0.049,0.549-0.074,0.852-0.074
		c0.292,0,0.58,0.043,0.864,0.129c0.281,0.09,0.55,0.197,0.809,0.33c0.257,0.133,0.493,0.281,0.718,0.445
		c0.225,0.163,0.428,0.323,0.609,0.477h0.007l0.021,0.02c0.188,0.153,0.394,0.268,0.604,0.352c0.934,0.369,2.041,0.106,2.704-0.719
		c0.809-1.018,0.645-2.498-0.369-3.308L62.29,3.513L61.94,3.252c-0.275-0.196-0.572-0.388-0.882-0.565
		c-0.739-0.414-1.488-0.715-2.252-0.899c-0.762-0.188-1.562-0.282-2.39-0.282c-1.104,0-2.107,0.137-3.004,0.405
		c-0.893,0.269-1.654,0.649-2.29,1.144c-0.636,0.493-1.125,1.084-1.467,1.781c-0.344,0.688-0.513,1.458-0.513,2.31
		c0,0.803,0.137,1.531,0.411,2.185c0.273,0.651,0.683,1.247,1.232,1.793c0.549,0.537,1.229,1.036,2.053,1.477
		c0.823,0.443,1.781,0.854,2.876,1.238c0.248,0.081,0.54,0.188,0.879,0.311c0.251,0.094,0.494,0.18,0.73,0.283
		c0.081,0.069,0.15,0.146,0.239,0.203l-0.02,0.031c0.312,0.176,0.574,0.373,0.788,0.596c0.215,0.225,0.32,0.479,0.32,0.762
		c0,0.254-0.041,0.496-0.114,0.725c-0.077,0.227-0.21,0.432-0.393,0.602c-0.184,0.174-0.43,0.312-0.747,0.422
		c-0.312,0.104-0.704,0.152-1.171,0.152c-0.5,0-0.979-0.086-1.438-0.26c-0.457-0.17-0.918-0.414-1.382-0.727
		c-0.312-0.207-0.589-0.422-0.829-0.637c-0.082-0.072-0.153-0.133-0.228-0.195h0.004l-0.396-0.391
		c-0.174-0.168-0.365-0.303-0.568-0.404c-0.896-0.457-2.021-0.301-2.761,0.463c-0.728,0.75-0.841,1.855-0.378,2.732
		c0.024,0.133,0.126,0.293,0.308,0.488c0.008,0.01,0.017,0.021,0.025,0.021c0.01,0.006,0.021,0.016,0.027,0.033
		c0.01,0.012,0.02,0.016,0.025,0.02c0.01,0.008,0.021,0.02,0.029,0.037l0.043,0.039c0.145,0.155,0.343,0.36,0.594,0.617
		c0.251,0.254,0.56,0.521,0.925,0.785c0.878,0.631,1.822,1.133,2.836,1.512c1.011,0.371,2.043,0.562,3.094,0.562
		c1.114,0,2.154-0.159,3.121-0.473c0.972-0.314,1.812-0.765,2.529-1.334c0.715-0.578,1.28-1.274,1.689-2.09
		c0.409-0.82,0.613-1.73,0.613-2.734C64.117,15.042,63.954,14.231,63.619,13.563z"/>
</g>
<path fill="#DF98D5" d="M23.024,9.377c-0.244-0.863-0.591-1.671-1.037-2.415c-0.444-0.748-0.981-1.421-1.61-2.026
	c-0.629-0.604-1.327-1.118-2.084-1.55c-0.763-0.435-1.58-0.769-2.457-1c-0.879-0.232-1.79-0.352-2.733-0.352H8.195L8.066,2.038
	c-0.54,0.014-1.032,0.215-1.429,0.525C6.056,3.011,5.674,3.707,5.674,4.495v15.119c0,0.664,0.268,1.264,0.697,1.703
	c0.428,0.455,1.026,0.748,1.694,0.764l0.129,0.006h4.906c0.943,0,1.856-0.105,2.738-0.343c0.883-0.229,1.704-0.556,2.466-0.979
	c0.76-0.422,1.452-0.938,2.077-1.537c0.623-0.603,1.163-1.273,1.61-2.019c0.451-0.746,0.798-1.545,1.041-2.403
	c0.243-0.854,0.363-1.763,0.363-2.718C23.397,11.146,23.274,10.24,23.024,9.377z M17.832,14.044
	c-0.248,0.604-0.591,1.129-1.026,1.574c-0.438,0.441-0.948,0.806-1.531,1.078c-0.586,0.271-1.214,0.438-1.89,0.492
	c-0.197,0.018-0.396,0.033-0.595,0.045c-0.197,0.016-1.81,0.021-2.019,0.021h-0.235V6.85h0.235l2.057,0.031
	c0.736,0,1.436,0.126,2.086,0.385c0.651,0.256,1.222,0.612,1.711,1.078c0.479,0.465,0.866,1.012,1.15,1.65
	c0.282,0.628,0.421,1.325,0.421,2.082C18.199,12.785,18.079,13.442,17.832,14.044z"/>
<g>
	<g>
		<path fill="#FB7066" d="M80.889,4.548c-0.186,1.329-1.411,2.257-2.74,2.069c-3.007-0.424-5.793,1.678-6.214,4.678
			c-0.424,3.005,1.678,5.793,4.679,6.211c1.332,0.188,2.258,1.423,2.073,2.749c-0.188,1.333-1.42,2.26-2.752,2.068
			c-5.654-0.795-9.61-6.047-8.818-11.701c0.798-5.66,6.046-9.616,11.708-8.825C80.154,1.987,81.079,3.217,80.889,4.548z"/>
	</g>
	<g>
		<path fill="#FFB660" d="M87.644,13.502c-0.796,5.661-6.047,9.616-11.709,8.821c-1.324-0.186-2.254-1.416-2.063-2.746
			c0.185-1.33,1.414-2.258,2.742-2.072c3.004,0.426,5.79-1.673,6.212-4.678c0.188-1.332,1.415-2.263,2.746-2.067
			C86.906,10.949,87.829,12.177,87.644,13.502z"/>
	</g>
	<g>
		<path fill="#FC8A64" d="M87.644,13.502c-0.188,1.331-1.416,2.263-2.748,2.071c-1.331-0.188-2.258-1.416-2.07-2.746
			c0.424-3.003-1.678-5.79-4.677-6.211c-1.333-0.188-2.259-1.419-2.07-2.747c0.185-1.331,1.414-2.257,2.746-2.073
			C84.48,2.595,88.439,7.846,87.644,13.502z"/>
	</g>
</g>
<g>
	<g>
		<path fill="#FFB660" d="M112.869,21.978c0.265,0,0.53-0.045,0.791-0.136c1.271-0.435,1.946-1.815,1.509-3.09l-5.113-14.901
			c-0.314-0.918-1.146-1.562-2.113-1.631c-0.973-0.08-1.892,0.432-2.34,1.293l1.688,7.263l3.277,9.558
			C110.915,21.341,111.859,21.978,112.869,21.978z"/>
	</g>
	<g>
		<path fill="#FFD75B" d="M102.723,16.58c-0.351,0.004-0.71-0.069-1.05-0.231c-1.217-0.568-1.738-2.016-1.168-3.228l5.064-9.574
			c0.568-1.218,2.018-1.737,3.235-1.171c1.218,0.57,1.74,2.021,1.169,3.237l-5.068,9.569
			C104.498,16.062,103.633,16.576,102.723,16.58z"/>
	</g>
	<g>
		<path fill="#FFD75B" d="M92.594,21.978c-0.262,0-0.528-0.045-0.789-0.136c-1.271-0.435-1.95-1.815-1.514-3.09l5.116-14.901
			c0.312-0.918,1.146-1.562,2.112-1.631c0.969-0.08,1.89,0.432,2.336,1.293l4.869,9.291c0.626,1.191,0.164,2.659-1.023,3.281
			c-1.19,0.623-2.663,0.162-3.284-1.025l-2.242-4.284l-3.282,9.558C94.547,21.341,93.601,21.978,92.594,21.978z"/>
	</g>
</g>
<g>
	<path fill="#F27D8A" d="M63.619,74.137c-0.33-0.664-0.795-1.24-1.39-1.715c-0.576-0.47-1.265-0.87-2.053-1.218
		c-0.101-0.074-0.202-0.15-0.313-0.214l0.015-0.021c-0.081-0.037-0.158-0.066-0.234-0.099c-0.01,0-0.016-0.005-0.021-0.011
		c-0.701-0.287-1.307-0.482-2.169-0.768c-0.5-0.17-0.939-0.319-1.321-0.461c-0.377-0.145-0.697-0.291-0.951-0.453
		c-0.253-0.16-0.447-0.334-0.575-0.521c-0.129-0.188-0.191-0.41-0.191-0.661c0-0.257,0.061-0.473,0.18-0.65
		c0.118-0.178,0.279-0.326,0.478-0.436c0.202-0.107,0.438-0.188,0.698-0.24c0.267-0.049,0.549-0.074,0.852-0.074
		c0.292,0,0.58,0.043,0.864,0.129c0.281,0.09,0.55,0.197,0.809,0.33c0.257,0.133,0.493,0.281,0.718,0.445
		c0.225,0.163,0.428,0.323,0.609,0.477h0.007l0.021,0.02c0.188,0.153,0.394,0.268,0.604,0.352c0.934,0.369,2.041,0.106,2.704-0.719
		c0.809-1.018,0.645-2.498-0.369-3.308l-0.299-0.236l-0.351-0.261c-0.275-0.196-0.572-0.388-0.882-0.565
		c-0.739-0.414-1.488-0.715-2.252-0.899c-0.762-0.188-1.562-0.282-2.39-0.282c-1.104,0-2.107,0.137-3.004,0.405
		c-0.893,0.269-1.654,0.649-2.29,1.144c-0.636,0.493-1.125,1.084-1.467,1.781c-0.344,0.688-0.513,1.458-0.513,2.31
		c0,0.803,0.137,1.531,0.411,2.185c0.273,0.651,0.683,1.247,1.232,1.793c0.549,0.537,1.229,1.036,2.053,1.477
		c0.823,0.443,1.781,0.854,2.876,1.238c0.248,0.081,0.54,0.188,0.879,0.311c0.251,0.094,0.494,0.18,0.73,0.283
		c0.081,0.069,0.15,0.146,0.239,0.203l-0.02,0.031c0.312,0.176,0.574,0.373,0.788,0.596c0.215,0.225,0.32,0.479,0.32,0.762
		c0,0.254-0.041,0.496-0.114,0.725c-0.077,0.227-0.21,0.432-0.393,0.602c-0.184,0.174-0.43,0.312-0.747,0.422
		c-0.312,0.104-0.704,0.152-1.171,0.152c-0.5,0-0.979-0.086-1.438-0.26c-0.457-0.17-0.918-0.414-1.382-0.727
		c-0.312-0.207-0.589-0.422-0.829-0.637c-0.082-0.072-0.153-0.133-0.228-0.195h0.004l-0.396-0.391
		c-0.174-0.168-0.365-0.303-0.568-0.404c-0.896-0.457-2.021-0.301-2.761,0.463c-0.728,0.75-0.841,1.855-0.378,2.732
		c0.024,0.133,0.126,0.293,0.308,0.488c0.008,0.01,0.017,0.021,0.025,0.021c0.01,0.006,0.021,0.016,0.027,0.033
		c0.01,0.012,0.02,0.016,0.025,0.02c0.01,0.008,0.021,0.02,0.029,0.037l0.043,0.039c0.145,0.155,0.343,0.36,0.594,0.617
		c0.251,0.254,0.56,0.521,0.925,0.785c0.878,0.631,1.822,1.133,2.836,1.512c1.011,0.371,2.043,0.562,3.094,0.562
		c1.114,0,2.154-0.159,3.121-0.473c0.972-0.314,1.812-0.765,2.529-1.334c0.715-0.578,1.28-1.274,1.689-2.09
		c0.409-0.82,0.613-1.73,0.613-2.734C64.117,75.615,63.954,74.805,63.619,74.137z"/>
</g>
<g>
	<defs>
		<circle id="SVGID_1_" cx="58.489" cy="71.926" r="23.241"/>
	</defs>
	<clipPath id="SVGID_2_">
		<use xlink:href="#SVGID_1_"  overflow="visible"/>
	</clipPath>
	<path clip-path="url(#SVGID_2_)" fill="#684B40" d="M59.114,55.431c0,0-16.423,0.317-16.845,16.944
		c-0.421,16.629,0.892,18.938-8.491,23.996c0,0,9.369,8.584,23.576,1.13C71.564,90.044,59.114,55.431,59.114,55.431z"/>
	<rect x="58.386" y="85.665" clip-path="url(#SVGID_2_)" fill="#FFE2CF" width="3.671" height="4.037"/>
	<path clip-path="url(#SVGID_2_)" fill="#FFE2CF" d="M72.101,99.125c0.406-0.639,0.207-1.528-0.432-1.934
		c-0.316-0.201-0.69-0.268-1.056-0.185l-4.226-2.55l-0.595,1.538c-0.043,0.069-0.058,0.155-0.041,0.236
		c0.003,0.005,0.006,0.008,0.008,0.013c0.001,0.012-0.002,0.021,0.001,0.032c0.014,0.062,0.045,0.118,0.089,0.161
		c0.016,0.016,0.034,0.03,0.054,0.041l3.692,2.343c0.067,0.206,0.179,0.396,0.341,0.554c0.07,0.069,0.146,0.131,0.229,0.183
		C70.821,99.973,71.688,99.779,72.101,99.125z"/>
	<path clip-path="url(#SVGID_2_)" fill="#CC8BC6" d="M66.188,92.175c-0.707-1.058-1.979-1.461-2.884-0.898
		c-0.904,0.565-1.101,1.886-0.459,2.986l-0.005,0.001l1.532,2.453l3.348-2.091l-1.529-2.453L66.188,92.175z"/>
	<path clip-path="url(#SVGID_2_)" fill="#FFE2CF" d="M78.038,71.867c0-7.629-6.185-13.814-13.815-13.814
		c-9.862,0-15.512,5.28-16.318,12.1c-0.089-0.011-0.175-0.027-0.264-0.027c-1.409,0-2.551,1.141-2.551,2.55
		c0,1.407,1.142,2.548,2.551,2.548c0.051,0,0.1-0.013,0.15-0.014l0.421,5.326c0,0,1.18,1.03,4.846,3.562
		c4.322,2.985,12.516,1.587,12.516,1.587h0.002C72.564,84.999,78.038,79.038,78.038,71.867z"/>
	<path clip-path="url(#SVGID_2_)" fill="#DF98D5" d="M66.148,95.394c-0.124-3.388-2.902-6.099-6.321-6.099
		c-3.416,0-6.196,2.711-6.319,6.099h-0.014v3.472h12.665v-3.472H66.148z"/>
	<path opacity="0.3" clip-path="url(#SVGID_2_)" fill="#CECECE" d="M59.947,89.195l-2.821-1.629c-0.093-0.055-0.207-0.055-0.301,0
		c-0.092,0.054-0.148,0.152-0.148,0.26v3.257c0,0.106,0.057,0.206,0.148,0.26c0.046,0.026,0.099,0.04,0.15,0.04
		c0.052,0,0.103-0.014,0.15-0.04l2.821-1.629c0.093-0.052,0.149-0.153,0.149-0.259C60.096,89.348,60.039,89.249,59.947,89.195z"/>
	<path opacity="0.3" clip-path="url(#SVGID_2_)" fill="#CECECE" d="M60.246,89.195l2.819-1.629c0.094-0.055,0.208-0.055,0.3,0
		c0.094,0.054,0.15,0.152,0.15,0.26v3.257c0,0.106-0.057,0.206-0.15,0.26c-0.047,0.026-0.099,0.04-0.15,0.04
		c-0.051,0-0.104-0.014-0.149-0.04l-2.819-1.629c-0.094-0.052-0.15-0.153-0.15-0.259C60.096,89.348,60.153,89.249,60.246,89.195z"/>
	<path clip-path="url(#SVGID_2_)" fill="#D6A5F8" d="M60.022,88.878l-2.821-1.629c-0.094-0.052-0.208-0.052-0.301,0
		c-0.092,0.054-0.148,0.153-0.148,0.26v3.257c0,0.107,0.057,0.206,0.148,0.26c0.048,0.027,0.099,0.04,0.15,0.04
		c0.052,0,0.104-0.013,0.151-0.04l2.821-1.629c0.092-0.052,0.149-0.152,0.149-0.26C60.171,89.031,60.114,88.932,60.022,88.878z"/>
	<path clip-path="url(#SVGID_2_)" fill="#D6A5F8" d="M60.322,88.878l2.817-1.629c0.096-0.052,0.209-0.052,0.302,0
		c0.094,0.054,0.15,0.153,0.15,0.26v3.257c0,0.107-0.057,0.206-0.15,0.26c-0.046,0.027-0.097,0.04-0.149,0.04
		c-0.052,0-0.103-0.013-0.152-0.04l-2.817-1.629c-0.094-0.052-0.15-0.152-0.15-0.26C60.171,89.031,60.228,88.932,60.322,88.878z"/>
	<path opacity="0.7" clip-path="url(#SVGID_2_)" fill="#CECECE" d="M63.258,97.283c-0.158-0.738-0.923-1.237-1.664-1.081
		c-0.365,0.079-0.682,0.295-0.885,0.609l-2.021,0.429l-0.654-3.073c-0.036-0.169-0.203-0.277-0.372-0.242l-1.875,0.399
		c-0.081,0.017-0.153,0.065-0.198,0.136c-0.046,0.069-0.062,0.154-0.044,0.235l1.013,4.765c0.017,0.079,0.066,0.15,0.135,0.198
		c0.005,0.003,0.011,0.001,0.016,0.003c0.009,0.008,0.014,0.017,0.023,0.022c0.054,0.034,0.115,0.053,0.176,0.053
		c0.023,0,0.044-0.002,0.413-0.008l4.276-0.909c-0.154,0.099,0.061,0.157,0.287,0.157c0.098,0,0.195-0.011,0.292-0.031
		C62.932,98.786,63.416,98.04,63.258,97.283z"/>
	<path opacity="0.7" clip-path="url(#SVGID_2_)" fill="#CECECE" d="M59.023,93.197c-0.038-1.272-0.904-2.29-1.971-2.29
		c-1.065,0-1.933,1.018-1.97,2.29h-0.004v2.889h3.948v-2.889H59.023z"/>
	<path clip-path="url(#SVGID_2_)" fill="#FFE2CF" d="M62.91,97.099c-0.158-0.739-0.922-1.238-1.664-1.082
		c-0.365,0.08-0.68,0.297-0.884,0.609l-2.02,0.43l-0.654-3.074c-0.037-0.169-0.203-0.276-0.373-0.241l-1.874,0.397
		c-0.08,0.018-0.152,0.066-0.198,0.137c-0.044,0.069-0.061,0.155-0.044,0.236l1.013,4.764c0.019,0.081,0.067,0.151,0.137,0.197
		c0.004,0.003,0.009,0.002,0.015,0.005c0.008,0.006,0.012,0.017,0.021,0.021c0.054,0.034,0.115,0.054,0.178,0.054
		c0.023,0,0.046-0.001,0.066-0.008l4.277-0.908c0.191,0.098,0.406,0.156,0.632,0.156c0.097,0,0.196-0.011,0.292-0.03
		C62.587,98.601,63.071,97.854,62.91,97.099z"/>
	<path clip-path="url(#SVGID_2_)" fill="#E5AEE0" d="M58.733,92.994c-0.039-1.272-0.904-2.29-1.969-2.29
		c-1.065,0-1.933,1.018-1.971,2.29h-0.003v2.891h3.948v-2.891H58.733z"/>
	<path clip-path="url(#SVGID_2_)" fill="#684B40" d="M53.546,65.755c0,0-2.699,4.376-5.641,4.397c0,0-0.785-0.239-1.449,0.265
		c-0.663,0.503-0.327-10.944,10.924-13.679L53.546,65.755z"/>
	<path clip-path="url(#SVGID_2_)" fill="#91756B" d="M69.137,62.756c0,0,3.507-0.132,5.797,3.295
		C78.365,71.188,77.3,76.34,77.3,76.34s2.97-7.863-0.059-13.865c-1.595-3.157-5.18-4.317-8.104-3.518"/>
	<path opacity="0.2" clip-path="url(#SVGID_2_)" fill="#FC8A64" d="M62.125,76.34c0,0.507-0.412,0.92-0.92,0.92h-2.839
		c-0.508,0-0.921-0.413-0.921-0.92l0,0c0-0.508,0.413-0.921,0.921-0.921h2.839C61.713,75.419,62.125,75.832,62.125,76.34
		L62.125,76.34z"/>
	<path opacity="0.2" clip-path="url(#SVGID_2_)" fill="#FC8A64" d="M74.823,76.34c0,0.507-0.413,0.92-0.92,0.92h-2.841
		c-0.509,0-0.918-0.413-0.918-0.92l0,0c0-0.508,0.409-0.921,0.918-0.921h2.841C74.409,75.419,74.823,75.832,74.823,76.34
		L74.823,76.34z"/>
	<path opacity="0.4" clip-path="url(#SVGID_2_)" fill="#664A3D" d="M56.973,70.81c0,0,4.591-8.147,11.959-8.147l-1.634-2.657
		l-5.144-1.292l-5.001,3.949L56.973,70.81z"/>
	<path clip-path="url(#SVGID_2_)" fill="#775A51" d="M69.137,58.957v3.799c-8.18-3.878-12.802,9.127-13.655,12.04
		c-1.438,4.907-5.627,11.448-12.226,7.087c0,0,5.363-0.628,4.067-5.221c-2.011-7.13,0.468-17.854,9.529-20.904
		C66.961,52.354,69.137,58.957,69.137,58.957z"/>
	<path clip-path="url(#SVGID_2_)" fill-rule="evenodd" clip-rule="evenodd" fill="#FFFFFF" d="M78.973,94.524
		c0.051,0.315-0.215,0.613-0.521,0.588C78.421,94.824,78.654,94.564,78.973,94.524z"/>
	
		<rect x="82.493" y="81.24" transform="matrix(0.833 0.5533 -0.5533 0.833 59.1127 -32.2842)" clip-path="url(#SVGID_2_)" fill="#F27D8A" width="1.089" height="1.087"/>
	
		<rect x="80.919" y="86.816" transform="matrix(0.7128 0.7014 -0.7014 0.7128 84.8064 -32.1035)" clip-path="url(#SVGID_2_)" fill="#FFB660" width="1.367" height="1.367"/>
	
		<rect x="84.89" y="76.984" transform="matrix(0.2352 0.972 -0.972 0.2352 140.6747 -23.7394)" clip-path="url(#SVGID_2_)" fill="#DF98D5" width="1.063" height="1.064"/>
	<circle clip-path="url(#SVGID_2_)" fill="#D6A5F8" cx="87.236" cy="80.189" r="0.735"/>
	<path clip-path="url(#SVGID_2_)" fill="#775A51" d="M63.014,75.192c0.368,0,0.664-0.297,0.664-0.665v-0.496
		c0-0.365-0.296-0.664-0.664-0.664l0,0c-0.367,0-0.664,0.299-0.664,0.664v0.496C62.35,74.896,62.647,75.192,63.014,75.192
		L63.014,75.192z"/>
	<path clip-path="url(#SVGID_2_)" fill="#775A51" d="M70.066,75.192c0.366,0,0.664-0.297,0.664-0.665v-0.496
		c0-0.365-0.298-0.664-0.664-0.664l0,0c-0.367,0-0.665,0.299-0.665,0.664v0.496C69.401,74.896,69.698,75.192,70.066,75.192
		L70.066,75.192z"/>
	<path clip-path="url(#SVGID_2_)" fill="#FB7066" d="M66.572,80.632c-1.641,0-2.977-1.334-2.977-2.974
		c0-0.229,0.188-0.414,0.415-0.414c0.227,0,0.413,0.186,0.413,0.414c0,1.184,0.964,2.147,2.148,2.147
		c1.184,0,2.146-0.964,2.146-2.147c0-0.229,0.186-0.414,0.414-0.414c0.228,0,0.413,0.186,0.413,0.414
		C69.545,79.298,68.211,80.632,66.572,80.632z"/>
	<circle opacity="0.6" clip-path="url(#SVGID_2_)" fill="#FC8A64" cx="66.757" cy="75.791" r="0.599"/>
</g>
<path fill="#D6A5F8" d="M88.725-71.337c0,0-25.758,0.499-26.418,26.577c-0.662,26.078,1.398,29.699-13.318,37.635
	c0,0,14.693,13.463,36.979,1.771C108.251-17.048,88.725-71.337,88.725-71.337z"/>
<rect x="87.584" y="-23.918" fill="#D6A5F8" width="5.758" height="6.334"/>
<path fill="#D6A5F8" d="M109.096-2.805c0.637-1.002,0.324-2.398-0.678-3.035c-0.496-0.314-1.084-0.418-1.656-0.289l-6.629-3.998
	l-0.93,2.412c-0.069,0.109-0.093,0.244-0.065,0.371c0.003,0.007,0.009,0.012,0.012,0.02c0.003,0.018-0.003,0.033,0.003,0.051
	c0.021,0.096,0.068,0.186,0.139,0.254c0.025,0.023,0.054,0.046,0.085,0.064l5.788,3.673c0.107,0.321,0.283,0.621,0.537,0.868
	c0.109,0.109,0.23,0.205,0.361,0.287C107.086-1.477,108.447-1.781,109.096-2.805z"/>
<path fill="#D6A5F8" d="M99.821-13.707c-1.109-1.658-3.105-2.291-4.523-1.407s-1.726,2.956-0.721,4.681l-0.005,0.003l2.401,3.847
	l5.252-3.279l-2.4-3.846L99.821-13.707z"/>
<path fill="#D6A5F8" d="M118.407-45.557c0-11.967-9.7-21.668-21.668-21.668c-15.468,0-24.329,8.282-25.595,18.978
	c-0.139-0.017-0.273-0.043-0.414-0.043c-2.209,0-4,1.79-4,3.999c0,2.208,1.791,3.998,4,3.998c0.082,0,0.158-0.02,0.238-0.023
	l0.658,8.354c0,0,1.852,1.615,7.601,5.586c6.78,4.682,19.63,2.489,19.63,2.489h0.003C109.823-24.963,118.407-34.311,118.407-45.557z
	"/>
<path fill="#D6A5F8" d="M99.758-8.658c-0.195-5.314-4.553-9.564-9.913-9.564s-9.719,4.25-9.913,9.564h-0.02v5.445h19.863v-5.445
	H99.758z"/>
<path opacity="0.3" fill="#D6A5F8" d="M90.031-18.38l-4.424-2.555c-0.146-0.085-0.325-0.085-0.471,0
	c-0.145,0.085-0.234,0.239-0.234,0.407v5.107c0,0.168,0.09,0.324,0.234,0.407c0.072,0.043,0.153,0.063,0.235,0.063
	c0.081,0,0.161-0.021,0.235-0.063l4.424-2.554c0.145-0.082,0.234-0.24,0.234-0.406C90.266-18.141,90.176-18.295,90.031-18.38z"/>
<path opacity="0.3" fill="#D6A5F8" d="M90.501-18.38l4.423-2.555c0.146-0.085,0.324-0.085,0.471,0
	c0.146,0.085,0.235,0.239,0.235,0.407v5.107c0,0.168-0.09,0.324-0.235,0.407c-0.073,0.043-0.154,0.063-0.236,0.063
	c-0.08,0-0.161-0.021-0.234-0.063l-4.423-2.554c-0.146-0.082-0.235-0.24-0.235-0.406C90.266-18.141,90.356-18.295,90.501-18.38z"/>
<path fill="#D6A5F8" d="M90.149-18.877l-4.424-2.555c-0.146-0.084-0.324-0.084-0.47,0s-0.235,0.24-0.235,0.406v5.107
	c0,0.17,0.09,0.324,0.235,0.408c0.073,0.043,0.153,0.062,0.234,0.062c0.082,0,0.163-0.02,0.235-0.062l4.424-2.555
	c0.146-0.082,0.235-0.238,0.235-0.406S90.295-18.794,90.149-18.877z"/>
<path fill="#D6A5F8" d="M90.619-18.877l4.422-2.555c0.146-0.084,0.326-0.084,0.472,0s0.235,0.24,0.235,0.406v5.107
	c0,0.17-0.09,0.324-0.235,0.408c-0.073,0.043-0.153,0.062-0.235,0.062c-0.081,0-0.162-0.02-0.236-0.062l-4.422-2.555
	c-0.146-0.082-0.235-0.238-0.235-0.406S90.473-18.794,90.619-18.877z"/>
<path opacity="0.7" fill="#D6A5F8" d="M95.225-5.693c-0.248-1.16-1.447-1.941-2.609-1.695c-0.574,0.121-1.067,0.461-1.387,0.953
	l-3.17,0.673l-1.025-4.819c-0.057-0.266-0.318-0.436-0.584-0.38l-2.94,0.625c-0.126,0.027-0.238,0.104-0.31,0.214
	c-0.072,0.109-0.096,0.242-0.068,0.369l1.588,7.472c0.027,0.128,0.104,0.238,0.213,0.312c0.007,0.004,0.016,0.002,0.022,0.006
	c0.015,0.011,0.022,0.025,0.036,0.035c0.084,0.054,0.18,0.082,0.277,0.082c0.037,0,0.07-0.004,0.648-0.012l6.707-1.426
	c-0.242,0.155,0.094,0.246,0.448,0.246c0.153,0,0.308-0.017,0.458-0.048C94.715-3.338,95.475-4.509,95.225-5.693z"/>
<path opacity="0.7" fill="#D6A5F8" d="M88.582-12.104c-0.061-1.996-1.418-3.592-3.09-3.592s-3.03,1.596-3.09,3.592h-0.006v4.531
	h6.191v-4.531H88.582z"/>
<path fill="#D6A5F8" d="M94.681-5.984c-0.247-1.16-1.446-1.941-2.608-1.695c-0.574,0.123-1.066,0.463-1.387,0.955l-3.17,0.673
	l-1.025-4.821c-0.057-0.265-0.318-0.434-0.584-0.378l-2.939,0.625c-0.127,0.026-0.239,0.103-0.311,0.212
	c-0.07,0.109-0.096,0.244-0.069,0.371l1.589,7.471c0.028,0.129,0.105,0.239,0.213,0.311c0.008,0.004,0.016,0.003,0.023,0.007
	c0.014,0.011,0.021,0.026,0.035,0.035c0.084,0.054,0.18,0.082,0.277,0.082c0.037,0,0.072-0.003,0.105-0.012l6.707-1.425
	c0.301,0.154,0.637,0.246,0.991,0.246c0.153,0,0.308-0.018,0.458-0.049C94.172-3.629,94.932-4.799,94.681-5.984z"/>
<path fill="#D6A5F8" d="M88.129-12.422c-0.061-1.994-1.418-3.59-3.09-3.59s-3.03,1.596-3.09,3.59h-0.006v4.533h6.191v-4.533H88.129z
	"/>
<path fill="#D6A5F8" d="M79.992-55.145c0,0-4.23,6.865-8.848,6.897c0,0-1.23-0.374-2.271,0.415s-0.512-17.165,17.135-21.454
	L79.992-55.145z"/>
<path fill="#D6A5F8" d="M104.448-59.849c0,0,5.5-0.206,9.092,5.169c5.38,8.059,3.709,16.137,3.709,16.137s4.658-12.333-0.092-21.744
	c-2.5-4.952-8.121-6.773-12.709-5.52"/>
<path opacity="0.2" fill="#D6A5F8" d="M93.448-38.543c0,0.797-0.645,1.443-1.441,1.443h-4.454c-0.796,0-1.442-0.646-1.442-1.443l0,0
	c0-0.797,0.646-1.442,1.442-1.442h4.454C92.803-39.985,93.448-39.34,93.448-38.543L93.448-38.543z"/>
<path opacity="0.2" fill="#D6A5F8" d="M113.362-38.543c0,0.797-0.646,1.443-1.441,1.443h-4.454c-0.798,0-1.442-0.646-1.442-1.443
	l0,0c0-0.797,0.645-1.442,1.442-1.442h4.454C112.715-39.985,113.362-39.34,113.362-38.543L113.362-38.543z"/>
<path opacity="0.4" fill="#D6A5F8" d="M85.367-47.217c0,0,7.203-12.777,18.758-12.777l-2.561-4.168l-8.067-2.027l-7.845,6.195
	L85.367-47.217z"/>
<path fill="#D6A5F8" d="M104.448-65.807v5.958C91.615-65.928,84.369-45.533,83.03-40.963c-2.256,7.697-8.826,17.953-19.177,11.114
	c0,0,8.413-0.984,6.382-8.187C67.08-49.22,70.969-66.039,85.178-70.822C101.035-76.164,104.448-65.807,104.448-65.807z"/>
<path fill-rule="evenodd" clip-rule="evenodd" fill="#D6A5F8" d="M119.873-10.021c0.08,0.492-0.337,0.96-0.817,0.921
	C119.009-9.551,119.371-9.959,119.873-10.021z"/>
<rect x="125.396" y="-30.858" transform="matrix(0.8333 0.5528 -0.5528 0.8333 4.46 -74.7993)" fill="#D6A5F8" width="1.706" height="1.706"/>
<rect x="122.926" y="-22.111" transform="matrix(0.7135 0.7007 -0.7007 0.7135 20.7896 -92.9146)" fill="#D6A5F8" width="2.145" height="2.146"/>
<rect x="129.153" y="-37.531" transform="matrix(0.2348 0.972 -0.972 0.2348 63.7937 -154.4326)" fill="#D6A5F8" width="1.668" height="1.668"/>
<circle fill="#D6A5F8" cx="132.834" cy="-32.505" r="1.152"/>
<path fill="#D6A5F8" d="M94.842-40.342c0.577,0,1.043-0.467,1.043-1.043v-0.777c0-0.574-0.466-1.043-1.043-1.043l0,0
	c-0.575,0-1.041,0.469-1.041,1.043v0.777C93.801-40.809,94.267-40.342,94.842-40.342L94.842-40.342z"/>
<path fill="#D6A5F8" d="M105.903-40.342c0.575,0,1.043-0.467,1.043-1.043v-0.777c0-0.574-0.468-1.043-1.043-1.043l0,0
	c-0.576,0-1.043,0.469-1.043,1.043v0.777C104.86-40.809,105.326-40.342,105.903-40.342L105.903-40.342z"/>
<path fill="#D6A5F8" d="M100.422-31.811c-2.572,0-4.666-2.092-4.666-4.664c0-0.358,0.291-0.648,0.648-0.648
	c0.358,0,0.648,0.29,0.648,0.648c0,1.857,1.511,3.369,3.369,3.369c1.857,0,3.368-1.512,3.368-3.369c0-0.358,0.29-0.648,0.647-0.648
	s0.648,0.29,0.648,0.648C105.086-33.902,102.993-31.811,100.422-31.811z"/>
<circle opacity="0.6" fill="#D6A5F8" cx="100.714" cy="-39.403" r="0.938"/>
</svg>
