<?xml version="1.0" encoding="utf-8"?>
<!-- Generator: Adobe Illustrator 16.0.0, SVG Export Plug-In . SVG Version: 6.00 Build 0)  -->
<!DOCTYPE svg PUBLIC "-//W3C//DTD SVG 1.1//EN" "http://www.w3.org/Graphics/SVG/1.1/DTD/svg11.dtd">
<svg version="1.1" id="Layer_1" xmlns="http://www.w3.org/2000/svg" xmlns:xlink="http://www.w3.org/1999/xlink" x="0px" y="0px"
	 width="175.043px" height="58.253px" viewBox="3.249 0 175.043 58.253" enable-background="new 3.249 0 175.043 58.253"
	 xml:space="preserve">
<g>
	<g>
		<path fill="#545454" stroke="#FFFFFF" stroke-width="1.5247" stroke-linejoin="round" stroke-miterlimit="10" d="M144.719-37.469
			c-0.508-1.134-1.84-1.647-2.973-1.14c-0.818,0.363-3.455,1.59-5.988,3.292c-1.613-1.379-4.078-2.455-7.721-2.455
			c-3.646,0-6.178,1.032-7.891,2.227c-1.729-1.216-4.188-2.227-7.627-2.227c-3.676,0-6.096,1.103-7.621,2.475
			c-1.523-1.371-3.941-2.474-7.619-2.474c-5.121,0-8.06,2.466-9.501,4.746c-0.088-0.088-0.162-0.18-0.248-0.267
			c-3.096-3.022-6.918-4.533-11.471-4.533c-4.259,0-7.871,1.339-10.854,3.979c-3.316,1.661-7.431-0.61-9.265-1.687
			c-0.021-0.013-0.042-0.014-0.062-0.025c-0.9-0.512-1.871-0.948-2.929-1.305c-1.927-0.643-3.869-0.967-5.824-0.967
			c-3.035,0-5.583,0.768-7.642,2.3c-2.058,1.535-3.085,3.717-3.085,6.548c0,2.832,0.903,4.936,2.713,6.31
			c0.907,0.728,1.941,1.317,3.111,1.771c1.166,0.452,2.872,0.948,5.121,1.488c2.247,0.543,3.83,1.141,4.75,1.794
			c0.921,0.656,1.38,1.577,1.38,2.76c0,1.182-0.489,2.132-1.467,2.844c-0.979,0.719-2.299,1.073-3.964,1.073
			c-3.326,0-6.537-1.342-9.631-4.022l-0.01,0.016c-0.456-0.441-1.073-0.717-1.756-0.717c-1.395,0-2.524,1.135-2.524,2.526
			c0,0.851,0.423,1.598,1.068,2.055l-0.015,0.018c3.706,3.3,7.954,4.947,12.741,4.947c3.268,0,5.911-0.828,7.923-2.493
			c2.016-1.665,3.023-3.836,3.023-6.504c0-2.672-0.796-4.693-2.387-6.062c-1.593-1.375-3.957-2.438-7.094-3.197
			c-3.139-0.761-5.188-1.468-6.15-2.123c-0.965-0.654-1.445-1.604-1.445-2.847c0-1.237,0.48-2.172,1.445-2.78
			c0.963-0.611,2.195-0.917,3.698-0.917c1.504,0,3.067,0.163,4.579,0.782c0.844,0.35,1.741,0.748,2.492,1.096
			c0.038,0.021,4.819,2.229,7.333,2.489c-0.913,2.015-1.384,4.234-1.384,6.688c0,4.512,1.546,8.276,4.64,11.294
			c3.093,3.024,6.917,4.535,11.472,4.535c4.552,0,8.375-1.511,11.472-4.535c3.09-3.018,4.635-6.782,4.635-11.294
			c0-2.521-0.5-4.8-1.467-6.854c0.187-0.233,0.344-0.495,0.428-0.804c0.101-0.37,1.129-3.618,6.149-3.618
			c2.316,0,3.521,0.333,4.277,0.912c-3.597,3.196-4.386,10.146-4.334,13.544l0.006,0.851c-0.002,2.684-0.002,11.451,7.112,11.525
			c0.013,0,0.08,0,0.089,0c3.069,0,5.325-1.72,6.358-4.844c0.719-2.171,0.715-5.222,0.715-6.817l0.006-0.721
			c0.048-3.161,0.142-9.133-2.935-12.246c-0.271-0.271-0.561-0.512-0.864-0.723c0.647-0.698,1.996-1.483,4.808-1.483
			c2.017,0,3.494,0.487,4.562,1.103c-0.014,0.028-0.033,0.063-0.043,0.089c-4.471,2.417-4.375,9.897-4.324,13.269l0.008,0.851
			c-0.004,2.684-0.006,11.452,7.113,11.525c0.014,0,0.078,0,0.09,0c3.068,0,5.322-1.72,6.355-4.844
			c0.719-2.171,0.715-5.222,0.715-6.816l0.01-0.722c0.043-3.161,0.139-9.133-2.936-12.246c-0.113-0.114-0.248-0.202-0.367-0.306
			c-0.002-0.005-0.004-0.014-0.006-0.021c-0.021-0.055-0.158-0.362-0.418-0.812c1.062-0.587,2.59-1.07,4.756-1.07
			c1.979,0,3.291,0.398,4.162,0.904c-0.373,0.413-0.723,0.835-1,1.268c-3.125,3.155-3.033,9.287-2.99,12.285l0.008,0.851
			c-0.004,2.683-0.006,11.45,7.113,11.525c0.01,0,0.08,0,0.088,0c3.07,0,5.326-1.72,6.359-4.844
			c0.717-2.172,0.715-5.222,0.715-6.817l0.006-0.723c0.045-3.16,0.137-9.132-2.936-12.245c-0.283-0.289-0.59-0.538-0.914-0.756
			c1.627-1.049,3.463-2.025,4.928-2.677C144.713-34.999,145.221-36.328,144.719-37.469z M83.743-14.128
			c-2.087,2.155-4.649,3.236-7.683,3.236c-3.037,0-5.599-1.083-7.686-3.236c-2.088-2.162-3.131-4.781-3.131-7.862
			c0-3.08,1.043-5.697,3.131-7.859c2.087-2.154,4.648-3.236,7.686-3.236c3.033,0,5.596,1.082,7.683,3.236
			c2.087,2.162,3.134,4.78,3.134,7.859C86.878-18.91,85.83-16.292,83.743-14.128z M107.018-18.877l-0.012,0.919
			c0,1.264,0.002,3.787-0.486,5.268c-0.484,1.462-1.158,1.754-2.088,1.754h-0.035c-1.646-0.017-2.664-1.707-2.664-7.158
			l-0.012-0.776c-0.111-8.252,1.396-9.396,2.709-9.415c0.4,0,0.672,0.109,0.945,0.387C107.127-26.125,107.043-20.82,107.018-18.877z
			 M122.51-18.877l-0.012,0.919c0,1.264,0.004,3.787-0.486,5.268c-0.482,1.462-1.154,1.754-2.084,1.754h-0.041
			c-1.645-0.017-2.664-1.707-2.662-7.158l-0.01-0.776c-0.115-8.252,1.395-9.396,2.709-9.415c0.4,0,0.672,0.109,0.943,0.387
			C122.62-26.125,122.536-20.82,122.51-18.877z M138.002-18.877l-0.01,0.919c0,1.264,0.002,3.787-0.486,5.268
			c-0.484,1.462-1.158,1.754-2.088,1.754h-0.037c-1.646-0.017-2.664-1.707-2.662-7.158l-0.012-0.776
			c-0.08-5.729,0.625-7.715,1.502-8.772c0.121-0.098,0.23-0.196,0.332-0.315c0.289-0.227,0.588-0.318,0.875-0.324
			c0.398,0,0.672,0.111,0.941,0.387C138.112-26.125,138.028-20.82,138.002-18.877z"/>
		
			<circle fill="#545454" stroke="#FFFFFF" stroke-width="1.5247" stroke-linejoin="round" stroke-miterlimit="10" cx="36.677" cy="-13.159" r="2.572"/>
		
			<circle fill="#545454" stroke="#FFFFFF" stroke-width="1.5247" stroke-linejoin="round" stroke-miterlimit="10" cx="89.519" cy="-31.731" r="2.569"/>
		
			<circle fill="#545454" stroke="#FFFFFF" stroke-width="1.5247" stroke-linejoin="round" stroke-miterlimit="10" cx="150.165" cy="-39.838" r="2.573"/>
		<path fill="#545454" stroke="#FFFFFF" stroke-width="1.5247" stroke-linejoin="round" stroke-miterlimit="10" d="M108.743-32.538
			c0,0-3.877,0.807-5.844,5.188"/>
		<path fill="#545454" stroke="#FFFFFF" stroke-width="1.5247" stroke-linejoin="round" stroke-miterlimit="10" d="M104.901-35.298
			c0,0-1.887,0.991-3.342,2.94"/>
		<path fill="#545454" stroke="#FFFFFF" stroke-width="1.5247" stroke-linejoin="round" stroke-miterlimit="10" d="M124.17-32.458
			c0,0-3.877,0.808-5.842,5.188"/>
		<path fill="#545454" stroke="#FFFFFF" stroke-width="1.5247" stroke-linejoin="round" stroke-miterlimit="10" d="M139.721-32.355
			c0,0-3.766,0.573-5.73,4.956"/>
	</g>
	<path fill="#545454" stroke="#FFFFFF" stroke-width="1.5247" stroke-linejoin="round" stroke-miterlimit="10" d="M60.692-27.35
		c0,0,1.42-4.382,5.153-6.954"/>
</g>
<g>
	<linearGradient id="SVGID_1_" gradientUnits="userSpaceOnUse" x1="168.6792" y1="11.9446" x2="174.8335" y2="11.9446">
		<stop  offset="0" style="stop-color:#FF6473"/>
		<stop  offset="1" style="stop-color:#FE5D8E"/>
	</linearGradient>
	<circle fill="url(#SVGID_1_)" cx="171.757" cy="11.945" r="3.076"/>
	<linearGradient id="SVGID_2_" gradientUnits="userSpaceOnUse" x1="13.2285" y1="41.4368" x2="19.3818" y2="41.4368">
		<stop  offset="0" style="stop-color:#FF6473"/>
		<stop  offset="1" style="stop-color:#FE5D8E"/>
	</linearGradient>
	<circle fill="url(#SVGID_2_)" cx="16.305" cy="41.438" r="3.077"/>
	<linearGradient id="SVGID_3_" gradientUnits="userSpaceOnUse" x1="15.8174" y1="29.551" x2="169.7319" y2="29.551">
		<stop  offset="0" style="stop-color:#FF6473"/>
		<stop  offset="1" style="stop-color:#FE5D8E"/>
	</linearGradient>
	<path fill="url(#SVGID_3_)" d="M169.732,15.809c-1.502-0.507-2.584-1.925-2.584-3.592c0-1.273,0.63-2.395,1.591-3.086
		c-3.734,0.479-6.358,2.437-8.059,4.528c-2.827-3.47-7.056-6.458-13.197-6.095c-6.447,0.383-10.5,3.583-12.891,7.073
		c-2.702-3.671-7.001-6.732-13.358-6.352c-5.695,0.337-9.4,2.576-11.71,5.218c-4.601-5.842-11.112-5.833-13.782-5.84
		c-4.169,0.016-8.5,1.88-10.802,3.033c-3.579-2.265-7.7-3.412-12.375-3.412c-6.397,0-11.771,2.122-16.116,6.363
		c-0.344,0.334-0.621,0.7-0.932,1.053c2.232,0.851,5.533,1.542,8.514-0.099c0.397-0.211,0.889-0.072,1.104,0.323
		c0.217,0.392,0.073,0.888-0.321,1.104c-1.613,0.885-3.276,1.211-4.849,1.211c-3.358,0-6.273-1.471-7.437-2.146
		c-2.463-1.086-4.609-2.462-5.795-3.222l-0.851-0.54c-0.266-0.162-0.544-0.272-0.83-0.353c-1.487-0.944-3.128-1.733-4.951-2.34
		c-2.705-0.902-5.432-1.353-8.179-1.353c-4.266,0-7.843,1.072-10.734,3.227c-2.89,2.152-4.337,5.219-4.337,9.195
		c0,3.979,1.271,6.93,3.814,8.86c1.271,1.025,2.728,1.853,4.367,2.49c1.639,0.634,4.039,1.334,7.198,2.091
		c3.157,0.758,5.381,1.599,6.673,2.522c1.293,0.925,1.938,2.211,1.938,3.876c0,1.664-0.686,2.994-2.06,3.999
		c-1.375,1.002-3.23,1.507-5.566,1.507c-4.494,0-8.839-1.749-13.029-5.237c0.375,0.587,0.593,1.282,0.593,2.026
		c0,2.093-1.703,3.797-3.796,3.797c-0.407,0-0.798-0.064-1.165-0.184c5.043,4.239,10.78,6.361,17.212,6.361
		c4.591,0,8.303-1.169,11.133-3.507c2.83-2.337,4.244-5.382,4.244-9.135c0-3.756-1.118-6.592-3.352-8.518
		c-2.236-1.928-5.559-3.426-9.966-4.488c-4.409-1.065-7.289-2.065-8.642-2.984c-1.354-0.923-2.031-2.255-2.031-3.998
		c0-1.742,0.676-3.044,2.031-3.908c1.354-0.861,3.085-1.292,5.198-1.292c2.111,0,4.253,0.37,6.427,1.108
		c2.174,0.74,3.896,1.681,5.169,2.83l0.087-0.124c1.751,1.126,4.534,2.856,7.839,4.126c-0.807,2.341-1.235,4.866-1.235,7.592
		c0,6.342,2.173,11.628,6.52,15.871c4.346,4.243,9.719,6.366,16.116,6.366c6.396,0,11.769-2.123,16.105-6.366
		c4.32-4.243,6.487-9.529,6.487-15.871c0-5.379-1.582-9.996-4.693-13.866c1.688-0.653,3.63-1.21,5.307-1.219
		c3.317,0.063,6.649,0.467,8.974,3.997c2.488,3.031,6.934,10.612,4.96,24.606c-0.057,0.407-0.403,0.698-0.805,0.698
		c-0.036,0-0.076-0.001-0.112-0.008c-0.446-0.062-0.755-0.474-0.692-0.922c1.669-11.832-1.514-18.852-3.818-22.225
		c-3.938,4.665-3.445,16.144-3.445,20.03c0,4.93,3.43,10.983,7.661,10.983s7.664-6.054,7.664-10.983
		c0-3.725,0.47-14.37-2.968-19.393c-0.033-0.125-0.076-0.238-0.109-0.361c0.386-1.646,1.978-5.423,8.56-5.81
		c4.064-0.241,6.516,1.963,7.967,4.25c2.67,3.501,6.445,10.936,4.641,23.739c-0.06,0.407-0.406,0.699-0.808,0.699
		c-0.035,0-0.076-0.001-0.113-0.009c-0.445-0.062-0.754-0.474-0.691-0.921c1.635-11.583-1.573-18.549-3.995-21.999
		c-3.74,4.799-3.27,15.979-3.27,19.805c0,4.93,3.431,10.983,7.66,10.983c4.235,0,7.665-6.054,7.665-10.983
		c0-3.421,0.396-12.677-2.197-18.057c0.006-0.027,0.016-0.046,0.019-0.075c0.124-0.785,1.434-7.686,9.376-8.155
		c4.153-0.226,6.95,2.504,8.715,5.267c-0.003,0.003-0.006,0.004-0.006,0.004c2.649,3.609,6.184,10.97,4.421,23.438
		c-0.057,0.407-0.401,0.699-0.804,0.699c-0.036,0-0.077-0.001-0.114-0.009c-0.447-0.063-0.752-0.473-0.69-0.921
		c1.635-11.579-1.576-18.548-3.996-21.999c-3.74,4.798-3.272,15.979-3.272,19.804c0,4.93,3.433,10.983,7.665,10.983
		c4.231,0,7.662-6.054,7.662-10.983c0-3.253,0.348-11.763-1.844-17.223c-0.011-0.01-0.011-0.021-0.014-0.035
		c-0.044-0.176-0.375-1.405-1.071-3.09c0.152-0.216,0.302-0.437,0.4-0.692C165.085,19.199,166.334,16.112,169.732,15.809z
		 M83.363,40.561c-2.933,3.036-6.53,4.551-10.795,4.551c-4.266,0-7.865-1.518-10.796-4.551c-2.933-3.037-4.397-6.716-4.397-11.043
		c0-2.171,0.37-4.178,1.108-6.024c0.135,0.004,0.267,0.031,0.402,0.031c1.079,0,2.167-0.105,3.254-0.343
		c3.824-0.837,6.971-3.148,9.35-6.873c0.464-0.727,0.606-1.563,0.483-2.356c0.199-0.007,0.393-0.027,0.596-0.027
		c4.266,0,7.863,1.517,10.795,4.551c2.931,3.034,4.393,6.712,4.393,11.038C87.756,33.842,86.295,37.524,83.363,40.561z"/>
</g>
<linearGradient id="SVGID_4_" gradientUnits="userSpaceOnUse" x1="205.9917" y1="46.3743" x2="314.6597" y2="46.3743">
	<stop  offset="0" style="stop-color:#FF6473"/>
	<stop  offset="1" style="stop-color:#FE5D8E"/>
</linearGradient>
<circle fill="url(#SVGID_4_)" cx="260.326" cy="46.373" r="54.334"/>
</svg>
