<?xml version="1.0" encoding="utf-8"?>
<!-- Generator: Adobe Illustrator 16.0.0, SVG Export Plug-In . SVG Version: 6.00 Build 0)  -->
<!DOCTYPE svg PUBLIC "-//W3C//DTD SVG 1.1//EN" "http://www.w3.org/Graphics/SVG/1.1/DTD/svg11.dtd">
<svg version="1.1" id="Layer_1" xmlns="http://www.w3.org/2000/svg" xmlns:xlink="http://www.w3.org/1999/xlink" x="0px" y="0px"
	 width="120.977px" height="24.123px" viewBox="0 0 120.977 24.123" enable-background="new 0 0 120.977 24.123"
	 xml:space="preserve">
<g>
	<g>
		<g>
			<path fill="#DF98D5" d="M27.418,21.947c-0.376,0-0.759-0.09-1.112-0.271c-1.197-0.615-1.664-2.08-1.051-3.275l7.675-14.901
				c0.615-1.199,2.083-1.667,3.274-1.054c1.193,0.617,1.663,2.085,1.051,3.277l-7.676,14.903
				C29.147,21.464,28.299,21.947,27.418,21.947z"/>
		</g>
	</g>
	<g>
		<g>
			<path fill="#D6A5F8" d="M42.764,21.947c-0.881,0-1.731-0.482-2.162-1.32L32.929,5.723c-0.615-1.192-0.148-2.66,1.048-3.278
				c1.195-0.613,2.661-0.146,3.277,1.054L44.927,18.4c0.615,1.195,0.146,2.66-1.048,3.274C43.525,21.857,43.14,21.947,42.764,21.947
				z"/>
		</g>
	</g>
</g>
<g>
	<path fill="#F27D8A" d="M63.619,13.564c-0.33-0.664-0.795-1.24-1.389-1.715c-0.576-0.47-1.265-0.871-2.053-1.218
		c-0.101-0.075-0.202-0.151-0.313-0.214l0.014-0.021c-0.081-0.037-0.158-0.066-0.234-0.098c-0.01,0-0.016-0.005-0.021-0.011
		c-0.701-0.287-1.306-0.483-2.169-0.767c-0.5-0.17-0.939-0.32-1.321-0.461c-0.377-0.145-0.697-0.291-0.951-0.453
		c-0.253-0.161-0.447-0.334-0.575-0.521c-0.129-0.188-0.192-0.41-0.192-0.661c0-0.257,0.061-0.473,0.18-0.651
		c0.118-0.178,0.279-0.326,0.478-0.435c0.202-0.108,0.437-0.188,0.698-0.241c0.266-0.048,0.549-0.074,0.851-0.074
		c0.292,0,0.58,0.043,0.865,0.13c0.281,0.089,0.549,0.196,0.808,0.329c0.257,0.133,0.493,0.281,0.718,0.445s0.428,0.324,0.609,0.478
		h0.007l0.021,0.019c0.188,0.153,0.393,0.268,0.604,0.352c0.934,0.369,2.041,0.106,2.704-0.719c0.809-1.018,0.645-2.498-0.369-3.308
		l-0.299-0.237l-0.35-0.26c-0.276-0.197-0.573-0.387-0.882-0.566c-0.739-0.414-1.488-0.715-2.252-0.899
		c-0.762-0.188-1.562-0.282-2.39-0.282c-1.104,0-2.107,0.137-3.004,0.405c-0.892,0.269-1.654,0.649-2.29,1.144
		c-0.635,0.493-1.125,1.084-1.466,1.781c-0.344,0.688-0.513,1.458-0.513,2.309c0,0.803,0.137,1.532,0.411,2.185
		c0.273,0.651,0.683,1.247,1.232,1.793c0.549,0.537,1.23,1.036,2.053,1.476c0.823,0.444,1.781,0.854,2.876,1.239
		c0.248,0.081,0.54,0.188,0.879,0.31c0.251,0.094,0.494,0.18,0.73,0.283c0.082,0.07,0.151,0.147,0.24,0.204l-0.02,0.031
		c0.312,0.176,0.574,0.373,0.788,0.595c0.215,0.225,0.321,0.479,0.321,0.762c0,0.254-0.041,0.496-0.115,0.725
		c-0.077,0.227-0.21,0.431-0.392,0.602c-0.184,0.174-0.43,0.312-0.747,0.422c-0.312,0.103-0.704,0.152-1.171,0.152
		c-0.5,0-0.98-0.086-1.438-0.26c-0.457-0.17-0.918-0.414-1.382-0.727c-0.312-0.207-0.588-0.422-0.829-0.636
		c-0.082-0.073-0.153-0.133-0.227-0.196h0.004l-0.397-0.39c-0.174-0.168-0.365-0.303-0.568-0.405
		c-0.897-0.457-2.022-0.3-2.761,0.463c-0.727,0.75-0.841,1.856-0.378,2.733c0.025,0.132,0.126,0.293,0.308,0.488
		c0.008,0.01,0.016,0.021,0.025,0.022c0.01,0.006,0.021,0.016,0.028,0.033c0.009,0.012,0.019,0.016,0.025,0.02
		c0.01,0.007,0.021,0.019,0.029,0.037l0.043,0.039c0.145,0.155,0.343,0.36,0.594,0.617c0.251,0.254,0.56,0.521,0.925,0.785
		c0.878,0.631,1.822,1.133,2.836,1.512c1.01,0.371,2.043,0.562,3.093,0.562c1.115,0,2.155-0.159,3.122-0.473
		c0.971-0.314,1.812-0.764,2.529-1.334c0.715-0.577,1.28-1.274,1.689-2.09c0.409-0.819,0.614-1.73,0.614-2.733
		C64.117,15.042,63.954,14.232,63.619,13.564z"/>
</g>
<path fill="#DF98D5" d="M23.024,9.377c-0.244-0.863-0.591-1.671-1.037-2.415c-0.445-0.748-0.982-1.421-1.611-2.026
	c-0.629-0.604-1.327-1.119-2.084-1.551c-0.762-0.434-1.58-0.768-2.457-1c-0.879-0.232-1.79-0.351-2.733-0.351H8.195L8.066,2.038
	c-0.54,0.013-1.033,0.215-1.429,0.526C6.056,3.01,5.674,3.707,5.674,4.495v15.12c0,0.663,0.268,1.263,0.697,1.703
	c0.428,0.455,1.027,0.748,1.695,0.763l0.129,0.006h4.906c0.943,0,1.856-0.106,2.738-0.343c0.883-0.229,1.704-0.555,2.466-0.979
	c0.76-0.422,1.452-0.938,2.077-1.537c0.623-0.603,1.163-1.274,1.61-2.019c0.452-0.746,0.798-1.545,1.041-2.403
	c0.244-0.855,0.364-1.763,0.364-2.718C23.397,11.145,23.274,10.24,23.024,9.377z M17.832,14.044
	c-0.248,0.604-0.591,1.129-1.026,1.574c-0.438,0.442-0.948,0.806-1.531,1.078c-0.586,0.272-1.214,0.438-1.89,0.493
	c-0.197,0.017-0.396,0.033-0.595,0.045c-0.197,0.015-1.809,0.021-2.018,0.021h-0.236V6.85h0.236l2.056,0.031
	c0.737,0,1.436,0.126,2.086,0.385c0.652,0.256,1.222,0.612,1.711,1.078c0.479,0.465,0.866,1.012,1.151,1.65
	c0.282,0.628,0.421,1.326,0.421,2.082C18.199,12.785,18.079,13.443,17.832,14.044z"/>
<g>
	<g>
		<path fill="#FB7066" d="M80.889,4.548c-0.186,1.329-1.411,2.257-2.74,2.069c-3.007-0.424-5.793,1.678-6.214,4.678
			c-0.424,3.005,1.678,5.793,4.679,6.211c1.332,0.189,2.257,1.422,2.073,2.749c-0.188,1.333-1.42,2.259-2.752,2.069
			c-5.654-0.795-9.611-6.047-8.819-11.702c0.798-5.66,6.046-9.616,11.708-8.825C80.154,1.988,81.079,3.217,80.889,4.548z"/>
	</g>
	<g>
		<path fill="#FFB660" d="M87.644,13.502c-0.796,5.661-6.047,9.616-11.709,8.821c-1.324-0.185-2.254-1.416-2.064-2.746
			c0.185-1.33,1.414-2.258,2.743-2.072c3.003,0.425,5.79-1.673,6.211-4.678c0.188-1.332,1.415-2.263,2.747-2.067
			C86.906,10.949,87.829,12.176,87.644,13.502z"/>
	</g>
	<g>
		<path fill="#FC8A64" d="M87.644,13.502c-0.188,1.331-1.416,2.262-2.748,2.071c-1.331-0.188-2.258-1.416-2.071-2.746
			c0.424-3.003-1.677-5.79-4.676-6.211c-1.333-0.188-2.259-1.418-2.071-2.747c0.185-1.331,1.414-2.256,2.746-2.073
			C84.48,2.594,88.439,7.846,87.644,13.502z"/>
	</g>
</g>
<g>
	<g>
		<path fill="#FFB660" d="M112.869,21.977c0.265,0,0.531-0.045,0.791-0.135c1.271-0.435,1.947-1.816,1.509-3.09L110.056,3.85
			c-0.315-0.918-1.146-1.561-2.113-1.631c-0.973-0.08-1.892,0.432-2.34,1.293l1.688,7.264l3.278,9.557
			C110.915,21.341,111.859,21.977,112.869,21.977z"/>
	</g>
	<g>
		<path fill="#FFD75B" d="M102.723,16.58c-0.351,0.004-0.71-0.07-1.05-0.232c-1.217-0.568-1.738-2.015-1.168-3.227l5.065-9.574
			c0.568-1.218,2.017-1.738,3.235-1.171c1.218,0.571,1.74,2.021,1.169,3.238l-5.068,9.569
			C104.498,16.062,103.633,16.576,102.723,16.58z"/>
	</g>
	<g>
		<path fill="#FFD75B" d="M92.594,21.977c-0.262,0-0.528-0.045-0.789-0.135c-1.272-0.435-1.95-1.816-1.514-3.09L95.407,3.85
			c0.312-0.918,1.146-1.561,2.113-1.631c0.969-0.08,1.889,0.432,2.336,1.293l4.869,9.291c0.626,1.192,0.164,2.66-1.024,3.282
			c-1.19,0.623-2.663,0.162-3.284-1.026l-2.242-4.283l-3.282,9.557C94.547,21.341,93.601,21.977,92.594,21.977z"/>
	</g>
</g>
</svg>
