<?xml version="1.0" encoding="utf-8"?>
<!-- Generator: Adobe Illustrator 16.0.0, SVG Export Plug-In . SVG Version: 6.00 Build 0)  -->
<!DOCTYPE svg PUBLIC "-//W3C//DTD SVG 1.1//EN" "http://www.w3.org/Graphics/SVG/1.1/DTD/svg11.dtd">
<svg version="1.1" id="Layer_1" xmlns="http://www.w3.org/2000/svg" xmlns:xlink="http://www.w3.org/1999/xlink" x="0px" y="0px"
	 width="50.918px" height="50.915px" viewBox="-13.548 -13.846 50.918 50.915"
	 enable-background="new -13.548 -13.846 50.918 50.915" xml:space="preserve">
<g>
	<circle fill="#FB7066" cx="11.911" cy="11.612" r="25.458"/>
	<path opacity="0.3" fill="#664A3D" enable-background="new    " d="M28.543,24.302c0,1.037-0.841,1.875-1.878,1.875H2.64
		c-1.033,0-1.871-0.838-1.871-1.875V5.382c0-1.038,0.838-1.872,1.871-1.872h24.025c1.037,0,1.878,0.834,1.878,1.872V24.302z"/>
	<path fill="#FFFFFF" d="M24.33,19.898c0,1.034-0.835,1.872-1.872,1.872H-1.565c-1.037,0-1.875-0.838-1.875-1.872V0.98
		c0-1.042,0.838-1.879,1.875-1.879h24.023c1.037,0,1.872,0.837,1.872,1.879V19.898z"/>
	<g>
		<g>
			<defs>
				<path id="SVGID_1_" d="M24.33,19.898c0,1.034-0.835,1.872-1.872,1.872H-1.565c-1.037,0-1.875-0.838-1.875-1.872V0.98
					c0-1.042,0.838-1.879,1.875-1.879h24.023c1.037,0,1.872,0.837,1.872,1.879V19.898z"/>
			</defs>
			<clipPath id="SVGID_2_">
				<use xlink:href="#SVGID_1_"  overflow="visible"/>
			</clipPath>
			<path clip-path="url(#SVGID_2_)" fill="#F0ECE0" d="M24.301,18.8l-13.096-8.019c-0.627-0.384-1.415-0.378-2.036,0.021
				l-12.606,8.021c-0.722,0.454-1.056,1.333-0.813,2.156c0.238,0.82,0.994,1.389,1.85,1.389h25.697c0.861,0,1.617-0.571,1.852-1.4
				C25.382,20.133,25.036,19.251,24.301,18.8z"/>
		</g>
	</g>
	<path fill="#FFD75B" d="M24.521,0.296c-0.234-0.804-0.967-1.347-1.799-1.347H-1.932c-0.839,0-1.571,0.559-1.806,1.364
		c-0.228,0.812,0.111,1.671,0.826,2.104L9.466,13.485c0.299,0.188,0.639,0.278,0.978,0.278c0.346,0,0.7-0.097,1.005-0.29
		L23.729,2.402C24.43,1.953,24.755,1.094,24.521,0.296z"/>
</g>
</svg>
