<?xml version="1.0" encoding="utf-8"?>
<!-- Generator: Adobe Illustrator 16.0.0, SVG Export Plug-In . SVG Version: 6.00 Build 0)  -->
<!DOCTYPE svg PUBLIC "-//W3C//DTD SVG 1.1//EN" "http://www.w3.org/Graphics/SVG/1.1/DTD/svg11.dtd">
<svg version="1.1" id="Layer_1" xmlns="http://www.w3.org/2000/svg" xmlns:xlink="http://www.w3.org/1999/xlink" x="0px" y="0px"
	 width="42.698px" height="23px" viewBox="-5.739 13.958 42.698 23" enable-background="new -5.739 13.958 42.698 23"
	 xml:space="preserve">
<path fill="#FFC033" d="M-6.906,38.074c0,4.292-1.977,5.347-4.416,5.347c-2.438,0-4.414-1.055-4.414-5.347
	c0-2.049,1.006-4.466,2.058-6.431c1.151-2.152,2.356-3.765,2.356-3.765s1.169,1.563,2.305,3.666
	C-7.946,33.528-6.906,35.991-6.906,38.074z"/>
<circle fill="#3A8FED" cx="61.613" cy="23.083" r="3.758"/>
<g>
	<g>
		<path fill="#FB7066" d="M-22.226,50.327c12.475,0,22.623,10.148,22.623,22.623S-9.751,95.573-22.226,95.573
			S-44.85,85.424-44.85,72.95C-44.85,60.476-34.701,50.327-22.226,50.327 M-22.226,47.493c-14.06,0-25.458,11.396-25.458,25.457
			c0,14.062,11.398,25.457,25.458,25.457S3.232,87.011,3.232,72.95C3.232,58.889-8.167,47.493-22.226,47.493L-22.226,47.493z"/>
	</g>
</g>
<path fill="none" stroke="#FB7066" stroke-miterlimit="10" d="M97.354,45.075c0,1.037-0.84,1.875-1.877,1.875H71.451
	c-1.033,0-1.871-0.838-1.871-1.875v-18.92c0-1.038,0.838-1.872,1.871-1.872h24.023c1.037,0,1.879,0.834,1.879,1.872V45.075
	L97.354,45.075z"/>
<g>
	<g>
		<defs>
			<path id="SVGID_1_" d="M33.791-15.736c0,1.035-0.835,1.873-1.872,1.873H7.896c-1.037,0-1.875-0.838-1.875-1.873v-18.917
				c0-1.042,0.838-1.879,1.875-1.879h24.023c1.037,0,1.872,0.837,1.872,1.879V-15.736z"/>
		</defs>
		<clipPath id="SVGID_2_">
			<use xlink:href="#SVGID_1_"  overflow="visible"/>
		</clipPath>
		<g clip-path="url(#SVGID_2_)">
			<path fill="#FB7066" d="M19.674-22.137l9.858,6.036H10.188L19.674-22.137 M19.664-25.136c-0.359,0-0.718,0.102-1.034,0.305
				l-12.606,8.02c-0.722,0.453-1.056,1.332-0.813,2.156c0.238,0.819,0.994,1.389,1.85,1.389h25.697c0.861,0,1.617-0.571,1.854-1.4
				c0.231-0.835-0.113-1.717-0.85-2.168l-13.096-8.019C20.358-25.042,20.011-25.136,19.664-25.136L19.664-25.136z"/>
		</g>
	</g>
</g>
<g>
	<path fill="#545454" d="M87.036,7.345l-9.735,8.777l-9.814-8.777H87.036 M89.575,4.51H64.922c-0.84,0-1.57,0.559-1.807,1.364
		c-0.229,0.812,0.111,1.671,0.826,2.104l12.377,11.068c0.301,0.188,0.641,0.277,0.979,0.277c0.348,0,0.7-0.097,1.006-0.289
		l12.28-11.072c0.701-0.449,1.024-1.308,0.791-2.106C91.141,5.054,90.407,4.51,89.575,4.51L89.575,4.51z"/>
</g>
<g>
	<circle fill="#FB7066" cx="-63.035" cy="10.896" r="25.458"/>
	<path opacity="0.3" fill="#664A3D" enable-background="new    " d="M-46.403,23.587c0,1.037-0.841,1.875-1.878,1.875h-24.025
		c-1.033,0-1.871-0.838-1.871-1.875V4.667c0-1.038,0.838-1.872,1.871-1.872h24.025c1.037,0,1.878,0.834,1.878,1.872V23.587z"/>
	<path fill="#FFFFFF" d="M-50.616,19.182c0,1.035-0.835,1.874-1.872,1.874h-24.023c-1.037,0-1.875-0.838-1.875-1.874V0.265
		c0-1.042,0.838-1.879,1.875-1.879h24.023c1.037,0,1.872,0.837,1.872,1.879V19.182z"/>
	<g>
		<g>
			<g>
				<g>
					<defs>
						<path id="SVGID_3_" d="M-50.616,19.182c0,1.035-0.835,1.874-1.872,1.874h-24.023c-1.037,0-1.875-0.838-1.875-1.874V0.265
							c0-1.042,0.838-1.879,1.875-1.879h24.023c1.037,0,1.872,0.837,1.872,1.879V19.182z"/>
					</defs>
					<clipPath id="SVGID_4_">
						<use xlink:href="#SVGID_3_"  overflow="visible"/>
					</clipPath>
					<path clip-path="url(#SVGID_4_)" fill="#F0ECE0" d="M-50.646,18.084l-13.096-8.019c-0.627-0.384-1.415-0.378-2.036,0.021
						l-12.606,8.021c-0.722,0.453-1.056,1.332-0.813,2.156c0.238,0.819,0.994,1.389,1.85,1.389h25.697
						c0.861,0,1.617-0.572,1.853-1.401C-49.564,19.417-49.91,18.536-50.646,18.084z"/>
				</g>
			</g>
		</g>
	</g>
	<path fill="#FFD75B" d="M-50.426-0.419c-0.233-0.804-0.967-1.347-1.799-1.347h-24.654c-0.839,0-1.571,0.559-1.806,1.364
		c-0.228,0.812,0.111,1.671,0.826,2.104L-65.48,12.77c0.299,0.188,0.639,0.277,0.978,0.277c0.346,0,0.7-0.097,1.005-0.289
		l12.28-11.072C-50.516,1.238-50.191,0.379-50.426-0.419z"/>
</g>
<circle fill="#FFCAD8" cx="85.752" cy="18.773" r="9.129"/>
<rect x="-36.936" y="7.794" fill="#FF601A" width="4.126" height="4.126"/>
<rect x="-32.809" y="11.903" fill="#FF601A" width="4.126" height="4.126"/>
<rect x="-28.744" y="7.794" fill="#FF601A" width="4.126" height="4.126"/>
<rect x="-20.491" y="7.794" fill="#FF601A" width="4.127" height="4.126"/>
<rect x="-16.374" y="11.912" fill="#FF601A" width="4.127" height="4.126"/>
<rect x="-24.618" y="11.903" fill="#FF601A" width="4.126" height="4.126"/>
<rect x="-36.936" y="16.038" fill="#FF601A" width="4.126" height="4.126"/>
<rect x="-32.809" y="20.147" fill="#FF601A" width="4.126" height="4.127"/>
<rect x="-28.744" y="16.038" fill="#FF601A" width="4.126" height="4.126"/>
<rect x="-20.491" y="16.038" fill="#FF601A" width="4.127" height="4.126"/>
<rect x="-16.374" y="20.155" fill="#FF601A" width="4.127" height="4.127"/>
<rect x="-24.618" y="20.147" fill="#FF601A" width="4.126" height="4.127"/>
<rect x="-36.936" y="24.272" fill="#FF601A" width="4.126" height="4.128"/>
<rect x="-32.809" y="28.383" fill="#FF601A" width="4.126" height="4.127"/>
<rect x="-28.744" y="24.272" fill="#FF601A" width="4.126" height="4.128"/>
<rect x="-20.491" y="24.272" fill="#FF601A" width="4.127" height="4.128"/>
<rect x="-16.374" y="28.391" fill="#FF601A" width="4.127" height="4.127"/>
<rect x="-24.618" y="28.383" fill="#FF601A" width="4.126" height="4.127"/>
<circle fill="none" stroke="#FF601A" stroke-width="1.8598" stroke-miterlimit="10" cx="37.025" cy="64.696" r="6.24"/>
<circle fill="none" stroke="#FF601A" stroke-width="1.8598" stroke-miterlimit="10" cx="41.557" cy="71.357" r="6.24"/>
<polyline fill="none" stroke="#1E61D8" stroke-width="1.8598" stroke-miterlimit="10" points="50.455,54.227 49.979,61.689 
	57.854,60.648 "/>
<path fill="#DDDDDD" d="M49.979,81.603c0.304,0.196,8.179,4.493,8.179,4.493l0.836-10.979L49.979,81.603z"/>
<path fill="#545454" stroke="#FFFFFF" stroke-width="0.8653" stroke-linejoin="round" stroke-miterlimit="10" d="M104.332-18.665
	c-0.289-0.645-1.045-0.937-1.688-0.647c-0.465,0.206-1.961,0.902-3.398,1.868c-0.916-0.783-2.314-1.393-4.381-1.393
	c-2.07,0-3.506,0.585-4.477,1.262c-0.982-0.688-2.377-1.262-4.33-1.262c-2.086,0-3.457,0.624-4.324,1.402
	c-0.865-0.777-2.238-1.402-4.324-1.402c-2.907,0-4.574,1.4-5.393,2.693c-0.05-0.05-0.093-0.102-0.142-0.151
	c-1.756-1.715-3.926-2.572-6.51-2.572c-2.416,0-4.468,0.76-6.159,2.261c-1.882,0.942-4.219-0.349-5.258-0.958
	c-0.012-0.007-0.024-0.008-0.035-0.014c-0.512-0.291-1.062-0.54-1.661-0.74c-1.094-0.365-2.196-0.549-3.308-0.549
	c-1.721,0-3.168,0.436-4.336,1.305c-1.168,0.871-1.75,2.11-1.75,3.717c0,1.607,0.513,2.799,1.539,3.579
	c0.515,0.412,1.103,0.749,1.767,1.005c0.662,0.258,1.629,0.539,2.905,0.845c1.275,0.309,2.175,0.647,2.695,1.019
	c0.523,0.373,0.783,0.895,0.783,1.566s-0.277,1.21-0.832,1.614c-0.556,0.405-1.305,0.608-2.25,0.608
	c-1.887,0-3.71-0.762-5.465-2.284l-0.008,0.008c-0.26-0.251-0.609-0.407-0.997-0.407c-0.791,0-1.433,0.644-1.433,1.436
	c0,0.481,0.24,0.905,0.605,1.165l-0.009,0.01c2.104,1.872,4.514,2.808,7.231,2.808c1.854,0,3.354-0.47,4.496-1.415
	c1.144-0.944,1.715-2.178,1.715-3.691c0-1.517-0.451-2.663-1.354-3.44c-0.904-0.78-2.246-1.384-4.025-1.816
	c-1.781-0.43-2.945-0.831-3.49-1.204c-0.549-0.372-0.82-0.91-0.82-1.614c0-0.704,0.271-1.232,0.82-1.579
	c0.545-0.347,1.244-0.521,2.099-0.521s1.74,0.093,2.599,0.445c0.479,0.197,0.987,0.424,1.414,0.62
	c0.021,0.013,2.735,1.266,4.161,1.414c-0.519,1.142-0.784,2.403-0.784,3.794c0,2.561,0.877,4.697,2.633,6.41
	c1.756,1.716,3.926,2.573,6.511,2.573c2.583,0,4.753-0.857,6.511-2.573c1.754-1.713,2.631-3.85,2.631-6.41
	c0-1.431-0.283-2.724-0.832-3.89c0.105-0.134,0.195-0.282,0.242-0.456c0.057-0.21,0.641-2.053,3.49-2.053
	c1.314,0,1.998,0.189,2.429,0.518c-2.04,1.813-2.487,5.757-2.46,7.688l0.003,0.479c0,1.523-0.001,6.5,4.036,6.543
	c0.008,0,0.046,0,0.052,0c1.742,0,3.022-0.977,3.608-2.749c0.406-1.232,0.406-2.964,0.406-3.869l0.004-0.409
	c0.025-1.793,0.078-5.183-1.666-6.949c-0.154-0.154-0.318-0.291-0.49-0.41c0.367-0.396,1.133-0.842,2.729-0.842
	c1.143,0,1.982,0.276,2.588,0.624c-0.008,0.018-0.02,0.038-0.024,0.051c-2.535,1.372-2.481,5.618-2.453,7.53l0.004,0.479
	c-0.002,1.523-0.002,6.5,4.038,6.543c0.005,0,0.044,0,0.051,0c1.741,0,3.021-0.977,3.606-2.749c0.407-1.232,0.405-2.964,0.405-3.869
	l0.004-0.409c0.025-1.793,0.08-5.183-1.666-6.949c-0.063-0.065-0.139-0.115-0.207-0.174c-0.002-0.003-0.002-0.008-0.004-0.01
	c-0.012-0.031-0.09-0.208-0.235-0.462c0.604-0.333,1.47-0.607,2.698-0.607c1.121,0,1.865,0.227,2.361,0.514
	c-0.213,0.234-0.41,0.474-0.565,0.72c-1.774,1.79-1.724,5.27-1.697,6.972l0.003,0.479c-0.003,1.523-0.003,6.5,4.036,6.543
	c0.008,0,0.047,0,0.051,0c1.742,0,3.021-0.977,3.609-2.749c0.405-1.232,0.403-2.964,0.403-3.869l0.006-0.41
	c0.023-1.793,0.076-5.183-1.666-6.949c-0.161-0.164-0.336-0.305-0.52-0.429c0.922-0.596,1.965-1.149,2.795-1.52
	C104.328-17.266,104.617-18.02,104.332-18.665z M69.729-5.421c-1.186,1.225-2.64,1.839-4.36,1.839c-1.724,0-3.179-0.615-4.361-1.839
	C59.82-6.648,59.23-8.134,59.23-9.882s0.592-3.233,1.776-4.461c1.185-1.224,2.64-1.838,4.361-1.838s3.176,0.614,4.36,1.838
	c1.185,1.229,1.777,2.713,1.777,4.461S70.912-6.648,69.729-5.421z M82.936-8.115L82.93-7.594c0,0.717,0.002,2.148-0.275,2.989
	c-0.274,0.83-0.657,0.995-1.184,0.995h-0.021c-0.936-0.009-1.514-0.969-1.514-4.062L79.93-8.114
	c-0.062-4.683,0.793-5.332,1.539-5.343c0.227,0,0.381,0.063,0.535,0.22C82.998-12.229,82.951-9.218,82.936-8.115z M91.729-8.115
	l-0.008,0.521c0,0.717,0.004,2.148-0.275,2.989c-0.274,0.83-0.655,0.995-1.182,0.995H90.24c-0.934-0.009-1.512-0.969-1.512-4.062
	l-0.006-0.442c-0.063-4.683,0.791-5.332,1.537-5.343c0.229,0,0.383,0.063,0.536,0.22C91.79-12.229,91.742-9.218,91.729-8.115z
	 M100.52-8.115l-0.006,0.521c0,0.717,0.002,2.148-0.275,2.989c-0.274,0.83-0.655,0.995-1.186,0.995h-0.02
	c-0.936-0.009-1.512-0.969-1.512-4.062l-0.006-0.442c-0.048-3.251,0.354-4.378,0.852-4.979c0.068-0.055,0.133-0.112,0.189-0.18
	c0.164-0.127,0.332-0.182,0.496-0.185c0.227,0,0.381,0.063,0.534,0.22C100.582-12.229,100.535-9.218,100.52-8.115z"/>
<circle fill="#545454" stroke="#FFFFFF" stroke-width="0.8653" stroke-linejoin="round" stroke-miterlimit="10" cx="43.018" cy="-4.871" r="1.46"/>
<circle fill="#545454" stroke="#FFFFFF" stroke-width="0.8653" stroke-linejoin="round" stroke-miterlimit="10" cx="73.004" cy="-15.41" r="1.458"/>
<path fill="#545454" stroke="#FFFFFF" stroke-width="0.8653" stroke-linejoin="round" stroke-miterlimit="10" d="M83.914-15.868
	c0,0-2.199,0.458-3.316,2.945"/>
<path fill="#545454" stroke="#FFFFFF" stroke-width="0.8653" stroke-linejoin="round" stroke-miterlimit="10" d="M81.734-17.435
	c0,0-1.07,0.564-1.896,1.67"/>
<path fill="#545454" stroke="#FFFFFF" stroke-width="0.8653" stroke-linejoin="round" stroke-miterlimit="10" d="M92.67-15.823
	c0,0-2.199,0.458-3.314,2.944"/>
<path fill="#545454" stroke="#FFFFFF" stroke-width="0.8653" stroke-linejoin="round" stroke-miterlimit="10" d="M101.496-15.764
	c0,0-2.137,0.325-3.252,2.812"/>
<path fill="#545454" stroke="#FFFFFF" stroke-width="0.8653" stroke-linejoin="round" stroke-miterlimit="10" d="M56.646-12.924
	c0,0,0.806-2.486,2.924-3.946"/>
<path fill="#FFFFFF" stroke="#545454" stroke-width="2.126" stroke-linejoin="round" stroke-miterlimit="10" d="M141.508,67.204
	c0,1.564-1.27,2.834-2.834,2.834h-22.429c-1.565,0-2.835-1.27-2.835-2.834V49.727c0-1.566,1.27-2.835,2.835-2.835h22.429
	c1.564,0,2.834,1.269,2.834,2.835V67.204z"/>
<polyline fill="none" stroke="#545454" stroke-width="2.126" stroke-linecap="round" stroke-linejoin="round" stroke-miterlimit="10" points="
	140.191,47.338 127.459,56.402 114.871,48.799 "/>
<circle fill="#545454" stroke="#FFFFFF" stroke-width="0.8653" stroke-linejoin="round" stroke-miterlimit="10" cx="113.411" cy="47.339" r="1.46"/>
<path fill="#545454" stroke="#FFFFFF" stroke-width="0.7879" stroke-linejoin="round" stroke-miterlimit="10" d="M-3.416-23.033
	c-0.522-0.846-1.88-2.265-5.097-2.265c-2.022,0-3.427,0.572-4.377,1.234c-0.961-0.674-2.323-1.234-4.23-1.234
	c-2.04,0-3.382,0.61-4.23,1.372c-0.848-0.761-2.19-1.372-4.231-1.372c-3.884,0-5.518,2.56-5.838,3.913
	c-0.158,0.664,0.249,1.321,0.91,1.489c0.102,0.026,0.204,0.038,0.304,0.038c0.553,0,1.062-0.375,1.212-0.932
	c0.056-0.206,0.626-2.009,3.412-2.009c1.288,0,1.747,0.038,2.167,0.36c-2.202,2.19-2.222,6.114-2.195,8.001l0.004,0.475
	c-0.001,1.488-0.003,6.016,3.949,6.059c0.004,0,0.044,0,0.048,0c1.703,0,2.957-0.955,3.53-2.688
	c0.398-1.202,0.397-2.561,0.397-3.447l0.004-0.398c0.025-1.753,0.076-5.405-1.63-7.136c-0.149-0.152-0.311-0.285-0.481-0.401
	c0.361-0.388,1.109-0.823,2.668-0.823c1.119,0,1.937,0.271,2.53,0.612c-0.008,0.016-0.02,0.036-0.025,0.048
	c-2.476,1.341-2.421,5.833-2.396,7.702l0.004,0.471c-0.001,1.488-0.003,6.02,3.945,6.062c0.005,0,0.045,0,0.049,0
	c1.702,0,2.955-0.954,3.526-2.688c0.397-1.202,0.396-2.561,0.396-3.447l0.006-0.401c0.023-1.752,0.076-5.403-1.629-7.133
	c-0.062-0.064-0.137-0.112-0.203-0.17c-0.002-0.003-0.002-0.007-0.002-0.01c-0.014-0.03-0.088-0.201-0.23-0.446
	c0.59-0.327,2.636-0.599,2.636-0.599c2.079,0,2.771,0.755,2.972,1.08c1.344,2.176,0.483,8.684-0.375,12.274
	c-0.16,0.672,0.254,1.346,0.924,1.506c0.099,0.023,0.196,0.034,0.293,0.034c0.563,0,1.076-0.386,1.213-0.958
	C-3.234-9.917-1.085-19.267-3.416-23.033z M-20.175-14.474l-0.004,0.512c0,0.703,0.001,1.765-0.27,2.585
	c-0.268,0.812-0.642,0.974-1.158,0.974h-0.022c-0.913-0.01-1.479-0.607-1.477-3.637l-0.004-0.432
	c-0.064-4.58,0.773-5.552,1.502-5.563c0.221,0,0.373,0.062,0.522,0.215C-20.113-18.833-20.159-15.552-20.175-14.474z
	 M-11.582-14.478l-0.004,0.517c0,0.702,0,1.765-0.271,2.585c-0.268,0.811-0.641,0.974-1.155,0.974h-0.022
	c-0.914-0.01-1.479-0.608-1.479-3.637l-0.004-0.433c-0.064-4.579,0.773-5.551,1.504-5.562c0.221,0,0.372,0.062,0.521,0.214
	C-11.52-18.835-11.568-15.555-11.582-14.478z"/>
<path fill="none" stroke="#FFFFFF" stroke-width="0.7879" stroke-linejoin="round" stroke-miterlimit="10" d="M-22.26-19.701
	c0,0,0.905-1.575,2.988-2.663"/>
<path fill="none" stroke="#FFFFFF" stroke-width="0.7879" stroke-linejoin="round" stroke-miterlimit="10" d="M21.425-8.863
	c0,0,0.725-1.485,2.807-2.572"/>
<line fill="none" stroke="#545454" stroke-width="0.9921" stroke-linecap="round" stroke-linejoin="round" stroke-miterlimit="10" x1="102.389" y1="7.794" x2="109.535" y2="7.794"/>
<g id="TSMbJI_1_">
</g>
<circle fill="#545454" stroke="#FFFFFF" stroke-width="0.5769" stroke-linejoin="round" stroke-miterlimit="10" cx="-30.175" cy="-21.198" r="0.974"/>
<path fill="#FFC033" d="M30.764,27.626c0.292,2.661-2.17,4.847-4.847,4.847s-5.138-2.186-4.847-4.847
	c0.332-3.032,2.17-4.847,4.847-4.847S30.432,24.586,30.764,27.626z"/>
<polygon fill="#FFC033" points="21.687,25.355 25.917,18.028 30.147,25.355 "/>
</svg>
