<?xml version="1.0" encoding="utf-8"?>
<!-- Generator: Adobe Illustrator 16.0.0, SVG Export Plug-In . SVG Version: 6.00 Build 0)  -->
<!DOCTYPE svg PUBLIC "-//W3C//DTD SVG 1.1//EN" "http://www.w3.org/Graphics/SVG/1.1/DTD/svg11.dtd">
<svg version="1.1" id="Layer_1" xmlns="http://www.w3.org/2000/svg" xmlns:xlink="http://www.w3.org/1999/xlink" x="0px" y="0px"
	 width="54.436px" height="49.479px" viewBox="0 0 54.436 49.479" enable-background="new 0 0 54.436 49.479" xml:space="preserve">
<path fill="#F2ECE7" d="M28.919,12.221c1.266,0,2.291,1.026,2.291,2.291l0,0c0.001,1.265-1.023,2.289-2.289,2.291L6.198,16.809
	c-1.265,0.002-2.291-1.023-2.291-2.289l0,0c0-1.265,1.024-2.288,2.289-2.29L28.919,12.221z"/>
<path fill="#F2ECE7" d="M28.919,22c1.266,0,2.291,1.026,2.291,2.291l0,0c0.001,1.265-1.023,2.289-2.289,2.291L6.198,26.587
	c-1.265,0.002-2.291-1.023-2.291-2.289l0,0c0-1.265,1.024-2.288,2.289-2.29L28.919,22z"/>
<path fill="#F2ECE7" d="M28.919,31.779c1.266,0,2.291,1.025,2.291,2.291l0,0c0.001,1.264-1.023,2.289-2.289,2.291L6.198,36.366
	c-1.265,0.002-2.291-1.023-2.291-2.289l0,0c0-1.266,1.024-2.289,2.289-2.291L28.919,31.779z"/>
</svg>
