<?xml version="1.0" encoding="utf-8"?>
<!-- Generator: Adobe Illustrator 16.0.0, SVG Export Plug-In . SVG Version: 6.00 Build 0)  -->
<!DOCTYPE svg PUBLIC "-//W3C//DTD SVG 1.1//EN" "http://www.w3.org/Graphics/SVG/1.1/DTD/svg11.dtd">
<svg version="1.1" id="Layer_1" xmlns="http://www.w3.org/2000/svg" xmlns:xlink="http://www.w3.org/1999/xlink" x="0px" y="0px"
	 width="54.436px" height="49.479px" viewBox="0 0 54.436 49.479" enable-background="new 0 0 54.436 49.479" xml:space="preserve">
<path fill="#F2ECE7" d="M121.48,11.409c1.266,0,2.291,1.026,2.291,2.291l0,0c0.002,1.265-1.023,2.289-2.289,2.291l-22.723,0.006
	c-1.266,0.002-2.291-1.022-2.291-2.289l0,0c0-1.265,1.023-2.288,2.289-2.29L121.48,11.409z"/>
<path fill="#F2ECE7" d="M121.48,21.189c1.266,0,2.291,1.025,2.291,2.291l0,0c0.002,1.265-1.023,2.289-2.289,2.291l-22.723,0.005
	c-1.266,0.002-2.291-1.023-2.291-2.289l0,0c0-1.265,1.023-2.288,2.289-2.29L121.48,21.189z"/>
<path fill="#F2ECE7" d="M121.48,30.967c1.266,0,2.291,1.025,2.291,2.291l0,0c0.002,1.265-1.023,2.289-2.289,2.291l-22.723,0.006
	c-1.266,0.002-2.291-1.023-2.291-2.289l0,0c0-1.267,1.023-2.289,2.289-2.291L121.48,30.967z"/>
<path fill="#F2ECE7" d="M8.068,13.032c-0.819,0.001-1.482,0.663-1.482,1.481l0,0c-0.001,0.819,0.663,1.483,1.482,1.482l18.984,0.001
	c0.818,0,1.482-0.665,1.48-1.483l0,0c0-0.818-0.662-1.48-1.48-1.48L8.068,13.032z"/>
<path fill="#F2ECE7" d="M8.068,21.189c-0.819,0.001-1.482,0.663-1.482,1.481l0,0c-0.001,0.819,0.663,1.484,1.482,1.482l18.984,0.002
	c0.818,0,1.482-0.666,1.48-1.484l0,0c0-0.818-0.662-1.48-1.48-1.48L8.068,21.189z"/>
<path fill="#F2ECE7" d="M8.068,29.484c-0.819,0.002-1.482,0.664-1.482,1.482l0,0c-0.001,0.818,0.663,1.484,1.482,1.482l18.984,0.002
	c0.818,0,1.482-0.666,1.48-1.484l0,0c0-0.818-0.662-1.48-1.48-1.48L8.068,29.484z"/>
</svg>
