<?xml version="1.0" encoding="utf-8"?>
<!-- Generator: Adobe Illustrator 16.0.0, SVG Export Plug-In . SVG Version: 6.00 Build 0)  -->
<!DOCTYPE svg PUBLIC "-//W3C//DTD SVG 1.1//EN" "http://www.w3.org/Graphics/SVG/1.1/DTD/svg11.dtd">
<svg version="1.1" id="Layer_1" xmlns="http://www.w3.org/2000/svg" xmlns:xlink="http://www.w3.org/1999/xlink" x="0px" y="0px"
	 width="120.977px" height="45.393px" viewBox="0 -11.125 120.977 45.393" enable-background="new 0 -11.125 120.977 45.393"
	 xml:space="preserve">
<rect x="3.426" y="45.124" fill="#FF613E" width="103.165" height="13.711"/>
<g>
	<g>
		<g>
			<path fill="#DF98D5" d="M-62.899-37.414c-0.376,0-0.759-0.09-1.112-0.27c-1.197-0.615-1.664-2.08-1.051-3.275l7.675-14.901
				c0.615-1.199,2.083-1.667,3.274-1.054c1.192,0.617,1.663,2.085,1.051,3.277l-7.676,14.903
				C-61.17-37.896-62.018-37.414-62.899-37.414z"/>
		</g>
	</g>
	<g>
		<g>
			<path fill="#D6A5F8" d="M-47.553-37.414c-0.881,0-1.73-0.481-2.162-1.319l-7.673-14.904c-0.615-1.192-0.148-2.66,1.048-3.278
				c1.195-0.613,2.661-0.146,3.277,1.054l7.673,14.9c0.615,1.195,0.146,2.66-1.048,3.274
				C-46.792-37.503-47.177-37.414-47.553-37.414z"/>
		</g>
	</g>
</g>
<g>
	<path fill="#F27D8A" d="M-26.698-45.796c-0.33-0.664-0.795-1.24-1.39-1.714c-0.576-0.47-1.265-0.871-2.053-1.218
		c-0.101-0.075-0.202-0.151-0.313-0.214l0.015-0.021c-0.081-0.037-0.158-0.066-0.234-0.098c-0.01,0-0.016-0.005-0.021-0.011
		c-0.701-0.287-1.307-0.483-2.169-0.767c-0.5-0.17-0.939-0.32-1.321-0.461c-0.377-0.145-0.697-0.291-0.951-0.453
		c-0.253-0.161-0.447-0.334-0.575-0.521c-0.129-0.188-0.191-0.41-0.191-0.661c0-0.257,0.061-0.473,0.18-0.651
		c0.118-0.178,0.279-0.326,0.478-0.435c0.202-0.108,0.438-0.188,0.698-0.241c0.267-0.048,0.549-0.074,0.852-0.074
		c0.292,0,0.58,0.043,0.864,0.13c0.281,0.089,0.55,0.196,0.809,0.329c0.257,0.133,0.493,0.281,0.718,0.445
		c0.225,0.164,0.428,0.324,0.609,0.478h0.007l0.021,0.019c0.188,0.153,0.394,0.268,0.604,0.352c0.934,0.369,2.041,0.106,2.704-0.719
		c0.809-1.018,0.645-2.498-0.369-3.308l-0.299-0.237l-0.351-0.26c-0.275-0.197-0.572-0.387-0.882-0.566
		c-0.739-0.414-1.488-0.715-2.252-0.899c-0.762-0.188-1.562-0.282-2.39-0.282c-1.104,0-2.107,0.137-3.004,0.405
		c-0.893,0.269-1.654,0.649-2.29,1.144c-0.636,0.493-1.125,1.084-1.467,1.781c-0.344,0.688-0.513,1.458-0.513,2.309
		c0,0.803,0.137,1.532,0.411,2.185c0.273,0.651,0.683,1.247,1.232,1.793c0.549,0.537,1.229,1.036,2.053,1.477
		c0.823,0.443,1.781,0.854,2.876,1.238c0.248,0.081,0.54,0.188,0.879,0.311c0.251,0.094,0.494,0.18,0.73,0.283
		c0.081,0.069,0.15,0.146,0.239,0.203l-0.02,0.031c0.312,0.176,0.574,0.373,0.788,0.596c0.215,0.225,0.32,0.479,0.32,0.762
		c0,0.254-0.041,0.496-0.114,0.725c-0.077,0.227-0.21,0.432-0.393,0.602c-0.184,0.174-0.43,0.312-0.747,0.422
		c-0.312,0.104-0.704,0.152-1.171,0.152c-0.5,0-0.979-0.086-1.438-0.26c-0.457-0.17-0.918-0.414-1.382-0.727
		c-0.312-0.207-0.589-0.422-0.829-0.637c-0.082-0.072-0.153-0.133-0.228-0.195h0.004l-0.396-0.391
		c-0.174-0.168-0.365-0.303-0.568-0.404c-0.896-0.457-2.021-0.301-2.761,0.463c-0.728,0.75-0.841,1.855-0.378,2.732
		c0.024,0.133,0.126,0.293,0.308,0.488c0.008,0.01,0.017,0.021,0.025,0.021c0.01,0.006,0.021,0.016,0.027,0.033
		c0.01,0.012,0.02,0.016,0.025,0.02c0.01,0.008,0.021,0.02,0.029,0.037l0.043,0.039c0.145,0.155,0.343,0.36,0.594,0.617
		c0.251,0.254,0.56,0.521,0.925,0.785c0.878,0.631,1.822,1.133,2.836,1.512c1.011,0.371,2.043,0.562,3.094,0.562
		c1.114,0,2.154-0.159,3.121-0.473c0.972-0.314,1.812-0.765,2.529-1.334c0.715-0.578,1.28-1.274,1.689-2.09
		c0.409-0.82,0.613-1.73,0.613-2.734C-26.199-44.318-26.363-45.128-26.698-45.796z"/>
</g>
<path fill="#DF98D5" d="M-67.293-49.983c-0.244-0.863-0.591-1.671-1.037-2.415c-0.444-0.748-0.981-1.421-1.61-2.026
	c-0.629-0.604-1.327-1.119-2.084-1.551c-0.763-0.434-1.58-0.768-2.457-1c-0.879-0.232-1.79-0.351-2.733-0.351h-4.907l-0.129,0.004
	c-0.54,0.013-1.032,0.215-1.429,0.526c-0.581,0.446-0.963,1.143-0.963,1.931v15.119c0,0.664,0.268,1.264,0.697,1.703
	c0.428,0.455,1.026,0.748,1.694,0.764l0.129,0.006h4.906c0.943,0,1.856-0.105,2.738-0.343c0.883-0.229,1.704-0.556,2.466-0.979
	c0.76-0.422,1.452-0.938,2.077-1.537c0.623-0.603,1.163-1.273,1.61-2.019c0.451-0.746,0.798-1.545,1.041-2.403
	c0.243-0.854,0.363-1.763,0.363-2.718C-66.92-48.215-67.043-49.12-67.293-49.983z M-72.485-45.316
	c-0.248,0.604-0.591,1.129-1.026,1.574c-0.438,0.441-0.948,0.806-1.531,1.078c-0.586,0.271-1.214,0.438-1.89,0.492
	c-0.197,0.018-0.396,0.033-0.595,0.045c-0.197,0.016-1.81,0.021-2.019,0.021h-0.235V-52.51h0.235l2.057,0.031
	c0.736,0,1.436,0.126,2.086,0.385c0.651,0.256,1.222,0.612,1.711,1.078c0.479,0.465,0.866,1.012,1.15,1.65
	c0.282,0.628,0.421,1.326,0.421,2.082C-72.117-46.575-72.238-45.917-72.485-45.316z"/>
<g>
	<g>
		<path fill="#FB7066" d="M-9.428-54.812c-0.186,1.329-1.411,2.257-2.74,2.069c-3.007-0.424-5.793,1.678-6.214,4.678
			c-0.424,3.005,1.678,5.793,4.679,6.211c1.332,0.188,2.258,1.423,2.073,2.749c-0.188,1.333-1.42,2.26-2.752,2.068
			c-5.654-0.795-9.61-6.047-8.818-11.701c0.798-5.66,6.046-9.616,11.708-8.825C-10.163-57.372-9.238-56.143-9.428-54.812z"/>
	</g>
	<g>
		<path fill="#FFB660" d="M-2.673-45.858c-0.796,5.661-6.047,9.616-11.709,8.821c-1.324-0.186-2.254-1.416-2.063-2.746
			c0.185-1.33,1.414-2.258,2.742-2.072c3.004,0.426,5.79-1.673,6.212-4.678c0.188-1.332,1.415-2.263,2.746-2.067
			C-3.411-48.411-2.488-47.184-2.673-45.858z"/>
	</g>
	<g>
		<path fill="#FC8A64" d="M-2.673-45.858c-0.188,1.331-1.416,2.263-2.748,2.071c-1.331-0.188-2.258-1.416-2.07-2.746
			c0.424-3.003-1.678-5.79-4.677-6.211c-1.333-0.188-2.259-1.418-2.07-2.747c0.185-1.331,1.414-2.256,2.746-2.073
			C-5.837-56.766-1.878-51.514-2.673-45.858z"/>
	</g>
</g>
<g>
	<g>
		<path fill="#FFB660" d="M22.552-37.382c0.265,0,0.53-0.045,0.791-0.136c1.271-0.435,1.946-1.815,1.509-3.09L19.739-55.51
			c-0.314-0.918-1.146-1.561-2.113-1.631c-0.973-0.08-1.892,0.432-2.34,1.293l1.688,7.264l3.277,9.557
			C20.598-38.019,21.542-37.382,22.552-37.382z"/>
	</g>
	<g>
		<path fill="#FFD75B" d="M12.406-42.78c-0.351,0.004-0.71-0.069-1.05-0.231c-1.217-0.568-1.738-2.016-1.168-3.228l5.064-9.574
			c0.568-1.218,2.018-1.738,3.235-1.171c1.218,0.571,1.74,2.021,1.169,3.238l-5.068,9.569C14.181-43.298,13.316-42.784,12.406-42.78
			z"/>
	</g>
	<g>
		<path fill="#FFD75B" d="M2.277-37.382c-0.262,0-0.528-0.045-0.789-0.136c-1.271-0.435-1.95-1.815-1.514-3.09L5.091-55.51
			c0.312-0.918,1.146-1.561,2.112-1.631c0.969-0.08,1.89,0.432,2.336,1.293l4.869,9.292c0.626,1.191,0.164,2.659-1.023,3.281
			c-1.19,0.623-2.663,0.162-3.284-1.025l-2.242-4.284l-3.282,9.557C4.23-38.019,3.284-37.382,2.277-37.382z"/>
	</g>
</g>
<g>
	<g>
		<path fill="#353535" stroke="#FFFFFF" stroke-width="1.309" stroke-linejoin="round" stroke-miterlimit="10" d="M105.775-2.685
			c-0.436-0.974-1.578-1.417-2.551-0.979c-0.703,0.312-2.967,1.365-5.142,2.826c-1.385-1.184-3.501-2.107-6.628-2.107
			c-3.13,0-5.301,0.886-6.772,1.909c-1.484-1.042-3.596-1.909-6.548-1.909c-3.156,0-5.231,0.944-6.543,2.122
			C70.281-2,68.204-2.944,65.049-2.944c-4.396,0-6.923,2.117-8.161,4.074c-0.074-0.075-0.138-0.154-0.212-0.228
			c-2.658-2.595-5.94-3.892-9.849-3.892c-3.656,0-6.757,1.149-9.317,3.419c-2.848,1.426-6.38-0.526-7.954-1.448
			c-0.018-0.011-0.036-0.012-0.053-0.022c-0.773-0.439-1.606-0.816-2.515-1.12c-1.654-0.552-3.321-0.83-5-0.83
			c-2.605,0-4.793,0.659-6.56,1.975c-1.767,1.317-2.649,3.191-2.649,5.622c0,2.431,0.776,4.234,2.33,5.413
			c0.778,0.625,1.666,1.134,2.67,1.521c1.001,0.389,2.466,0.815,4.397,1.279c1.929,0.465,3.288,0.978,4.078,1.54
			c0.79,0.563,1.185,1.354,1.185,2.369c0,1.014-0.42,1.83-1.259,2.441c-0.841,0.614-1.975,0.922-3.403,0.922
			c-2.856,0-5.613-1.152-8.269-3.456l-0.011,0.012c-0.391-0.379-0.921-0.615-1.508-0.615c-1.197,0-2.167,0.973-2.167,2.17
			c0,0.728,0.364,1.37,0.917,1.762l-0.012,0.015c3.181,2.834,6.828,4.248,10.938,4.248c2.806,0,5.074-0.712,6.803-2.141
			c1.729-1.429,2.595-3.293,2.595-5.584c0-2.294-0.683-4.029-2.049-5.205c-1.367-1.18-3.397-2.092-6.09-2.746
			c-2.694-0.65-4.454-1.258-5.28-1.822c-0.828-0.563-1.241-1.377-1.241-2.443c0-1.064,0.413-1.864,1.241-2.388
			c0.827-0.525,1.884-0.787,3.175-0.787s2.632,0.139,3.93,0.673c0.725,0.298,1.495,0.642,2.14,0.939
			c0.033,0.018,4.138,1.915,6.296,2.14c-0.784,1.726-1.189,3.634-1.189,5.737c0,3.874,1.327,7.105,3.984,9.696
			c2.655,2.596,5.938,3.894,9.848,3.894c3.908,0,7.191-1.298,9.849-3.894c2.658-2.591,3.984-5.822,3.984-9.696
			c0-2.163-0.429-4.12-1.259-5.883c0.16-0.203,0.295-0.427,0.368-0.69c0.085-0.318,0.969-3.106,5.28-3.106
			c1.989,0,3.023,0.286,3.674,0.783c-3.087,2.744-3.765,8.707-3.722,11.627l0.005,0.729c-0.001,2.303-0.002,9.833,6.108,9.897
			c0.009,0,0.068,0,0.076,0c2.635,0,4.572-1.477,5.459-4.159c0.616-1.864,0.614-4.482,0.614-5.852l0.005-0.62
			c0.039-2.713,0.12-7.839-2.519-10.512c-0.233-0.235-0.481-0.44-0.743-0.62c0.557-0.6,1.714-1.274,4.127-1.274
			c1.729,0,3,0.418,3.917,0.945c-0.013,0.026-0.029,0.056-0.038,0.076c-3.837,2.075-3.755,8.498-3.711,11.39l0.005,0.729
			c-0.002,2.303-0.004,9.833,6.108,9.897c0.009,0,0.068,0,0.077,0c2.634,0,4.57-1.477,5.457-4.159
			c0.617-1.864,0.614-4.482,0.614-5.852l0.007-0.62c0.038-2.713,0.118-7.839-2.52-10.512c-0.098-0.099-0.213-0.173-0.315-0.263
			c-0.002-0.004-0.003-0.011-0.005-0.016c-0.019-0.046-0.136-0.313-0.359-0.697c0.913-0.504,2.224-0.919,4.083-0.919
			c1.698,0,2.825,0.342,3.574,0.777c-0.322,0.354-0.62,0.716-0.859,1.087c-2.682,2.709-2.604,7.973-2.567,10.546l0.006,0.729
			c-0.003,2.303-0.005,9.833,6.107,9.897c0.009,0,0.069,0,0.075,0c2.636,0,4.573-1.477,5.46-4.159
			c0.616-1.864,0.614-4.482,0.614-5.852l0.005-0.62c0.039-2.713,0.118-7.839-2.519-10.512c-0.244-0.248-0.507-0.462-0.785-0.65
			c1.395-0.9,2.972-1.738,4.229-2.297C105.771-0.567,106.207-1.708,105.775-2.685z M53.423,17.351
			c-1.792,1.852-3.991,2.781-6.596,2.781c-2.607,0-4.806-0.93-6.598-2.781c-1.792-1.857-2.688-4.105-2.688-6.75
			c0-2.644,0.896-4.891,2.688-6.747c1.792-1.852,3.991-2.78,6.598-2.78c2.605,0,4.804,0.928,6.596,2.78
			c1.792,1.856,2.69,4.104,2.69,6.747C56.113,13.245,55.215,15.493,53.423,17.351z M73.408,13.274L73.4,14.063
			c0,1.085,0.002,3.251-0.418,4.522c-0.416,1.255-0.994,1.506-1.791,1.506h-0.032c-1.414-0.015-2.288-1.466-2.287-6.145l-0.009-0.67
			c-0.097-7.083,1.198-8.066,2.326-8.081c0.343,0,0.577,0.095,0.81,0.332C73.502,7.052,73.43,11.607,73.408,13.274z M86.708,13.274
			l-0.009,0.789c0,1.085,0.002,3.251-0.418,4.522c-0.415,1.255-0.993,1.506-1.789,1.506h-0.035
			c-1.412-0.015-2.288-1.466-2.286-6.145l-0.008-0.67c-0.099-7.083,1.196-8.066,2.326-8.081c0.343,0,0.576,0.095,0.809,0.332
			C86.802,7.052,86.73,11.607,86.708,13.274z M100.008,13.274L100,14.063c0,1.085,0.002,3.251-0.418,4.522
			c-0.416,1.255-0.994,1.506-1.792,1.506h-0.032c-1.414-0.015-2.287-1.466-2.285-6.145l-0.01-0.67
			c-0.068-4.918,0.536-6.622,1.29-7.531c0.103-0.083,0.198-0.17,0.285-0.273c0.247-0.191,0.504-0.273,0.75-0.277
			c0.344,0,0.578,0.095,0.811,0.332C100.103,7.052,100.031,11.607,100.008,13.274z"/>
		
			<circle fill="#353535" stroke="#FFFFFF" stroke-width="1.309" stroke-linejoin="round" stroke-miterlimit="10" cx="13.016" cy="18.182" r="2.208"/>
		
			<circle fill="#353535" stroke="#FFFFFF" stroke-width="1.309" stroke-linejoin="round" stroke-miterlimit="10" cx="58.383" cy="2.24" r="2.208"/>
		
			<circle fill="#353535" stroke="#FFFFFF" stroke-width="1.309" stroke-linejoin="round" stroke-miterlimit="10" cx="110.45" cy="-4.72" r="2.209"/>
		<path fill="#353535" stroke="#FFFFFF" stroke-width="1.309" stroke-linejoin="round" stroke-miterlimit="10" d="M74.889,1.546
			c0,0-3.229,0.693-4.918,4.455"/>
		<path fill="#353535" stroke="#FFFFFF" stroke-width="1.309" stroke-linejoin="round" stroke-miterlimit="10" d="M71.591-0.823
			c0,0-1.62,0.854-2.868,2.526"/>
		<path fill="#353535" stroke="#FFFFFF" stroke-width="1.309" stroke-linejoin="round" stroke-miterlimit="10" d="M88.134,1.615
			c0,0-3.229,0.693-4.916,4.454"/>
		<path fill="#353535" stroke="#FFFFFF" stroke-width="1.309" stroke-linejoin="round" stroke-miterlimit="10" d="M101.486,1.704
			c0,0-3.332,0.693-5.021,4.454"/>
	</g>
	<path fill="#353535" stroke="#FFFFFF" stroke-width="1.309" stroke-linejoin="round" stroke-miterlimit="10" d="M33.634,6
		c0,0,1.219-3.761,4.424-5.969"/>
</g>
</svg>
