<?xml version="1.0" encoding="utf-8"?>
<!-- Generator: Adobe Illustrator 16.0.0, SVG Export Plug-In . SVG Version: 6.00 Build 0)  -->
<!DOCTYPE svg PUBLIC "-//W3C//DTD SVG 1.1//EN" "http://www.w3.org/Graphics/SVG/1.1/DTD/svg11.dtd">
<svg version="1.1" id="Layer_1" xmlns="http://www.w3.org/2000/svg" xmlns:xlink="http://www.w3.org/1999/xlink" x="0px" y="0px"
	 width="83.487px" height="18.019px" viewBox="0 0 83.487 18.019" enable-background="new 0 0 83.487 18.019" xml:space="preserve">
<g>
	<circle fill="#555557" cx="4.887" cy="7.731" r="3.644"/>
	<path fill="#555557" d="M0,15.929c0-2.697,2.188-4.885,4.887-4.885s4.887,2.188,4.887,4.885"/>
	<circle fill="#555557" cx="18.891" cy="7.731" r="3.645"/>
	<path fill="#555557" d="M14.004,15.929c0-2.697,2.188-4.885,4.887-4.885s4.887,2.188,4.887,4.885"/>
	<circle fill="#D6D5D5" cx="32.325" cy="7.731" r="3.644"/>
	<path fill="#D6D5D5" d="M27.438,15.929c0-2.697,2.188-4.885,4.887-4.885s4.887,2.188,4.887,4.885"/>
	<circle fill="#D6D5D5" cx="45.761" cy="7.731" r="3.644"/>
	<path fill="#D6D5D5" d="M40.873,15.929c0-2.697,2.188-4.885,4.887-4.885s4.887,2.188,4.887,4.885"/>
	<circle fill="#D6D5D5" cx="59.196" cy="7.731" r="3.644"/>
	<path fill="#D6D5D5" d="M54.309,15.929c0-2.697,2.188-4.885,4.887-4.885s4.887,2.188,4.887,4.885"/>
	<circle fill="#D6D5D5" cx="72.63" cy="7.731" r="3.644"/>
	<path fill="#D6D5D5" d="M67.744,15.929c0-2.697,2.188-4.885,4.886-4.885c2.7,0,4.888,2.188,4.888,4.885"/>
</g>
</svg>
