<?xml version="1.0" encoding="utf-8"?>
<!-- Generator: Adobe Illustrator 16.0.0, SVG Export Plug-In . SVG Version: 6.00 Build 0)  -->
<!DOCTYPE svg PUBLIC "-//W3C//DTD SVG 1.1//EN" "http://www.w3.org/Graphics/SVG/1.1/DTD/svg11.dtd">
<svg version="1.1" id="Layer_1" xmlns="http://www.w3.org/2000/svg" xmlns:xlink="http://www.w3.org/1999/xlink" x="0px" y="0px"
	 width="43.112px" height="23px" viewBox="-6.153 13.959 43.112 23" enable-background="new -6.153 13.959 43.112 23"
	 xml:space="preserve">
<g>
	<path fill="#545454" d="M67.982,41.826c-1.674,0-2.967-0.45-3.842-1.336c-1.062-1.077-1.074-2.369-1.072-2.514
		c0.007-0.47,0.384-0.845,0.861-0.838c0.467,0.006,0.84,0.387,0.84,0.854c0.002,0.224,0.121,2.133,3.213,2.133
		c2.768,0,2.848-1.98,2.848-2.207c0-0.471,0.381-0.852,0.852-0.852c0.469,0,0.851,0.381,0.851,0.852
		C72.531,39.27,71.581,41.826,67.982,41.826z"/>
</g>
<g>
	<circle fill="#F27D8A" cx="-62.821" cy="9.805" r="25.459"/>
	<path opacity="0.3" fill="#664A3D" enable-background="new    " d="M-49.549,24.653c0,0.819-0.668,1.482-1.485,1.482h-16.905
		c-0.815,0-1.482-0.663-1.482-1.482V-0.284c0-0.815,0.667-1.482,1.482-1.482h16.904c0.817,0,1.485,0.667,1.485,1.482L-49.549,24.653
		L-49.549,24.653z"/>
	<path fill="#FFFFFF" d="M-53.715,20.469c0,0.82-0.668,1.485-1.482,1.485H-72.11c-0.815,0-1.482-0.665-1.482-1.485V-4.475
		c0-0.813,0.667-1.48,1.482-1.48h16.912c0.814,0,1.482,0.667,1.482,1.48L-53.715,20.469L-53.715,20.469z"/>
	<path fill="#F0ECE0" d="M-56.042,15.474c0,0.647-0.51,1.175-1.137,1.175h-12.95c-0.623,0-1.133-0.527-1.133-1.175V-2.921
		c0-0.649,0.51-1.177,1.133-1.177h12.951c0.627,0,1.137,0.527,1.137,1.177L-56.042,15.474L-56.042,15.474z"/>
	<path fill="#FC8A64" d="M-63.272,18.014c0.53,0,0.961,0.431,0.961,0.961c0,0.53-0.431,0.961-0.961,0.961
		c-0.527,0-0.961-0.431-0.961-0.961C-64.233,18.445-63.799,18.014-63.272,18.014z"/>
</g>
<line fill="none" stroke="#545454" stroke-width="1.7008" stroke-linecap="round" stroke-linejoin="round" stroke-miterlimit="10" x1="10.941" y1="-91.93" x2="20.358" y2="-91.93"/>
<path fill="#FFFFFF" stroke="#545454" stroke-width="1.7008" stroke-linecap="round" stroke-linejoin="round" stroke-miterlimit="10" d="
	M8.082-83.905c0,0,12.457-12.083,11.483-16.558c-0.763-1.753-3.084-2.679-3.935,4.37c-0.366,3.036-0.188,3.052-0.188,3.052
	s-6.115,12.66-4.259,15.548c1.857,2.891,8.04,2.82,11.223-4.971"/>
<path fill="none" stroke="#FFFFFF" stroke-width="0.8653" stroke-linejoin="round" stroke-miterlimit="10" d="M18.347-93.565
	c0,0-2.777,2.564-3.104,4.84"/>
<circle fill="#545454" stroke="#FFFFFF" stroke-width="0.6336" stroke-linejoin="round" stroke-miterlimit="10" cx="22.406" cy="-82.183" r="1.069"/>
<circle fill="#545454" stroke="#FFFFFF" stroke-width="0.6336" stroke-linejoin="round" stroke-miterlimit="10" cx="71.76" cy="37.952" r="1.069"/>
<g>
	<path fill="#545454" d="M63.205,35.906c-1.962,0-3.559-1.598-3.559-3.561l-0.004-0.4c-0.016-0.973-0.039-2.6,0.318-4.039
		c0.63-2.537,2.104-3.089,3.23-3.105c0,0,0,0,0.002,0c0.863,0,1.584,0.297,2.139,0.858c1.507,1.528,1.462,4.624,1.438,6.286
		l-0.004,0.402C66.768,34.311,65.169,35.906,63.205,35.906z M63.243,26.501c-0.343,0.005-1.185,0.017-1.632,1.815
		c-0.303,1.226-0.281,2.715-0.27,3.604l0.006,0.428c0,1.023,0.832,1.857,1.856,1.857c1.026,0,1.86-0.834,1.86-1.857l0.004-0.428
		c0.019-1.211,0.06-4.045-0.947-5.066C63.885,26.613,63.605,26.501,63.243,26.501z"/>
</g>
<g>
	<path fill="#545454" d="M71.984,35.906c-1.963,0-3.562-1.598-3.562-3.561l-0.004-0.4c-0.015-0.973-0.038-2.6,0.319-4.039
		c0.631-2.537,2.105-3.089,3.232-3.105c0.002,0,0.002,0,0.002,0c0.862,0,1.584,0.296,2.137,0.857
		c1.506,1.527,1.459,4.623,1.436,6.285l-0.004,0.404C75.542,34.311,73.945,35.906,71.984,35.906z M72.023,26.501
		c-0.344,0.005-1.188,0.017-1.633,1.815c-0.306,1.227-0.283,2.715-0.271,3.604l0.005,0.428c0,1.023,0.834,1.857,1.86,1.857
		c1.022,0,1.854-0.834,1.854-1.857l0.005-0.43c0.018-1.211,0.061-4.045-0.945-5.066C72.663,26.611,72.385,26.501,72.023,26.501z"/>
</g>
<g>
	
		<path fill="none" stroke="#545454" stroke-width="1.7008" stroke-linecap="round" stroke-linejoin="round" stroke-miterlimit="10" d="
		M66.475,17.881"/>
</g>
<g>
	<path fill="#545454" d="M52.814,14.61c-0.066,0-0.135-0.008-0.203-0.025c-0.452-0.112-0.731-0.564-0.623-1.018
		c0.296-1.245,1.814-3.601,5.445-3.601c4.631,0,5.053,3.079,5.067,3.21c0.056,0.466-0.276,0.89-0.744,0.945
		c-0.469,0.06-0.88-0.271-0.942-0.729c-0.018-0.097-0.344-1.726-3.381-1.726c-3.16,0-3.77,2.207-3.793,2.301
		C53.541,14.353,53.193,14.61,52.814,14.61z"/>
</g>
<g>
	<path fill="#545454" d="M72.62,11.392c-0.336,0-0.654-0.201-0.788-0.531c-0.036-0.083-0.992-2.229-4.25-2.229
		c-3.139,0-3.377,1.694-3.379,1.711c-0.057,0.467-0.473,0.801-0.946,0.743c-0.466-0.056-0.799-0.479-0.743-0.945
		c0.016-0.131,0.438-3.21,5.068-3.21c4.439,0,5.771,3.156,5.826,3.291c0.177,0.435-0.033,0.931-0.469,1.107
		C72.835,11.372,72.727,11.392,72.62,11.392z"/>
</g>
<g>
	<path fill="#545454" d="M70.628,26.598c-0.116-0.039-0.226-0.104-0.319-0.193c-0.34-0.323-0.352-0.862-0.025-1.202
		c1.443-1.506,3.871-1.962,7.22-1.355c0.453,0.081,0.769,0.525,0.685,0.988c-0.082,0.462-0.525,0.769-0.987,0.685
		c-1.892-0.343-4.413-0.472-5.688,0.859C71.275,26.623,70.93,26.697,70.628,26.598z"/>
</g>
<g>
	<path fill="#545454" d="M61.32,27.205c-0.115-0.038-0.225-0.102-0.319-0.191c-0.339-0.326-0.351-0.863-0.024-1.204
		c1.442-1.506,3.871-1.962,7.219-1.355c0.453,0.081,0.77,0.525,0.686,0.988c-0.083,0.462-0.525,0.769-0.988,0.685
		c-1.891-0.343-4.412-0.472-5.688,0.858C61.969,27.23,61.623,27.307,61.32,27.205z"/>
</g>
<path fill="none" stroke="#FFFFFF" stroke-width="0.6336" stroke-linejoin="round" stroke-miterlimit="10" d="M83.139,8.542
	c0,0-3.615,0.943-3.863,2.85"/>
<path fill="none" stroke="#FFFFFF" stroke-width="0.8653" stroke-linejoin="round" stroke-miterlimit="10" d="M62.67,27.241
	c0,0,1.494-2.049,4.107-0.897"/>
<path fill="none" stroke="#FFFFFF" stroke-width="0.8653" stroke-linejoin="round" stroke-miterlimit="10" d="M71.744,26.917
	c0,0,1.494-2.049,4.107-0.897"/>
<polygon fill="#3A63BF" points="-2.798,37.952 -7.924,45.926 -2.827,54.524 2.376,46.238 "/>
<polygon fill="#3A63BF" points="38.721,38.598 43.599,31.301 48.477,38.598 43.599,45.531 "/>
<circle fill="none" stroke="#3A63BF" stroke-miterlimit="10" cx="-12.175" cy="-4.098" r="5.575"/>
<circle fill="none" stroke="#3A63BF" stroke-miterlimit="10" cx="-12.175" cy="-4.104" r="3.32"/>
<circle fill="none" stroke="#3A63BF" stroke-miterlimit="10" cx="-12.175" cy="-4.165" r="1.404"/>
<ellipse fill="#58DBF9" cx="13.483" cy="0.247" rx="1.526" ry="2.076"/>
<ellipse fill="none" stroke="#545454" stroke-width="0.9921" stroke-miterlimit="10" cx="12.552" cy="-0.784" rx="2.457" ry="3.722"/>
<ellipse fill="#58DBF9" cx="21.034" cy="0.247" rx="1.525" ry="2.076"/>
<ellipse fill="none" stroke="#545454" stroke-width="0.9921" stroke-miterlimit="10" cx="20.102" cy="-0.784" rx="2.457" ry="3.722"/>
<circle fill="#3FD880" cx="25.709" cy="21.752" r="2.457"/>
<circle fill="#3FD880" cx="21.087" cy="26.373" r="2.457"/>
<circle fill="#3FD880" cx="27.474" cy="27.85" r="2.457"/>
</svg>
