<?xml version="1.0" encoding="utf-8"?>
<!-- Generator: Adobe Illustrator 16.0.0, SVG Export Plug-In . SVG Version: 6.00 Build 0)  -->
<!DOCTYPE svg PUBLIC "-//W3C//DTD SVG 1.1//EN" "http://www.w3.org/Graphics/SVG/1.1/DTD/svg11.dtd">
<svg version="1.1" id="Layer_1" xmlns="http://www.w3.org/2000/svg" xmlns:xlink="http://www.w3.org/1999/xlink" x="0px" y="0px"
	 width="50.918px" height="50.918px" viewBox="-13.548 -13.849 50.918 50.918"
	 enable-background="new -13.548 -13.849 50.918 50.918" xml:space="preserve">
<g>
	<circle fill="#F27D8A" cx="11.911" cy="11.61" r="25.459"/>
	<path opacity="0.3" fill="#664A3D" enable-background="new    " d="M25.183,26.458c0,0.82-0.668,1.482-1.485,1.482H6.793
		c-0.815,0-1.482-0.662-1.482-1.482V1.521c0-0.815,0.667-1.482,1.482-1.482h16.904c0.817,0,1.485,0.667,1.485,1.482V26.458z"/>
	<path fill="#FFFFFF" d="M21.017,22.274c0,0.82-0.668,1.485-1.482,1.485H2.622c-0.815,0-1.482-0.665-1.482-1.485V-2.67
		c0-0.813,0.667-1.48,1.482-1.48h16.912c0.814,0,1.482,0.667,1.482,1.48V22.274z"/>
	<path fill="#F0ECE0" d="M18.69,17.279c0,0.647-0.51,1.175-1.137,1.175H4.603c-0.623,0-1.133-0.527-1.133-1.175V-1.116
		c0-0.649,0.51-1.177,1.133-1.177h12.951c0.627,0,1.137,0.527,1.137,1.177V17.279z"/>
	<path fill="#FC8A64" d="M11.46,19.819c0.53,0,0.961,0.431,0.961,0.961s-0.431,0.961-0.961,0.961c-0.527,0-0.961-0.431-0.961-0.961
		S10.933,19.819,11.46,19.819z"/>
</g>
</svg>
