<?xml version="1.0" encoding="utf-8"?>
<!-- Generator: Adobe Illustrator 16.0.0, SVG Export Plug-In . SVG Version: 6.00 Build 0)  -->
<!DOCTYPE svg PUBLIC "-//W3C//DTD SVG 1.1//EN" "http://www.w3.org/Graphics/SVG/1.1/DTD/svg11.dtd">
<svg version="1.1" id="Layer_1" xmlns="http://www.w3.org/2000/svg" xmlns:xlink="http://www.w3.org/1999/xlink" x="0px" y="0px"
	 width="50.918px" height="50.918px" viewBox="0 0 50.918 50.918" enable-background="new 0 0 50.918 50.918" xml:space="preserve">
<g>
	<path fill="#545454" d="M67.983,41.826c-1.675,0-2.967-0.45-3.842-1.336c-1.062-1.077-1.075-2.369-1.073-2.513
		c0.007-0.47,0.384-0.845,0.862-0.839c0.467,0.007,0.84,0.388,0.839,0.854c0.003,0.224,0.121,2.133,3.214,2.133
		c2.767,0,2.847-1.981,2.847-2.207c0-0.47,0.381-0.851,0.851-0.851s0.851,0.381,0.851,0.851
		C72.531,39.27,71.581,41.826,67.983,41.826z"/>
</g>
<g>
	<circle fill="#F27D8A" cx="-62.821" cy="9.805" r="25.459"/>
	<path opacity="0.3" fill="#664A3D" enable-background="new    " d="M-49.549,24.653c0,0.819-0.668,1.482-1.485,1.482h-16.905
		c-0.815,0-1.482-0.663-1.482-1.482V-0.284c0-0.815,0.667-1.482,1.482-1.482h16.904c0.817,0,1.485,0.667,1.485,1.482L-49.549,24.653
		L-49.549,24.653z"/>
	<path fill="#FFFFFF" d="M-53.715,20.469c0,0.82-0.668,1.485-1.482,1.485H-72.11c-0.815,0-1.482-0.665-1.482-1.485V-4.475
		c0-0.813,0.667-1.48,1.482-1.48h16.912c0.814,0,1.482,0.667,1.482,1.48L-53.715,20.469L-53.715,20.469z"/>
	<path fill="#F0ECE0" d="M-56.042,15.474c0,0.647-0.51,1.175-1.137,1.175h-12.95c-0.623,0-1.133-0.527-1.133-1.175V-2.921
		c0-0.649,0.51-1.177,1.133-1.177h12.951c0.627,0,1.137,0.527,1.137,1.177L-56.042,15.474L-56.042,15.474z"/>
	<path fill="#FC8A64" d="M-63.272,18.014c0.53,0,0.961,0.431,0.961,0.961c0,0.53-0.431,0.961-0.961,0.961
		c-0.527,0-0.961-0.431-0.961-0.961C-64.233,18.445-63.799,18.014-63.272,18.014z"/>
</g>
<line fill="#FFFFFF" stroke="#545454" stroke-width="1.7008" stroke-linecap="round" stroke-linejoin="round" stroke-miterlimit="10" x1="20.622" y1="22.963" x2="30.039" y2="22.963"/>
<path fill="#FFFFFF" stroke="#545454" stroke-width="1.7008" stroke-linecap="round" stroke-linejoin="round" stroke-miterlimit="10" d="
	M17.762,30.988c0,0,12.457-12.082,11.483-16.558c-0.762-1.753-3.084-2.679-3.935,4.37c-0.366,3.036-0.188,3.052-0.188,3.052
	s-6.115,12.66-4.259,15.548c1.857,2.891,8.04,2.82,11.223-4.971"/>
<path fill="none" stroke="#FFFFFF" stroke-width="0.8653" stroke-linejoin="round" stroke-miterlimit="10" d="M28.027,21.328
	c0,0-2.777,2.564-3.103,4.84"/>
<circle fill="#545454" stroke="#FFFFFF" stroke-width="0.6336" stroke-linejoin="round" stroke-miterlimit="10" cx="32.087" cy="32.71" r="1.069"/>
<circle fill="#545454" stroke="#FFFFFF" stroke-width="0.6336" stroke-linejoin="round" stroke-miterlimit="10" cx="71.76" cy="37.952" r="1.069"/>
<g>
	<path fill="#545454" d="M63.205,35.906c-1.962,0-3.559-1.597-3.559-3.56l-0.004-0.401c-0.015-0.973-0.038-2.6,0.319-4.039
		c0.63-2.537,2.104-3.089,3.23-3.105c0.001,0,0.001,0,0.002,0c0.863,0,1.585,0.297,2.139,0.858c1.507,1.529,1.462,4.624,1.438,6.287
		l-0.004,0.401C66.767,34.31,65.169,35.906,63.205,35.906z M63.243,26.501c-0.343,0.005-1.185,0.017-1.631,1.815
		c-0.304,1.226-0.282,2.715-0.27,3.604l0.005,0.427c0,1.024,0.833,1.858,1.857,1.858c1.026,0,1.86-0.834,1.86-1.858l0.005-0.427
		c0.018-1.211,0.059-4.045-0.948-5.067C63.885,26.613,63.606,26.501,63.243,26.501z"/>
</g>
<g>
	<path fill="#545454" d="M71.985,35.906c-1.964,0-3.562-1.597-3.562-3.56l-0.004-0.401c-0.015-0.973-0.038-2.6,0.319-4.039
		c0.631-2.537,2.106-3.089,3.233-3.105c0.001,0,0.001,0,0.002,0c0.862,0,1.583,0.296,2.136,0.857
		c1.506,1.528,1.46,4.623,1.436,6.285l-0.004,0.404C75.542,34.31,73.946,35.906,71.985,35.906z M72.023,26.501
		c-0.343,0.005-1.187,0.017-1.633,1.815c-0.305,1.227-0.283,2.715-0.271,3.604l0.005,0.427c0,1.024,0.834,1.858,1.86,1.858
		c1.023,0,1.855-0.834,1.855-1.858l0.005-0.429c0.018-1.211,0.06-4.045-0.946-5.066C72.663,26.612,72.385,26.501,72.023,26.501z"/>
</g>
<g>
	
		<path fill="none" stroke="#545454" stroke-width="1.7008" stroke-linecap="round" stroke-linejoin="round" stroke-miterlimit="10" d="
		M66.474,17.881"/>
</g>
<g>
	<path fill="#545454" d="M52.815,14.61c-0.067,0-0.136-0.008-0.204-0.025c-0.452-0.112-0.731-0.564-0.623-1.018
		c0.296-1.245,1.814-3.601,5.446-3.601c4.63,0,5.052,3.079,5.067,3.21c0.056,0.466-0.277,0.89-0.744,0.945
		c-0.469,0.06-0.88-0.271-0.943-0.729c-0.017-0.097-0.343-1.726-3.38-1.726c-3.16,0-3.77,2.207-3.794,2.301
		C53.541,14.353,53.194,14.61,52.815,14.61z"/>
</g>
<g>
	<path fill="#545454" d="M72.62,11.392c-0.336,0-0.654-0.201-0.788-0.531c-0.036-0.083-0.992-2.229-4.25-2.229
		c-3.138,0-3.377,1.694-3.379,1.711c-0.056,0.467-0.472,0.801-0.946,0.743c-0.466-0.056-0.799-0.479-0.743-0.945
		c0.016-0.131,0.438-3.21,5.068-3.21c4.44,0,5.771,3.156,5.826,3.291c0.177,0.435-0.033,0.931-0.469,1.107
		C72.835,11.372,72.727,11.392,72.62,11.392z"/>
</g>
<g>
	<path fill="#545454" d="M70.628,26.598c-0.116-0.039-0.226-0.104-0.32-0.193c-0.339-0.324-0.351-0.863-0.025-1.203
		c1.443-1.506,3.872-1.962,7.22-1.355c0.453,0.081,0.769,0.525,0.685,0.988c-0.083,0.462-0.526,0.769-0.988,0.685
		c-1.891-0.343-4.413-0.472-5.688,0.859C71.275,26.623,70.93,26.697,70.628,26.598z"/>
</g>
<g>
	<path fill="#545454" d="M61.321,27.205c-0.116-0.038-0.226-0.102-0.32-0.192c-0.339-0.325-0.351-0.863-0.025-1.203
		c1.443-1.506,3.872-1.962,7.22-1.355c0.453,0.081,0.769,0.525,0.685,0.988c-0.083,0.462-0.526,0.769-0.988,0.685
		c-1.891-0.343-4.413-0.472-5.688,0.858C61.969,27.231,61.623,27.306,61.321,27.205z"/>
</g>
<path fill="none" stroke="#FFFFFF" stroke-width="0.6336" stroke-linejoin="round" stroke-miterlimit="10" d="M83.139,8.542
	c0,0-3.616,0.943-3.863,2.85"/>
<path fill="none" stroke="#FFFFFF" stroke-width="0.8653" stroke-linejoin="round" stroke-miterlimit="10" d="M62.67,27.241
	c0,0,1.494-2.049,4.107-0.898"/>
<path fill="none" stroke="#FFFFFF" stroke-width="0.8653" stroke-linejoin="round" stroke-miterlimit="10" d="M71.744,26.917
	c0,0,1.494-2.049,4.107-0.898"/>
<polygon fill="#3A63BF" points="10.986,8.542 5.401,16.242 10.493,25.114 15.779,16.494 "/>
</svg>
