<?xml version="1.0" encoding="utf-8"?>
<!-- Generator: Adobe Illustrator 16.0.0, SVG Export Plug-In . SVG Version: 6.00 Build 0)  -->
<!DOCTYPE svg PUBLIC "-//W3C//DTD SVG 1.1//EN" "http://www.w3.org/Graphics/SVG/1.1/DTD/svg11.dtd">
<svg version="1.1" id="Layer_1" xmlns="http://www.w3.org/2000/svg" xmlns:xlink="http://www.w3.org/1999/xlink" x="0px" y="0px"
	 width="24.479px" height="21.635px" viewBox="0 0 24.479 21.635" enable-background="new 0 0 24.479 21.635" xml:space="preserve">
<g>
	<path fill="#E5D7C6" d="M7.63,6.435c1.077,0,1.95-0.874,1.95-1.949V3.031c0-1.076-0.874-1.95-1.95-1.95l0,0
		c-1.078,0-1.951,0.874-1.951,1.95v1.455C5.679,5.562,6.552,6.435,7.63,6.435L7.63,6.435z"/>
	<path fill="#E5D7C6" d="M16.85,6.435c1.077,0,1.951-0.874,1.951-1.949V3.031c0-1.076-0.874-1.95-1.951-1.95l0,0
		c-1.077,0-1.95,0.874-1.95,1.95v1.455C14.9,5.562,15.773,6.435,16.85,6.435L16.85,6.435z"/>
	<g>
		<path fill="#E5D7C6" d="M12.244,20.553c-6.076,0-11.02-4.943-11.02-11.021c0-0.845,0.686-1.53,1.531-1.53
			c0.845,0,1.53,0.685,1.53,1.53c0,4.389,3.57,7.96,7.958,7.96c4.388,0,7.959-3.572,7.959-7.96c0-0.845,0.686-1.53,1.531-1.53
			c0.845,0,1.53,0.685,1.53,1.53C23.265,15.61,18.321,20.553,12.244,20.553z"/>
	</g>
</g>
<g>
	<path fill="#E5D7C6" d="M126.693,18.979c0.996,0,1.805-0.809,1.805-1.805v-1.348c0-0.996-0.809-1.805-1.805-1.805l0,0
		c-0.998,0-1.807,0.809-1.807,1.805v1.348C124.887,18.17,125.696,18.979,126.693,18.979L126.693,18.979z"/>
	<path fill="#E5D7C6" d="M135.229,18.979c0.996,0,1.806-0.809,1.806-1.805v-1.348c0-0.996-0.81-1.805-1.806-1.805l0,0
		c-0.997,0-1.807,0.809-1.807,1.805v1.348C133.423,18.17,134.232,18.979,135.229,18.979L135.229,18.979z"/>
	<g>
		<path fill="#E5D7C6" d="M130.964,32.051c-5.625,0-10.203-4.578-10.203-10.205c0-0.783,0.635-1.416,1.418-1.416
			c0.781,0,1.416,0.633,1.416,1.416c0,4.065,3.306,7.371,7.368,7.371c4.065,0,7.37-3.306,7.37-7.371
			c0-0.783,0.635-1.416,1.417-1.416c0.784,0,1.418,0.633,1.418,1.416C141.17,27.473,136.592,32.051,130.964,32.051z"/>
	</g>
</g>
</svg>
