<?xml version="1.0" encoding="utf-8"?>
<!-- Generator: Adobe Illustrator 16.0.0, SVG Export Plug-In . SVG Version: 6.00 Build 0)  -->
<!DOCTYPE svg PUBLIC "-//W3C//DTD SVG 1.1//EN" "http://www.w3.org/Graphics/SVG/1.1/DTD/svg11.dtd">
<svg version="1.1" id="Layer_1" xmlns="http://www.w3.org/2000/svg" xmlns:xlink="http://www.w3.org/1999/xlink" x="0px" y="0px"
	 width="58.85px" height="55.132px" viewBox="0 0 58.85 55.132" enable-background="new 0 0 58.85 55.132" xml:space="preserve">
<g>
	<path fill="#E5D7C6" d="M126.693,18.979c0.996,0,1.809-0.81,1.809-1.806v-1.348c0-0.996-0.812-1.806-1.809-1.806l0,0
		c-0.998,0-1.807,0.81-1.807,1.806v1.348C124.887,18.17,125.696,18.979,126.693,18.979L126.693,18.979z"/>
	<path fill="#E5D7C6" d="M135.229,18.979c0.996,0,1.81-0.81,1.81-1.806v-1.348c0-0.996-0.812-1.806-1.81-1.806l0,0
		c-0.997,0-1.808,0.81-1.808,1.806v1.348C133.423,18.17,134.232,18.979,135.229,18.979L135.229,18.979z"/>
	<g>
		<path fill="#E5D7C6" d="M130.964,32.051c-5.625,0-10.202-4.577-10.202-10.204c0-0.783,0.635-1.416,1.418-1.416
			c0.78,0,1.416,0.633,1.416,1.416c0,4.064,3.306,7.369,7.367,7.369s7.37-3.305,7.37-7.369c0-0.783,0.635-1.416,1.417-1.416
			c0.784,0,1.418,0.633,1.418,1.416C141.17,27.474,136.592,32.051,130.964,32.051z"/>
	</g>
</g>
<path fill="#F2ECE7" d="M99.376,64.464c0.896,0.895,0.896,2.344,0,3.238l0,0c-0.894,0.895-2.344,0.895-3.237,0L80.071,51.636
	c-0.896-0.895-0.896-2.346,0-3.239l0,0c0.896-0.894,2.342-0.894,3.237,0L99.376,64.464z"/>
<path fill="#F2ECE7" d="M80.071,64.464c-0.896,0.895-0.896,2.344,0,3.238l0,0c0.895,0.895,2.342,0.895,3.237,0l16.066-16.066
	c0.896-0.895,0.896-2.346,0-3.239l0,0c-0.896-0.894-2.344-0.894-3.237,0L80.071,64.464z"/>
<g>
	<path fill="#F2ECE7" d="M78.754,35.739c-2.428,0-4.299-0.654-5.565-1.936c-1.54-1.562-1.561-3.435-1.558-3.644
		c0.013-0.681,0.559-1.224,1.251-1.214c0.678,0.009,1.218,0.561,1.215,1.236c0.006,0.322,0.176,3.09,4.657,3.09
		c4.009,0,4.124-2.872,4.124-3.196c0-0.683,0.553-1.233,1.233-1.233c0.68,0,1.23,0.551,1.23,1.233
		C85.343,32.034,83.968,35.739,78.754,35.739z"/>
</g>
<g>
	<path fill="#F2ECE7" d="M71.829,27.161c-2.842,0-5.156-2.314-5.156-5.158l-0.006-0.582c-0.02-1.41-0.054-3.767,0.464-5.853
		c0.911-3.677,3.049-4.478,4.683-4.5c0,0,0,0,0.002,0c1.251,0,2.296,0.43,3.1,1.243c2.183,2.215,2.117,6.699,2.083,9.108
		l-0.006,0.582C76.991,24.846,74.676,27.161,71.829,27.161z M71.886,13.532c-0.498,0.007-1.719,0.023-2.363,2.631
		c-0.441,1.775-0.41,3.934-0.392,5.221l0.007,0.619c0,1.485,1.208,2.693,2.69,2.693c1.488,0,2.697-1.208,2.697-2.693l0.005-0.619
		c0.026-1.754,0.085-5.861-1.372-7.343C72.814,13.695,72.412,13.532,71.886,13.532z"/>
</g>
<g>
	<path fill="#F2ECE7" d="M84.553,27.161c-2.848,0-5.162-2.314-5.162-5.158l-0.006-0.582c-0.021-1.41-0.054-3.767,0.465-5.853
		c0.914-3.677,3.051-4.478,4.684-4.5c0.003,0,0.003,0,0.003,0c1.251,0,2.295,0.429,3.097,1.241c2.183,2.215,2.113,6.699,2.08,9.106
		l-0.006,0.586C89.707,24.846,87.395,27.161,84.553,27.161z M84.608,13.532c-0.496,0.007-1.719,0.023-2.366,2.631
		c-0.441,1.777-0.41,3.934-0.391,5.221l0.006,0.619c0,1.485,1.208,2.693,2.696,2.693c1.482,0,2.688-1.208,2.688-2.693l0.005-0.621
		c0.026-1.755,0.088-5.861-1.369-7.341C85.535,13.694,85.131,13.532,84.608,13.532z"/>
</g>
<g>
	<path fill="#F2ECE7" d="M82.586,13.671c-0.17-0.057-0.328-0.149-0.464-0.28c-0.492-0.47-0.51-1.25-0.037-1.742
		c2.093-2.182,5.609-2.844,10.461-1.963c0.656,0.117,1.114,0.761,0.993,1.432c-0.122,0.669-0.765,1.113-1.433,0.992
		c-2.739-0.497-6.396-0.686-8.244,1.244C83.524,13.708,83.023,13.817,82.586,13.671z"/>
</g>
<g>
	<path fill="#F2ECE7" d="M69.101,14.553c-0.17-0.056-0.328-0.147-0.464-0.279c-0.492-0.471-0.511-1.252-0.037-1.743
		c2.092-2.183,5.608-2.843,10.46-1.963c0.656,0.116,1.114,0.761,0.994,1.432c-0.122,0.669-0.766,1.113-1.434,0.992
		c-2.739-0.497-6.396-0.685-8.244,1.244C70.037,14.59,69.537,14.698,69.101,14.553z"/>
</g>
<path fill="none" stroke="#FFFFFF" stroke-width="1.2538" stroke-linejoin="round" stroke-miterlimit="10" d="M71.054,14.604
	c0,0,2.164-2.969,5.95-1.301"/>
<path fill="none" stroke="#FFFFFF" stroke-width="1.2538" stroke-linejoin="round" stroke-miterlimit="10" d="M84.202,14.135
	c0,0,2.165-2.971,5.952-1.303"/>
<path fill="#F2ECE7" d="M44.455,16.219c0.58-0.579,1.518-0.579,2.096-0.001l0,0c0.58,0.579,0.58,1.518,0,2.097L33.127,31.74
	c-0.578,0.578-1.518,0.578-2.096-0.002l0,0c-0.578-0.578-0.578-1.516,0-2.094L44.455,16.219z"/>
<path fill="#F2ECE7" d="M33.127,16.219c-0.58-0.579-1.518-0.579-2.096-0.001l0,0c-0.58,0.579-0.58,1.518,0,2.097L44.455,31.74
	c0.578,0.578,1.518,0.578,2.096-0.002l0,0c0.578-0.578,0.578-1.516,0-2.094L33.127,16.219z"/>
</svg>
