<?xml version="1.0" encoding="utf-8"?>
<!-- Generator: Adobe Illustrator 16.0.0, SVG Export Plug-In . SVG Version: 6.00 Build 0)  -->
<!DOCTYPE svg PUBLIC "-//W3C//DTD SVG 1.1//EN" "http://www.w3.org/Graphics/SVG/1.1/DTD/svg11.dtd">
<svg version="1.1" id="Layer_1" xmlns="http://www.w3.org/2000/svg" xmlns:xlink="http://www.w3.org/1999/xlink" x="0px" y="0px"
	 width="31.463px" height="39.449px" viewBox="0 0 31.463 39.449" enable-background="new 0 0 31.463 39.449" xml:space="preserve">
<g>
	<path fill="#5E5E5E" d="M-55.11-6.514c1.077,0,1.95-0.874,1.95-1.949v-1.455c0-1.075-0.874-1.949-1.95-1.949l0,0
		c-1.078,0-1.951,0.874-1.951,1.949v1.455C-57.061-7.387-56.188-6.514-55.11-6.514L-55.11-6.514z"/>
	<path fill="#5E5E5E" d="M-45.889-6.514c1.077,0,1.951-0.874,1.951-1.949v-1.455c0-1.075-0.874-1.949-1.951-1.949l0,0
		c-1.077,0-1.95,0.874-1.95,1.949v1.455C-47.837-7.387-46.966-6.514-45.889-6.514L-45.889-6.514z"/>
	<g>
		<path fill="#5E5E5E" d="M-50.495,7.604c-6.076,0-11.021-4.943-11.021-11.022c0-0.845,0.687-1.529,1.531-1.529
			c0.844,0,1.53,0.686,1.53,1.529c0,4.39,3.569,7.961,7.958,7.961s7.958-3.572,7.958-7.961c0-0.845,0.688-1.529,1.53-1.529
			c0.847,0,1.53,0.686,1.53,1.529C-39.474,2.661-44.417,7.604-50.495,7.604z"/>
	</g>
</g>
<g>
	<path fill="#E5D7C6" d="M126.692,18.979c0.996,0,1.807-0.811,1.807-1.807v-1.348c0-0.996-0.811-1.807-1.807-1.807l0,0
		c-0.998,0-1.807,0.811-1.807,1.807v1.348C124.888,18.17,125.694,18.979,126.692,18.979L126.692,18.979z"/>
	<path fill="#E5D7C6" d="M135.229,18.979c0.996,0,1.808-0.811,1.808-1.807v-1.348c0-0.996-0.812-1.807-1.808-1.807l0,0
		c-0.996,0-1.808,0.811-1.808,1.807v1.348C133.423,18.17,134.231,18.979,135.229,18.979L135.229,18.979z"/>
	<g>
		<path fill="#E5D7C6" d="M130.964,32.052c-5.625,0-10.201-4.577-10.201-10.204c0-0.783,0.635-1.416,1.418-1.416
			c0.779,0,1.416,0.633,1.416,1.416c0,4.063,3.305,7.369,7.366,7.369c4.063,0,7.37-3.306,7.37-7.369
			c0-0.783,0.635-1.416,1.417-1.416c0.784,0,1.418,0.633,1.418,1.416C141.17,27.474,136.592,32.052,130.964,32.052z"/>
	</g>
</g>
<g>
	<rect x="58.215" y="0.069" fill="#5E5E5E" width="8.15" height="8.152"/>
	<rect x="69.635" y="0.069" fill="#5E5E5E" width="8.148" height="8.152"/>
	<rect x="58.215" y="11.798" fill="#5E5E5E" width="8.15" height="8.152"/>
	<rect x="69.635" y="11.798" fill="#5E5E5E" width="8.148" height="8.152"/>
</g>
<rect x="52.269" y="-11.721" fill="none" width="31.463" height="39.447"/>
<rect x="-66.228" y="-24.671" fill="none" width="31.463" height="39.45"/>
<g>
	<path fill="#545454" d="M15.581,37.971c-2.155,0-3.815-0.58-4.941-1.719c-1.366-1.387-1.384-3.047-1.382-3.232
		c0.01-0.604,0.495-1.086,1.11-1.078c0.6,0.008,1.08,0.497,1.078,1.098c0.005,0.286,0.155,2.744,4.134,2.744
		c3.558,0,3.66-2.551,3.66-2.84c0-0.604,0.49-1.095,1.096-1.095c0.603,0,1.092,0.49,1.092,1.095
		C21.429,34.682,20.208,37.971,15.581,37.971z"/>
</g>
<circle fill="#545454" stroke="#FFFFFF" stroke-width="0.8149" stroke-linejoin="round" stroke-miterlimit="10" cx="58.214" cy="34.59" r="1.375"/>
<g>
	<path fill="#545454" d="M9.434,30.357c-2.522,0-4.577-2.055-4.577-4.578l-0.005-0.517c-0.018-1.251-0.048-3.343,0.412-5.194
		c0.809-3.263,2.706-3.974,4.155-3.994c0,0,0,0,0.002,0c1.111,0,2.038,0.382,2.751,1.103c1.937,1.967,1.879,5.947,1.849,8.086
		l-0.005,0.517C14.017,28.302,11.961,30.357,9.434,30.357z M9.484,18.26c-0.442,0.006-1.524,0.021-2.098,2.335
		c-0.392,1.576-0.364,3.492-0.346,4.635l0.005,0.549c0,1.317,1.073,2.39,2.389,2.39c1.321,0,2.394-1.072,2.394-2.39l0.005-0.549
		c0.022-1.558,0.076-5.202-1.218-6.518C10.309,18.405,9.952,18.26,9.484,18.26z"/>
</g>
<g>
	<path fill="#545454" d="M20.729,30.357c-2.527,0-4.583-2.055-4.583-4.578l-0.004-0.517c-0.018-1.251-0.048-3.343,0.412-5.194
		c0.812-3.263,2.707-3.974,4.157-3.994c0.002,0,0.002,0,0.002,0c1.11,0,2.038,0.382,2.749,1.103
		c1.937,1.964,1.876,5.944,1.846,8.082l-0.005,0.521C25.303,28.302,23.25,30.357,20.729,30.357z M20.776,18.26
		c-0.439,0.006-1.525,0.021-2.101,2.335c-0.392,1.578-0.364,3.492-0.346,4.635l0.005,0.549c0,1.317,1.071,2.39,2.394,2.39
		c1.316,0,2.387-1.072,2.387-2.39l0.004-0.551c0.023-1.559,0.079-5.203-1.215-6.517C21.6,18.404,21.241,18.26,20.776,18.26z"/>
</g>
<g>
	<path fill="#545454" d="M18.982,18.385c-0.15-0.05-0.291-0.133-0.412-0.249c-0.437-0.417-0.452-1.11-0.032-1.547
		c1.856-1.937,4.979-2.522,9.285-1.742c0.582,0.104,0.989,0.676,0.881,1.271c-0.107,0.595-0.679,0.989-1.271,0.881
		c-2.433-0.441-5.678-0.608-7.318,1.105C19.814,18.417,19.369,18.513,18.982,18.385z"/>
</g>
<g>
	<path fill="#545454" d="M7.013,19.166c-0.151-0.049-0.292-0.131-0.412-0.247c-0.437-0.418-0.452-1.11-0.033-1.546
		c1.857-1.937,4.979-2.524,9.285-1.744c0.583,0.104,0.989,0.676,0.882,1.271c-0.108,0.594-0.679,0.989-1.271,0.881
		c-2.433-0.441-5.678-0.607-7.318,1.104C7.844,19.2,7.399,19.296,7.013,19.166z"/>
</g>
<path fill="none" stroke="#FFFFFF" stroke-width="1.1129" stroke-linejoin="round" stroke-miterlimit="10" d="M8.746,19.213
	c0,0,1.922-2.637,5.283-1.156"/>
<path fill="none" stroke="#FFFFFF" stroke-width="1.1129" stroke-linejoin="round" stroke-miterlimit="10" d="M20.417,18.795
	c0,0,1.922-2.636,5.283-1.154"/>
</svg>
