<?xml version="1.0" encoding="utf-8"?>
<!-- Generator: Adobe Illustrator 16.0.0, SVG Export Plug-In . SVG Version: 6.00 Build 0)  -->
<!DOCTYPE svg PUBLIC "-//W3C//DTD SVG 1.1//EN" "http://www.w3.org/Graphics/SVG/1.1/DTD/svg11.dtd">
<svg version="1.1" id="Layer_1" xmlns="http://www.w3.org/2000/svg" xmlns:xlink="http://www.w3.org/1999/xlink" x="0px" y="0px"
	 width="58.849px" height="55.132px" viewBox="-17.416 -18.424 58.849 55.132"
	 enable-background="new -17.416 -18.424 58.849 55.132" xml:space="preserve">
<g>
	<path fill="#F2ECE7" d="M0.159-3.871c2.766,0,5.01-2.245,5.01-5.007v-3.737c0-2.763-2.246-5.009-5.01-5.009l0,0
		c-2.769,0-5.011,2.247-5.011,5.009v3.737C-4.852-6.113-2.61-3.871,0.159-3.871L0.159-3.871z"/>
	<path fill="#F2ECE7" d="M23.841-3.871c2.767,0,5.012-2.245,5.012-5.007v-3.737c0-2.763-2.245-5.009-5.012-5.009l0,0
		c-2.767,0-5.009,2.247-5.009,5.009v3.737C18.832-6.113,21.074-3.871,23.841-3.871L23.841-3.871z"/>
	<g>
		<path fill="#F2ECE7" d="M12.012,32.391c-15.608,0-28.308-12.694-28.308-28.305c0-2.171,1.763-3.931,3.933-3.931
			c2.171,0,3.931,1.76,3.931,3.931c0,11.273,9.168,20.443,20.441,20.443c11.271,0,20.444-9.173,20.444-20.443
			c0-2.171,1.76-3.931,3.931-3.931s3.93,1.76,3.93,3.931C40.319,19.696,27.617,32.391,12.012,32.391z"/>
	</g>
</g>
<g>
	<path fill="#E5D7C6" d="M126.693,18.979c0.996,0,1.806-0.81,1.806-1.806v-1.348c0-0.996-0.81-1.806-1.806-1.806l0,0
		c-0.998,0-1.807,0.81-1.807,1.806v1.348C124.887,18.17,125.696,18.979,126.693,18.979L126.693,18.979z"/>
	<path fill="#E5D7C6" d="M135.229,18.979c0.996,0,1.807-0.81,1.807-1.806v-1.348c0-0.996-0.811-1.806-1.807-1.806l0,0
		c-0.997,0-1.807,0.81-1.807,1.806v1.348C133.423,18.17,134.232,18.979,135.229,18.979L135.229,18.979z"/>
	<g>
		<path fill="#E5D7C6" d="M130.964,32.051c-5.625,0-10.203-4.577-10.203-10.204c0-0.783,0.635-1.416,1.418-1.416
			c0.781,0,1.416,0.633,1.416,1.416c0,4.064,3.306,7.37,7.368,7.37c4.064,0,7.37-3.306,7.37-7.37c0-0.783,0.635-1.416,1.417-1.416
			c0.784,0,1.418,0.633,1.418,1.416C141.17,27.474,136.592,32.051,130.964,32.051z"/>
	</g>
</g>
</svg>
