<?xml version="1.0" encoding="utf-8"?>
<!-- Generator: Adobe Illustrator 16.0.0, SVG Export Plug-In . SVG Version: 6.00 Build 0)  -->
<!DOCTYPE svg PUBLIC "-//W3C//DTD SVG 1.1//EN" "http://www.w3.org/Graphics/SVG/1.1/DTD/svg11.dtd">
<svg version="1.1" id="Layer_1" xmlns="http://www.w3.org/2000/svg" xmlns:xlink="http://www.w3.org/1999/xlink" x="0px" y="0px"
	 width="58.85px" height="55.132px" viewBox="0 0 58.85 55.132" enable-background="new 0 0 58.85 55.132" xml:space="preserve">
<g>
	<path fill="#E5D7C6" d="M126.693,18.979c0.996,0,1.807-0.81,1.807-1.806v-1.348c0-0.996-0.811-1.806-1.807-1.806l0,0
		c-0.998,0-1.807,0.81-1.807,1.806v1.348C124.887,18.17,125.696,18.979,126.693,18.979L126.693,18.979z"/>
	<path fill="#E5D7C6" d="M135.229,18.979c0.996,0,1.808-0.81,1.808-1.806v-1.348c0-0.996-0.812-1.806-1.808-1.806l0,0
		c-0.997,0-1.808,0.81-1.808,1.806v1.348C133.423,18.17,134.232,18.979,135.229,18.979L135.229,18.979z"/>
	<g>
		<path fill="#E5D7C6" d="M130.964,32.051c-5.625,0-10.202-4.577-10.202-10.204c0-0.783,0.635-1.416,1.418-1.416
			c0.78,0,1.416,0.633,1.416,1.416c0,4.064,3.306,7.369,7.367,7.369c4.063,0,7.37-3.305,7.37-7.369c0-0.783,0.635-1.416,1.417-1.416
			c0.784,0,1.418,0.633,1.418,1.416C141.17,27.474,136.592,32.051,130.964,32.051z"/>
	</g>
</g>
<path fill="#F2ECE7" d="M48.446,25.393c0.894,0.896,0.894,2.345,0,3.239l0,0c-0.894,0.894-2.344,0.894-3.239,0L29.14,12.565
	c-0.896-0.894-0.896-2.345,0-3.239l0,0c0.894-0.894,2.342-0.894,3.237,0L48.446,25.393z"/>
<path fill="#F2ECE7" d="M29.14,25.393c-0.896,0.896-0.896,2.345,0,3.239l0,0c0.893,0.894,2.342,0.894,3.237,0l16.068-16.067
	c0.894-0.894,0.894-2.345,0-3.239l0,0c-0.896-0.894-2.344-0.894-3.239,0L29.14,25.393z"/>
</svg>
