<?xml version="1.0" encoding="utf-8"?>
<!-- Generator: Adobe Illustrator 16.0.0, SVG Export Plug-In . SVG Version: 6.00 Build 0)  -->
<!DOCTYPE svg PUBLIC "-//W3C//DTD SVG 1.1//EN" "http://www.w3.org/Graphics/SVG/1.1/DTD/svg11.dtd">
<svg version="1.1" id="Layer_1" xmlns="http://www.w3.org/2000/svg" xmlns:xlink="http://www.w3.org/1999/xlink" x="0px" y="0px"
	 width="58.85px" height="55.132px" viewBox="0 0 58.85 55.132" enable-background="new 0 0 58.85 55.132" xml:space="preserve">
<g>
	<path fill="#F2ECE7" d="M32.867,19.031c1.382,0,2.505-1.123,2.505-2.503V14.66c0-1.381-1.123-2.504-2.505-2.504l0,0
		c-1.385,0-2.506,1.124-2.506,2.504v1.868C30.362,17.91,31.483,19.031,32.867,19.031L32.867,19.031z"/>
	<path fill="#F2ECE7" d="M44.704,19.031c1.384,0,2.505-1.123,2.505-2.503V14.66c0-1.381-1.121-2.504-2.505-2.504l0,0
		c-1.385,0-2.503,1.124-2.503,2.504v1.868C42.201,17.91,43.322,19.031,44.704,19.031L44.704,19.031z"/>
	<g>
		<path fill="#F2ECE7" d="M38.792,37.155c-7.804,0-14.149-6.344-14.149-14.147c0-1.085,0.881-1.964,1.966-1.964
			c1.086,0,1.964,0.88,1.964,1.964c0,5.635,4.583,10.219,10.219,10.219c5.633,0,10.22-4.586,10.22-10.219
			c0-1.085,0.88-1.964,1.966-1.964c1.083,0,1.963,0.88,1.963,1.964C52.94,30.811,46.592,37.155,38.792,37.155z"/>
	</g>
</g>
<g>
	<path fill="#E5D7C6" d="M126.693,18.979c0.996,0,1.807-0.81,1.807-1.806v-1.348c0-0.996-0.811-1.806-1.807-1.806l0,0
		c-0.998,0-1.807,0.81-1.807,1.806v1.348C124.887,18.17,125.696,18.979,126.693,18.979L126.693,18.979z"/>
	<path fill="#E5D7C6" d="M135.229,18.979c0.996,0,1.808-0.81,1.808-1.806v-1.348c0-0.996-0.812-1.806-1.808-1.806l0,0
		c-0.997,0-1.808,0.81-1.808,1.806v1.348C133.423,18.17,134.232,18.979,135.229,18.979L135.229,18.979z"/>
	<g>
		<path fill="#E5D7C6" d="M130.964,32.051c-5.625,0-10.202-4.577-10.202-10.204c0-0.783,0.635-1.416,1.418-1.416
			c0.78,0,1.416,0.633,1.416,1.416c0,4.064,3.306,7.369,7.367,7.369c4.063,0,7.37-3.305,7.37-7.369c0-0.783,0.635-1.416,1.417-1.416
			c0.784,0,1.418,0.633,1.418,1.416C141.17,27.474,136.592,32.051,130.964,32.051z"/>
	</g>
</g>
</svg>
