<?xml version="1.0" encoding="utf-8"?>
<!-- Generator: Adobe Illustrator 16.0.0, SVG Export Plug-In . SVG Version: 6.00 Build 0)  -->
<!DOCTYPE svg PUBLIC "-//W3C//DTD SVG 1.1//EN" "http://www.w3.org/Graphics/SVG/1.1/DTD/svg11.dtd">
<svg version="1.1" id="Layer_1" xmlns="http://www.w3.org/2000/svg" xmlns:xlink="http://www.w3.org/1999/xlink" x="0px" y="0px"
	 width="58.849px" height="55.132px" viewBox="-17.416 -18.424 58.849 55.132"
	 enable-background="new -17.416 -18.424 58.849 55.132" xml:space="preserve">
<g>
	<path fill="#F2ECE7" d="M3.714-0.494c1.936,0,3.507-1.572,3.507-3.505v-2.616c0-1.934-1.572-3.507-3.507-3.507l0,0
		c-1.938,0-3.508,1.573-3.508,3.507v2.616C0.206-2.064,1.776-0.494,3.714-0.494L3.714-0.494z"/>
	<path fill="#F2ECE7" d="M20.291-0.494c1.937,0,3.509-1.572,3.509-3.505v-2.616c0-1.934-1.572-3.507-3.509-3.507l0,0
		c-1.937,0-3.506,1.573-3.506,3.507v2.616C16.785-2.064,18.355-0.494,20.291-0.494L20.291-0.494z"/>
	<g>
		<path fill="#F2ECE7" d="M12.011,24.889c-10.926,0-19.815-8.886-19.815-19.814c0-1.52,1.234-2.751,2.753-2.751
			c1.52,0,2.751,1.232,2.751,2.751c0,7.891,6.417,14.31,14.309,14.31c7.889,0,14.311-6.421,14.311-14.31
			c0-1.52,1.232-2.751,2.752-2.751s2.75,1.232,2.75,2.751C31.825,16.003,22.935,24.889,12.011,24.889z"/>
	</g>
</g>
<g>
	<path fill="#E5D7C6" d="M126.693,18.979c0.996,0,1.806-0.81,1.806-1.806v-1.348c0-0.996-0.81-1.806-1.806-1.806l0,0
		c-0.998,0-1.807,0.81-1.807,1.806v1.348C124.887,18.17,125.696,18.979,126.693,18.979L126.693,18.979z"/>
	<path fill="#E5D7C6" d="M135.229,18.979c0.996,0,1.807-0.81,1.807-1.806v-1.348c0-0.996-0.811-1.806-1.807-1.806l0,0
		c-0.997,0-1.807,0.81-1.807,1.806v1.348C133.423,18.17,134.232,18.979,135.229,18.979L135.229,18.979z"/>
	<g>
		<path fill="#E5D7C6" d="M130.964,32.051c-5.625,0-10.203-4.577-10.203-10.204c0-0.783,0.635-1.416,1.418-1.416
			c0.781,0,1.416,0.633,1.416,1.416c0,4.064,3.306,7.37,7.368,7.37c4.064,0,7.37-3.306,7.37-7.37c0-0.783,0.635-1.416,1.417-1.416
			c0.784,0,1.418,0.633,1.418,1.416C141.17,27.474,136.592,32.051,130.964,32.051z"/>
	</g>
</g>
</svg>
