<?xml version="1.0" encoding="utf-8"?>
<!-- Generator: Adobe Illustrator 16.0.0, SVG Export Plug-In . SVG Version: 6.00 Build 0)  -->
<!DOCTYPE svg PUBLIC "-//W3C//DTD SVG 1.1//EN" "http://www.w3.org/Graphics/SVG/1.1/DTD/svg11.dtd">
<svg version="1.1" id="Layer_1" xmlns="http://www.w3.org/2000/svg" xmlns:xlink="http://www.w3.org/1999/xlink" x="0px" y="0px"
	 width="58.85px" height="55.132px" viewBox="0 0 58.85 55.132" enable-background="new 0 0 58.85 55.132" xml:space="preserve">
<g>
	<path fill="#F2ECE7" d="M87.368,36.523c1.382,0,2.505-1.123,2.505-2.504v-1.867c0-1.381-1.123-2.504-2.505-2.504l0,0
		c-1.386,0-2.507,1.123-2.507,2.504v1.867C84.863,35.402,85.984,36.523,87.368,36.523L87.368,36.523z"/>
	<path fill="#F2ECE7" d="M99.205,36.523c1.384,0,2.505-1.123,2.505-2.504v-1.867c0-1.381-1.121-2.504-2.505-2.504l0,0
		c-1.386,0-2.503,1.123-2.503,2.504v1.867C96.702,35.402,97.823,36.523,99.205,36.523L99.205,36.523z"/>
	<g>
		<path fill="#F2ECE7" d="M93.293,54.646c-7.805,0-14.149-6.344-14.149-14.146c0-1.085,0.881-1.964,1.966-1.964
			c1.086,0,1.964,0.88,1.964,1.964c0,5.635,4.583,10.219,10.22,10.219c5.633,0,10.22-4.586,10.22-10.219
			c0-1.085,0.88-1.964,1.966-1.964c1.083,0,1.963,0.88,1.963,1.964C107.441,48.302,101.093,54.646,93.293,54.646z"/>
	</g>
</g>
<g>
	<path fill="#E5D7C6" d="M126.693,18.979c0.996,0,1.808-0.81,1.808-1.806v-1.348c0-0.996-0.812-1.806-1.808-1.806l0,0
		c-0.998,0-1.807,0.81-1.807,1.806v1.348C124.887,18.17,125.696,18.979,126.693,18.979L126.693,18.979z"/>
	<path fill="#E5D7C6" d="M135.229,18.979c0.996,0,1.809-0.81,1.809-1.806v-1.348c0-0.996-0.812-1.806-1.809-1.806l0,0
		c-0.997,0-1.808,0.81-1.808,1.806v1.348C133.423,18.17,134.232,18.979,135.229,18.979L135.229,18.979z"/>
	<g>
		<path fill="#E5D7C6" d="M130.964,32.051c-5.625,0-10.202-4.577-10.202-10.204c0-0.783,0.635-1.416,1.418-1.416
			c0.78,0,1.416,0.633,1.416,1.416c0,4.064,3.306,7.369,7.367,7.369c4.062,0,7.37-3.305,7.37-7.369c0-0.783,0.635-1.416,1.417-1.416
			c0.784,0,1.418,0.633,1.418,1.416C141.17,27.474,136.592,32.051,130.964,32.051z"/>
	</g>
</g>
<g>
	<path fill="#F2ECE7" d="M39.442,38.224c-2.428,0-4.299-0.654-5.566-1.936c-1.54-1.562-1.56-3.434-1.557-3.643
		c0.012-0.68,0.558-1.223,1.251-1.214c0.677,0.009,1.217,0.561,1.214,1.237c0.006,0.322,0.176,3.09,4.658,3.09
		c4.008,0,4.124-2.873,4.124-3.197c0-0.683,0.552-1.234,1.233-1.234c0.68,0,1.231,0.552,1.231,1.234
		C46.031,34.519,44.656,38.224,39.442,38.224z"/>
</g>
<circle fill="#545454" stroke="#FFFFFF" stroke-width="0.6336" stroke-linejoin="round" stroke-miterlimit="10" cx="93.292" cy="19.477" r="1.069"/>
<g>
	<path fill="#F2ECE7" d="M32.517,29.646c-2.842,0-5.156-2.315-5.156-5.158l-0.006-0.582c-0.02-1.41-0.054-3.767,0.464-5.853
		c0.911-3.676,3.048-4.477,4.682-4.5c0,0,0,0,0.002,0c1.251,0,2.296,0.43,3.1,1.243c2.182,2.215,2.117,6.699,2.083,9.109
		l-0.006,0.582C37.679,27.331,35.364,29.646,32.517,29.646z M32.573,16.017c-0.498,0.007-1.718,0.024-2.363,2.631
		c-0.441,1.776-0.41,3.934-0.391,5.221l0.006,0.619c0,1.485,1.208,2.693,2.691,2.693c1.488,0,2.697-1.208,2.697-2.693l0.005-0.619
		c0.026-1.754,0.085-5.861-1.372-7.343C33.501,16.18,33.1,16.017,32.573,16.017z"/>
</g>
<g>
	<path fill="#F2ECE7" d="M45.24,29.646c-2.847,0-5.162-2.315-5.162-5.158l-0.005-0.582c-0.021-1.41-0.054-3.767,0.464-5.853
		c0.914-3.676,3.051-4.477,4.684-4.5c0.003,0,0.003,0,0.003,0c1.251,0,2.295,0.429,3.097,1.242c2.182,2.214,2.113,6.698,2.08,9.106
		l-0.006,0.586C50.395,27.331,48.082,29.646,45.24,29.646z M45.295,16.017c-0.496,0.007-1.719,0.024-2.366,2.631
		c-0.441,1.777-0.41,3.934-0.391,5.221l0.006,0.619c0,1.485,1.208,2.693,2.696,2.693c1.483,0,2.689-1.208,2.689-2.693l0.005-0.621
		c0.026-1.755,0.088-5.861-1.369-7.341C46.223,16.179,45.819,16.017,45.295,16.017z"/>
</g>
<g>
	<path fill="#F2ECE7" d="M43.274,16.157c-0.17-0.057-0.328-0.15-0.464-0.28c-0.492-0.47-0.51-1.251-0.037-1.743
		c2.092-2.182,5.609-2.843,10.461-1.963c0.656,0.117,1.114,0.761,0.993,1.432c-0.122,0.669-0.765,1.114-1.433,0.992
		c-2.739-0.497-6.396-0.685-8.244,1.245C44.211,16.194,43.71,16.302,43.274,16.157z"/>
</g>
<g>
	<path fill="#F2ECE7" d="M29.788,17.038c-0.17-0.055-0.328-0.147-0.464-0.279c-0.492-0.471-0.51-1.251-0.037-1.743
		c2.092-2.182,5.609-2.843,10.46-1.963c0.657,0.117,1.115,0.761,0.994,1.432c-0.122,0.669-0.765,1.113-1.433,0.992
		c-2.739-0.497-6.396-0.684-8.244,1.244C30.725,17.076,30.225,17.183,29.788,17.038z"/>
</g>
<path fill="none" stroke="#FFFFFF" stroke-width="1.2538" stroke-linejoin="round" stroke-miterlimit="10" d="M31.741,17.09
	c0,0,2.165-2.97,5.951-1.302"/>
<path fill="none" stroke="#FFFFFF" stroke-width="1.2538" stroke-linejoin="round" stroke-miterlimit="10" d="M44.89,16.62
	c0,0,2.165-2.97,5.952-1.302"/>
</svg>
