<?xml version="1.0" encoding="utf-8"?>
<!-- Generator: Adobe Illustrator 16.0.0, SVG Export Plug-In . SVG Version: 6.00 Build 0)  -->
<!DOCTYPE svg PUBLIC "-//W3C//DTD SVG 1.1//EN" "http://www.w3.org/Graphics/SVG/1.1/DTD/svg11.dtd">
<svg version="1.1" id="Layer_1" xmlns="http://www.w3.org/2000/svg" xmlns:xlink="http://www.w3.org/1999/xlink" x="0px" y="0px"
	 width="51.468px" height="50.919px" viewBox="-13.58 -13.75 51.468 50.919" enable-background="new -13.58 -13.75 51.468 50.919"
	 xml:space="preserve">
<g>
	<path fill="#DF98D5" d="M37.344,11.713c0,14.06-11.402,25.457-25.469,25.457c-14.057,0-25.455-11.396-25.455-25.457
		c0-14.062,11.398-25.463,25.455-25.463C25.941-13.75,37.344-2.349,37.344,11.713z"/>
	<path opacity="0.4" fill="#A04297" d="M23.609,0.565H3.289c-0.984,0-1.781,0.801-1.781,1.779v3.809v18.669
		c0,0.986,0.797,1.783,1.781,1.783h20.32c0.982,0,1.781-0.797,1.781-1.783V6.153V2.344C25.391,1.365,24.592,0.565,23.609,0.565z"/>
	<path opacity="0.6" fill="#878787" d="M15.373,10.743c0,1.818-1.471,3.296-3.282,3.296c-1.825,0-3.296-1.478-3.296-3.296
		c0-1.82,1.471-3.291,3.296-3.291C13.902,7.452,15.373,8.923,15.373,10.743z"/>
	<path opacity="0.6" fill="#878787" d="M6.41,20.405c0-3.113,2.525-5.639,5.643-5.639c3.113,0,5.642,2.525,5.642,5.639"/>
	<path fill="#FFFFFF" d="M21.87,21.322c0,0.986-0.799,1.783-1.781,1.783H-0.232c-0.984,0-1.781-0.797-1.781-1.783V-1.16
		c0-0.979,0.797-1.779,1.781-1.779h20.321c0.982,0,1.781,0.801,1.781,1.779V21.322z"/>
	<path fill="#FFD75B" d="M21.87,2.649V-1.16c0-0.979-0.799-1.779-1.781-1.779H-0.232c-0.984,0-1.781,0.801-1.781,1.779v3.809H21.87z
		"/>
	<path fill="#F3F2F8" d="M13.25,8.766c0,1.816-1.469,3.294-3.287,3.294c-1.822,0-3.293-1.478-3.293-3.294
		c0-1.82,1.471-3.291,3.293-3.291C11.781,5.475,13.25,6.946,13.25,8.766z"/>
	<path fill="#F3F2F8" d="M4.285,18.427c0-3.113,2.525-5.639,5.641-5.639c3.118,0,5.645,2.525,5.645,5.639"/>
	<g>
		<g>
			<path fill="#F3F2F8" d="M62.459,28.653c0.441,1.117-0.105,2.389-1.223,2.83l-3.143,1.252c-1.119,0.441-2.385-0.1-2.83-1.219l0,0
				c-0.439-1.123,0.105-2.385,1.219-2.83l3.146-1.252C60.742,26.989,62.01,27.538,62.459,28.653L62.459,28.653z"/>
			<polygon fill="#FFE2CF" points="48.973,15.289 50.062,7.78 56.027,12.479 			"/>
			<polygon fill="#686868" points="49.717,10.426 50.092,7.848 52.146,9.465 			"/>
			
				<rect x="51.726" y="13.166" transform="matrix(0.9292 -0.3696 0.3696 0.9292 -4.0162 22.046)" fill="#FB7066" width="7.599" height="16.677"/>
			<polygon fill="#FC8A64" points="62.312,28.311 55.26,31.12 54.463,29.102 61.521,26.302 			"/>
		</g>
	</g>
</g>
</svg>
