<?xml version="1.0" encoding="utf-8"?>
<!-- Generator: Adobe Illustrator 16.0.0, SVG Export Plug-In . SVG Version: 6.00 Build 0)  -->
<!DOCTYPE svg PUBLIC "-//W3C//DTD SVG 1.1//EN" "http://www.w3.org/Graphics/SVG/1.1/DTD/svg11.dtd">
<svg version="1.1" id="Layer_1" xmlns="http://www.w3.org/2000/svg" xmlns:xlink="http://www.w3.org/1999/xlink" x="0px" y="0px"
	 width="51.468px" height="50.918px" viewBox="0 0 51.468 50.918" enable-background="new 0 0 51.468 50.918" xml:space="preserve">
<g>
	<path fill="#DF98D5" d="M-13.183-80.48c0,14.06-11.402,25.458-25.469,25.458c-14.057,0-25.455-11.396-25.455-25.458
		c0-14.062,11.398-25.463,25.455-25.463C-24.586-105.943-13.183-94.542-13.183-80.48z"/>
	<path opacity="0.4" fill="#A04297" enable-background="new    " d="M-26.918-91.628h-20.32c-0.984,0-1.781,0.801-1.781,1.779v3.809
		v18.669c0,0.986,0.797,1.783,1.781,1.783h20.32c0.982,0,1.781-0.797,1.781-1.783v-18.669v-3.809
		C-25.136-90.829-25.936-91.628-26.918-91.628z"/>
	<path opacity="0.6" fill="#878787" enable-background="new    " d="M-35.154-81.45c0,1.818-1.471,3.296-3.282,3.296
		c-1.825,0-3.296-1.478-3.296-3.296c0-1.82,1.471-3.291,3.296-3.291C-36.625-84.741-35.154-83.271-35.154-81.45z"/>
	<path opacity="0.6" fill="#878787" enable-background="new    " d="M-44.117-71.789c0-3.113,2.525-5.639,5.643-5.639
		c3.113,0,5.642,2.525,5.642,5.639"/>
	<path fill="#FFFFFF" d="M-28.657-70.872c0,0.986-0.799,1.783-1.781,1.783h-20.321c-0.984,0-1.781-0.797-1.781-1.783v-22.482
		c0-0.979,0.797-1.779,1.781-1.779h20.321c0.982,0,1.781,0.801,1.781,1.779V-70.872z"/>
	<path fill="#FFD75B" d="M-28.657-89.544v-3.809c0-0.979-0.799-1.779-1.781-1.779h-20.321c-0.984,0-1.781,0.801-1.781,1.779v3.809
		H-28.657z"/>
	<path fill="#F3F2F8" d="M-37.277-83.427c0,1.816-1.469,3.294-3.287,3.294c-1.822,0-3.293-1.478-3.293-3.294
		c0-1.82,1.471-3.291,3.293-3.291C-38.747-86.718-37.277-85.248-37.277-83.427z"/>
	<path fill="#F3F2F8" d="M-46.242-73.766c0-3.113,2.525-5.639,5.641-5.639c3.118,0,5.645,2.525,5.645,5.639"/>
	<g>
		<g>
			<path fill="#F3F2F8" d="M11.931-63.541c0.441,1.117-0.104,2.389-1.223,2.83l-3.143,1.252c-1.119,0.441-2.385-0.1-2.83-1.219l0,0
				c-0.439-1.123,0.105-2.385,1.219-2.83l3.146-1.252C10.214-65.205,11.482-64.656,11.931-63.541L11.931-63.541z"/>
			<polygon fill="#FFE2CF" points="-1.554,-76.904 -0.465,-84.414 5.5,-79.714 			"/>
			<polygon fill="#686868" points="-0.811,-81.767 -0.436,-84.345 1.619,-82.729 			"/>
			
				<rect x="1.199" y="-79.026" transform="matrix(-0.9292 0.3696 -0.3696 -0.9292 -16.4841 -138.2163)" fill="#FB7066" width="7.599" height="16.678"/>
			<polygon fill="#FC8A64" points="11.785,-63.882 4.732,-61.074 3.935,-63.091 10.994,-65.891 			"/>
		</g>
	</g>
</g>
<g>
	<path fill="#545454" d="M23.552,34.397c-1.676,0-2.967-0.451-3.842-1.336c-1.062-1.078-1.076-2.369-1.074-2.514
		c0.008-0.469,0.385-0.844,0.863-0.838c0.467,0.006,0.84,0.387,0.838,0.854c0.004,0.223,0.121,2.133,3.215,2.133
		c2.766,0,2.846-1.982,2.846-2.207c0-0.471,0.381-0.852,0.852-0.852c0.469,0,0.85,0.381,0.85,0.852
		C28.099,31.84,27.15,34.397,23.552,34.397z"/>
</g>
<circle fill="#545454" stroke="#FFFFFF" stroke-width="0.6336" stroke-linejoin="round" stroke-miterlimit="10" cx="27.328" cy="30.523" r="1.069"/>
<g>
	<path fill="#545454" d="M18.773,28.477c-1.961,0-3.559-1.598-3.559-3.56l-0.004-0.401c-0.014-0.973-0.037-2.6,0.32-4.039
		c0.629-2.537,2.104-3.089,3.23-3.105c0,0,0,0,0.002,0c0.863,0,1.584,0.297,2.139,0.858c1.506,1.529,1.461,4.624,1.438,6.287
		l-0.004,0.401C22.335,26.879,20.738,28.477,18.773,28.477z M18.812,19.071c-0.344,0.005-1.186,0.017-1.631,1.815
		c-0.305,1.226-0.283,2.715-0.27,3.604l0.004,0.427c0,1.025,0.834,1.859,1.857,1.859c1.027,0,1.861-0.834,1.861-1.859l0.004-0.427
		c0.018-1.211,0.059-4.045-0.947-5.067C19.453,19.184,19.175,19.071,18.812,19.071z"/>
</g>
<g>
	<path fill="#545454" d="M27.554,28.477c-1.965,0-3.562-1.598-3.562-3.56l-0.004-0.401c-0.014-0.973-0.037-2.6,0.32-4.039
		c0.631-2.537,2.105-3.089,3.232-3.105c0.002,0,0.002,0,0.002,0c0.863,0,1.584,0.296,2.137,0.857
		c1.506,1.528,1.459,4.623,1.436,6.285l-0.004,0.404C31.111,26.879,29.515,28.477,27.554,28.477z M27.591,19.071
		c-0.342,0.005-1.186,0.017-1.633,1.815c-0.305,1.227-0.283,2.715-0.27,3.604l0.004,0.427c0,1.025,0.834,1.859,1.861,1.859
		c1.023,0,1.855-0.834,1.855-1.859l0.004-0.429c0.018-1.211,0.061-4.045-0.945-5.066C28.232,19.183,27.953,19.071,27.591,19.071z"/>
</g>
<g>
	<path fill="#545454" d="M26.197,19.168c-0.117-0.039-0.227-0.104-0.32-0.193c-0.34-0.324-0.352-0.863-0.025-1.203
		c1.443-1.506,3.871-1.962,7.219-1.355c0.453,0.081,0.77,0.525,0.686,0.988c-0.084,0.462-0.527,0.769-0.988,0.685
		c-1.891-0.343-4.414-0.472-5.689,0.859C26.843,19.193,26.498,19.268,26.197,19.168z"/>
</g>
<g>
	<path fill="#545454" d="M16.89,19.775c-0.117-0.038-0.227-0.102-0.32-0.192c-0.34-0.325-0.352-0.863-0.025-1.203
		c1.443-1.506,3.871-1.962,7.219-1.355c0.453,0.081,0.77,0.525,0.686,0.988c-0.084,0.462-0.527,0.769-0.988,0.685
		c-1.891-0.343-4.414-0.472-5.689,0.858C17.537,19.802,17.191,19.876,16.89,19.775z"/>
</g>
<path fill="none" stroke="#FFFFFF" stroke-width="0.8653" stroke-linejoin="round" stroke-miterlimit="10" d="M18.238,19.812
	c0,0,1.494-2.049,4.107-0.898"/>
<path fill="none" stroke="#FFFFFF" stroke-width="0.8653" stroke-linejoin="round" stroke-miterlimit="10" d="M27.312,19.487
	c0,0,1.494-2.049,4.107-0.898"/>
<path fill="#FF601A" d="M38.79,15.308c0,0-5.1-3.207-5.598-5.521c-0.496-2.314,0.859-4.18,2.73-4.18s2.814,1.673,2.814,1.673
	s1.172-1.673,3.162-1.673s2.486,1.673,2.486,3.358C44.385,11.577,38.79,15.308,38.79,15.308z"/>
</svg>
