<?xml version="1.0" encoding="utf-8"?>
<!-- Generator: Adobe Illustrator 16.0.0, SVG Export Plug-In . SVG Version: 6.00 Build 0)  -->
<!DOCTYPE svg PUBLIC "-//W3C//DTD SVG 1.1//EN" "http://www.w3.org/Graphics/SVG/1.1/DTD/svg11.dtd">
<svg version="1.1" id="Layer_1" xmlns="http://www.w3.org/2000/svg" xmlns:xlink="http://www.w3.org/1999/xlink" x="0px" y="0px"
	 width="41.916px" height="23.271px" viewBox="0 0 41.916 23.271" enable-background="new 0 0 41.916 23.271" xml:space="preserve">
<g>
	<path fill="#DF98D5" d="M-13.183-80.48c0,14.06-11.402,25.458-25.469,25.458c-14.057,0-25.455-11.396-25.455-25.458
		c0-14.062,11.398-25.463,25.455-25.463C-24.586-105.943-13.183-94.542-13.183-80.48z"/>
	<path opacity="0.4" fill="#A04297" enable-background="new    " d="M-26.918-91.628h-20.32c-0.984,0-1.781,0.801-1.781,1.779v3.809
		v18.669c0,0.986,0.797,1.783,1.781,1.783h20.32c0.982,0,1.781-0.797,1.781-1.783V-86.04v-3.809
		C-25.136-90.829-25.936-91.628-26.918-91.628z"/>
	<path opacity="0.6" fill="#878787" enable-background="new    " d="M-35.154-81.45c0,1.818-1.471,3.297-3.282,3.297
		c-1.825,0-3.296-1.479-3.296-3.297c0-1.819,1.471-3.29,3.296-3.29C-36.625-84.74-35.154-83.271-35.154-81.45z"/>
	<path opacity="0.6" fill="#878787" enable-background="new    " d="M-44.117-71.789c0-3.112,2.525-5.639,5.643-5.639
		c3.113,0,5.642,2.525,5.642,5.639"/>
	<path fill="#FFFFFF" d="M-28.657-70.872c0,0.986-0.799,1.783-1.781,1.783h-20.321c-0.984,0-1.781-0.797-1.781-1.783v-22.481
		c0-0.979,0.797-1.779,1.781-1.779h20.321c0.982,0,1.781,0.801,1.781,1.779V-70.872z"/>
	<path fill="#FFD75B" d="M-28.657-89.544v-3.809c0-0.979-0.799-1.779-1.781-1.779h-20.321c-0.984,0-1.781,0.801-1.781,1.779v3.809
		H-28.657z"/>
	<path fill="#F3F2F8" d="M-37.277-83.427c0,1.816-1.469,3.294-3.287,3.294c-1.822,0-3.293-1.478-3.293-3.294
		c0-1.82,1.471-3.291,3.293-3.291C-38.747-86.718-37.277-85.248-37.277-83.427z"/>
	<path fill="#F3F2F8" d="M-46.242-73.766c0-3.113,2.525-5.639,5.641-5.639c3.118,0,5.645,2.524,5.645,5.639"/>
	<g>
		<g>
			<path fill="#F3F2F8" d="M11.931-63.541c0.441,1.117-0.104,2.39-1.223,2.83l-3.143,1.252c-1.119,0.441-2.385-0.1-2.83-1.219l0,0
				c-0.439-1.123,0.105-2.385,1.219-2.83L9.1-64.76C10.214-65.205,11.482-64.656,11.931-63.541L11.931-63.541z"/>
			<polygon fill="#FFE2CF" points="-1.554,-76.904 -0.465,-84.414 5.5,-79.714 			"/>
			<polygon fill="#686868" points="-0.811,-81.767 -0.436,-84.345 1.619,-82.729 			"/>
			
				<rect x="1.198" y="-79.026" transform="matrix(-0.9292 0.3696 -0.3696 -0.9292 -16.4854 -138.2162)" fill="#FB7066" width="7.599" height="16.678"/>
			<polygon fill="#FC8A64" points="11.785,-63.882 4.732,-61.073 3.935,-63.091 10.994,-65.891 			"/>
		</g>
	</g>
</g>
<g>
	<path fill="#545454" d="M-30.939,31.592c-1.676,0-2.967-0.45-3.842-1.336c-1.062-1.077-1.076-2.368-1.074-2.514
		c0.008-0.469,0.385-0.844,0.863-0.838c0.467,0.006,0.84,0.387,0.838,0.854c0.004,0.224,0.121,2.134,3.215,2.134
		c2.766,0,2.846-1.982,2.846-2.207c0-0.472,0.381-0.853,0.852-0.853c0.47,0,0.851,0.381,0.851,0.853
		C-26.392,29.035-27.341,31.592-30.939,31.592z"/>
</g>
<circle fill="#545454" stroke="#FFFFFF" stroke-width="0.6336" stroke-linejoin="round" stroke-miterlimit="10" cx="-27.164" cy="27.718" r="1.069"/>
<g>
	<path fill="#545454" d="M-35.718,25.671c-1.961,0-3.559-1.598-3.559-3.56l-0.004-0.401c-0.014-0.973-0.037-2.6,0.32-4.039
		c0.629-2.537,2.104-3.089,3.23-3.104c0,0,0,0,0.002,0c0.863,0,1.584,0.297,2.139,0.857c1.506,1.529,1.461,4.624,1.438,6.287
		l-0.004,0.401C-32.156,24.074-33.753,25.671-35.718,25.671z M-35.679,16.266c-0.344,0.005-1.186,0.017-1.631,1.814
		c-0.305,1.227-0.283,2.715-0.27,3.604l0.004,0.427c0,1.025,0.834,1.858,1.857,1.858c1.027,0,1.861-0.833,1.861-1.858l0.004-0.427
		c0.018-1.211,0.059-4.045-0.947-5.067C-35.038,16.379-35.316,16.266-35.679,16.266z"/>
</g>
<g>
	<path fill="#545454" d="M-26.937,25.671c-1.965,0-3.562-1.598-3.562-3.56l-0.004-0.401c-0.014-0.973-0.037-2.6,0.32-4.039
		c0.631-2.537,2.105-3.089,3.232-3.104c0.002,0,0.002,0,0.002,0c0.862,0,1.584,0.296,2.137,0.856
		c1.506,1.528,1.459,4.623,1.436,6.285l-0.004,0.404C-23.38,24.074-24.976,25.671-26.937,25.671z M-26.9,16.266
		c-0.342,0.005-1.187,0.017-1.633,1.814c-0.305,1.228-0.283,2.715-0.27,3.604l0.004,0.427c0,1.025,0.834,1.858,1.861,1.858
		c1.022,0,1.854-0.833,1.854-1.858l0.004-0.429c0.019-1.211,0.062-4.045-0.945-5.066C-26.259,16.378-26.539,16.266-26.9,16.266z"/>
</g>
<g>
	<path fill="#545454" d="M-28.294,16.363c-0.117-0.039-0.227-0.104-0.32-0.193c-0.34-0.323-0.352-0.862-0.025-1.203
		c1.442-1.506,3.871-1.962,7.219-1.354c0.453,0.081,0.771,0.525,0.687,0.988c-0.084,0.462-0.527,0.769-0.988,0.685
		c-1.891-0.343-4.414-0.472-5.689,0.859C-27.648,16.388-27.994,16.463-28.294,16.363z"/>
</g>
<g>
	<path fill="#545454" d="M-37.601,16.97c-0.117-0.038-0.227-0.103-0.32-0.192c-0.34-0.325-0.352-0.863-0.025-1.203
		c1.443-1.506,3.871-1.962,7.219-1.354c0.453,0.081,0.77,0.524,0.686,0.987c-0.084,0.462-0.527,0.77-0.988,0.686
		c-1.891-0.344-4.414-0.473-5.689,0.857C-36.954,16.997-37.3,17.071-37.601,16.97z"/>
</g>
<path fill="none" stroke="#FFFFFF" stroke-width="0.8653" stroke-linejoin="round" stroke-miterlimit="10" d="M-36.253,17.007
	c0,0,1.494-2.049,4.107-0.897"/>
<path fill="none" stroke="#FFFFFF" stroke-width="0.8653" stroke-linejoin="round" stroke-miterlimit="10" d="M-27.179,16.682
	c0,0,1.494-2.05,4.107-0.898"/>
<path fill="#FE5D8E" d="M27.661,16.488c0,0-5.102-3.208-5.6-5.524c-0.496-2.314,0.858-4.18,2.729-4.18s2.813,1.673,2.813,1.673
	s1.172-1.673,3.162-1.673s2.486,1.673,2.486,3.357C33.254,12.753,27.661,16.488,27.661,16.488z"/>
</svg>
