<?xml version="1.0" encoding="utf-8"?>
<!-- Generator: Adobe Illustrator 16.0.0, SVG Export Plug-In . SVG Version: 6.00 Build 0)  -->
<!DOCTYPE svg PUBLIC "-//W3C//DTD SVG 1.1//EN" "http://www.w3.org/Graphics/SVG/1.1/DTD/svg11.dtd">
<svg version="1.1" id="Layer_1" xmlns="http://www.w3.org/2000/svg" xmlns:xlink="http://www.w3.org/1999/xlink" x="0px" y="0px"
	 width="21.744px" height="22.092px" viewBox="0 0 21.744 22.092" enable-background="new 0 0 21.744 22.092" xml:space="preserve">
<path fill="#E5D7C6" d="M72.707,0.922l13.438,6.92c0.008,0.004,0.016,0.01,0.021,0.015c0.082,0.042,0.154,0.097,0.232,0.15
	c0.043,0.032,0.09,0.057,0.133,0.088c0.054,0.046,0.104,0.102,0.156,0.154c0.047,0.052,0.104,0.099,0.148,0.153
	c0.033,0.041,0.062,0.092,0.094,0.137c0.053,0.074,0.104,0.146,0.145,0.224c0.007,0.008,0.014,0.017,0.017,0.026
	c0.024,0.045,0.034,0.093,0.056,0.139c0.034,0.077,0.068,0.154,0.092,0.233c0.021,0.068,0.031,0.136,0.043,0.203
	c0.017,0.071,0.031,0.144,0.039,0.216c0.008,0.069,0.004,0.14,0.004,0.21c0,0.068,0.004,0.14-0.004,0.213
	c-0.008,0.074-0.022,0.143-0.039,0.212c-0.012,0.069-0.022,0.137-0.043,0.207c-0.022,0.079-0.058,0.155-0.092,0.231
	c-0.021,0.047-0.031,0.096-0.056,0.139c-0.003,0.011-0.01,0.02-0.017,0.025c-0.041,0.08-0.092,0.152-0.145,0.223
	c-0.031,0.047-0.061,0.098-0.094,0.141c-0.043,0.053-0.1,0.102-0.148,0.148c-0.052,0.053-0.101,0.111-0.156,0.156
	c-0.041,0.032-0.09,0.059-0.129,0.088c-0.078,0.055-0.154,0.108-0.236,0.151c-0.008,0.004-0.014,0.013-0.021,0.015l-13.438,6.918
	c-1.074,0.556-2.396,0.133-2.95-0.944c-0.165-0.32-0.243-0.66-0.243-0.998c0-0.8,0.433-1.563,1.187-1.953l9.652-4.97L70.7,4.822
	c-0.754-0.39-1.187-1.157-1.187-1.952c0-0.337,0.078-0.677,0.243-1.003C70.313,0.791,71.633,0.37,72.707,0.922z"/>
<path fill="#F2ECE7" d="M17.747,9.558c0.698,0.43,0.916,1.342,0.487,2.039l0,0c-0.429,0.697-1.342,0.914-2.04,0.484L3.996,4.574
	C3.299,4.145,3.081,3.23,3.512,2.534l0,0c0.429-0.695,1.34-0.912,2.037-0.485L17.747,9.558z"/>
<path fill="#F2ECE7" d="M5.549,20.042c-0.697,0.428-1.608,0.211-2.037-0.484l0,0c-0.431-0.697-0.213-1.611,0.484-2.041l12.198-7.507
	c0.698-0.43,1.611-0.213,2.04,0.485l0,0c0.429,0.697,0.211,1.608-0.487,2.039L5.549,20.042z"/>
<path fill="#F2ECE7" d="M29.12,40.238c-0.58-0.58-1.519-0.58-2.097-0.002l0,0c-0.579,0.579-0.579,1.518,0,2.098l13.425,13.424
	c0.578,0.578,1.518,0.578,2.096-0.002l0,0c0.578-0.578,0.578-1.516,0-2.094L29.12,40.238z"/>
</svg>
